<svg width="50" height="50" viewBox="0 0 50 50" fill="none" xmlns="http://www.w3.org/2000/svg">
<path d="M34.4824 18.6671C33.6074 18.6671 33.0032 18.6671 33.0032 18.6671C34.2116 14.9587 35.5449 8.97949 31.3991 6.60449C30.2741 5.95866 26.8991 4.93782 26.4199 6.85448C25.7533 9.47948 25.1074 12.1045 23.5449 14.417C22.2533 16.3128 20.2949 18.4171 17.8574 18.6671C17.8574 18.7712 17.8574 18.8962 17.8574 18.8962V38.167C17.8574 38.167 17.8574 38.6879 17.8574 39.2087C18.1074 39.292 18.3574 39.3754 18.3574 39.3754L22.7324 40.8129C24.1699 41.2921 25.6699 41.542 27.1908 41.542H37.8783C40.0033 41.542 41.7324 39.8337 41.7324 37.7295C41.7324 37.2295 41.6283 36.7712 41.4408 36.3337C43.0866 35.8754 44.2741 34.3962 44.2741 32.6462C44.2741 31.667 43.9199 30.7712 43.2949 30.0837C43.8991 29.417 44.2741 28.5212 44.2741 27.5628C44.2741 26.5837 43.9199 25.6879 43.2949 25.0004C43.8991 24.3337 44.2741 23.4378 44.2741 22.4795C44.2741 20.3753 42.5449 18.6671 40.4408 18.6671C40.4408 18.6671 36.6491 18.6671 34.4824 18.6671Z" stroke="#E7BE89" stroke-width="2" stroke-linecap="round" stroke-linejoin="round"/>
<path d="M5.73145 15.375H13.0023C15.6689 15.375 17.8356 17.5417 17.8356 20.2083V39.4583C17.8356 42.125 15.6689 44.2917 13.0023 44.2917H5.73145V15.375Z" stroke="#E7BE89" stroke-width="2" stroke-linecap="round" stroke-linejoin="round"/>
<path d="M11.7998 39.041C12.6973 39.041 13.4248 38.3135 13.4248 37.4161C13.4248 36.5186 12.6973 35.791 11.7998 35.791C10.9024 35.791 10.1748 36.5186 10.1748 37.4161C10.1748 38.3135 10.9024 39.041 11.7998 39.041Z" fill="#E7BE89"/>
</svg>
