<svg width="50" height="50" viewBox="0 0 50 50" fill="none" xmlns="http://www.w3.org/2000/svg">
<path d="M25.3573 40.8533C28.5337 40.8864 31.6482 39.9744 34.3051 38.2333C36.962 36.4922 39.0414 34.0005 40.279 31.0749C41.5165 28.1494 41.8564 24.9219 41.2555 21.8027C40.6546 18.6835 39.14 15.8133 36.9042 13.5569C34.6683 11.3004 31.8121 9.75962 28.6985 9.13018C25.5849 8.50074 22.3545 8.8111 19.4177 10.0218C16.4809 11.2326 13.9704 13.289 12.205 15.9298C10.4396 18.5707 9.49919 21.6767 9.50315 24.8533C9.49218 26.9453 9.89371 29.0189 10.6848 30.9555C11.4758 32.8922 12.6409 34.6539 14.1134 36.1399C15.5859 37.6259 17.3368 38.8071 19.2662 39.6159C21.1955 40.4246 23.2653 40.8451 25.3573 40.8533V40.8533Z" stroke="#E7BE89" stroke-width="2" stroke-linecap="round" stroke-linejoin="round"/>
<path d="M25.361 26.3756L21.3193 23.6465" stroke="#E7BE89" stroke-width="2" stroke-linecap="round" stroke-linejoin="round"/>
<path d="M31.7262 21.791L25.3721 26.3743" stroke="#E7BE89" stroke-width="2" stroke-linecap="round" stroke-linejoin="round"/>
<path d="M41.0752 18.7507C42.241 18.172 43.1779 17.2176 43.7348 16.0413C44.2917 14.8649 44.4362 13.5353 44.145 12.2668C43.8537 10.9984 43.1437 9.86495 42.1295 9.04939C41.1152 8.23382 39.8558 7.78366 38.5544 7.77149C37.6597 7.77066 36.7772 7.9794 35.9777 8.38097C35.1781 8.78254 34.4838 9.36579 33.9502 10.084" stroke="#E7BE89" stroke-width="2" stroke-linecap="round" stroke-linejoin="round"/>
<path d="M16.0324 10.0832C15.3246 9.07438 14.3105 8.32069 13.1404 7.93396C11.9704 7.54724 10.7068 7.54808 9.53725 7.93636C8.36772 8.32465 7.35455 9.07968 6.64812 10.0894C5.94169 11.0991 5.57965 12.3097 5.61574 13.5415C5.60871 14.6336 5.91509 15.7047 6.49854 16.6279C7.08199 17.5511 7.918 18.2875 8.90741 18.7498" stroke="#E7BE89" stroke-width="2" stroke-linecap="round" stroke-linejoin="round"/>
<path d="M15.8486 37.6445L11.0986 42.4154" stroke="#E7BE89" stroke-width="2" stroke-linecap="round" stroke-linejoin="round"/>
<path d="M34.7637 37.6445L39.5137 42.4154" stroke="#E7BE89" stroke-width="2" stroke-linecap="round" stroke-linejoin="round"/>
</svg>
