<svg width="40" height="40" viewBox="0 0 40 40" fill="none" xmlns="http://www.w3.org/2000/svg">
<path d="M19.9948 4.58398C13.8448 4.58398 8.82812 9.60065 8.82812 15.7506C8.82812 23.384 18.8281 34.6173 19.2448 35.084C19.6448 35.534 20.3448 35.534 20.7448 35.084C21.1781 34.6173 31.1614 23.384 31.1614 15.7506C31.1614 9.60065 26.1448 4.58398 19.9948 4.58398Z" stroke="#F6CA95" stroke-width="2" stroke-linecap="round" stroke-linejoin="round"/>
<path d="M20.6351 19.642C22.7896 19.2991 24.2581 17.2745 23.9152 15.1201C23.5722 12.9656 21.5477 11.4971 19.3932 11.84C17.2387 12.1829 15.7702 14.2075 16.1131 16.3619C16.4561 18.5164 18.4806 19.985 20.6351 19.642Z" stroke="#F6CA95" stroke-width="2" stroke-linecap="round" stroke-linejoin="round"/>
</svg>
