<svg width="221" height="73" viewBox="0 0 221 73" fill="none" xmlns="http://www.w3.org/2000/svg">
<g clip-path="url(#clip0_102_2)">
<path fill-rule="evenodd" clip-rule="evenodd" d="M43.8509 0H5.51416V19.4711H7.6148V2.10499H43.8509V0Z" fill="url(#paint0_linear_102_2)"/>
<path fill-rule="evenodd" clip-rule="evenodd" d="M36.7612 3.15771H75.098V22.6289H72.9973V5.26271H36.7612V3.15771Z" fill="url(#paint1_linear_102_2)"/>
<path fill-rule="evenodd" clip-rule="evenodd" d="M10.7659 7.36768H8.66528V22.6288H10.7659V7.36768Z" fill="url(#paint2_linear_102_2)"/>
<path fill-rule="evenodd" clip-rule="evenodd" d="M5.51416 61.0444V72.885H24.9452V70.7801H7.6148V61.0444H5.51416Z" fill="url(#paint3_linear_102_2)"/>
<path fill-rule="evenodd" clip-rule="evenodd" d="M8.66528 57.8872V69.7278H35.7111V67.6228H10.7659V57.8872H8.66528Z" fill="url(#paint4_linear_102_2)"/>
<path fill-rule="evenodd" clip-rule="evenodd" d="M63.282 69.728H75.0981V50.2568H72.9974V67.623H63.282V69.728Z" fill="url(#paint5_linear_102_2)"/>
<path fill-rule="evenodd" clip-rule="evenodd" d="M5.51416 20.7866V43.9415H7.6148V42.6727V20.7866H5.51416Z" fill="url(#paint6_linear_102_2)"/>
<path fill-rule="evenodd" clip-rule="evenodd" d="M72.9973 24.2075V35.2588H75.098V34.6532V24.2075H72.9973Z" fill="url(#paint7_linear_102_2)"/>
<path fill-rule="evenodd" clip-rule="evenodd" d="M76.1484 31.8379V54.9927H78.249V53.724V31.8379H76.1484Z" fill="url(#paint8_linear_102_2)"/>
<path fill-rule="evenodd" clip-rule="evenodd" d="M76.1484 62.6235V72.8853H78.249V72.323V62.6235H76.1484Z" fill="url(#paint9_linear_102_2)"/>
<path fill-rule="evenodd" clip-rule="evenodd" d="M8.66528 24.2075V34.4693H10.7659V33.907V24.2075H8.66528Z" fill="url(#paint10_linear_102_2)"/>
<path fill-rule="evenodd" clip-rule="evenodd" d="M35.7111 3.15771H25.4705V5.26271H26.0315H35.7111V3.15771Z" fill="url(#paint11_linear_102_2)"/>
<path fill-rule="evenodd" clip-rule="evenodd" d="M33.1029 70.8193H26.574V72.9243H26.9317H33.1029V70.8193Z" fill="url(#paint12_linear_102_2)"/>
<path fill-rule="evenodd" clip-rule="evenodd" d="M8.66528 36.0479V38.9423H10.7659V38.7836V36.0479H8.66528Z" fill="url(#paint13_linear_102_2)"/>
<path fill-rule="evenodd" clip-rule="evenodd" d="M62.4943 70.7803H34.9233V72.8852H36.434H62.4943V70.7803Z" fill="url(#paint14_linear_102_2)"/>
<path fill-rule="evenodd" clip-rule="evenodd" d="M60.9187 2.10499H76.1484V30.5224H78.2491V0H60.9187V2.10499Z" fill="url(#paint15_linear_102_2)"/>
<path fill-rule="evenodd" clip-rule="evenodd" d="M10.6213 5.31886H24.5123V3.21387H8.70532V5.96858H10.6213V5.31886Z" fill="url(#paint16_linear_102_2)"/>
<mask id="mask0_102_2" style="mask-type:alpha" maskUnits="userSpaceOnUse" x="13" y="6" width="58" height="35">
<path d="M15.4922 6.84131H13.3916V8.94629H15.4922V6.84131Z" fill="#D9D9D9"/>
<path d="M18.3807 6.84131H16.28V8.94629H18.3807V6.84131Z" fill="#D9D9D9"/>
<path d="M21.2691 6.84131H19.1685V8.94629H21.2691V6.84131Z" fill="#D9D9D9"/>
<path d="M24.1575 6.84131H22.0569V8.94629H24.1575V6.84131Z" fill="#D9D9D9"/>
<path d="M27.046 6.84131H24.9453V8.94629H27.046V6.84131Z" fill="#D9D9D9"/>
<path d="M29.9341 6.84131H27.8335V8.94629H29.9341V6.84131Z" fill="#D9D9D9"/>
<path d="M32.8226 6.84131H30.7219V8.94629H32.8226V6.84131Z" fill="#D9D9D9"/>
<path d="M35.711 6.84131H33.6104V8.94629H35.711V6.84131Z" fill="#D9D9D9"/>
<path d="M38.5994 6.84131H36.4988V8.94629H38.5994V6.84131Z" fill="#D9D9D9"/>
<path d="M41.4878 6.84131H39.3872V8.94629H41.4878V6.84131Z" fill="#D9D9D9"/>
<path d="M44.376 6.84131H42.2754V8.94629H44.376V6.84131Z" fill="#D9D9D9"/>
<path d="M47.2645 6.84131H45.1638V8.94629H47.2645V6.84131Z" fill="#D9D9D9"/>
<path d="M50.1529 6.84131H48.0522V8.94629H50.1529V6.84131Z" fill="#D9D9D9"/>
<path d="M53.0413 6.84131H50.9407V8.94629H53.0413V6.84131Z" fill="#D9D9D9"/>
<path d="M55.9297 6.84131H53.8291V8.94629H55.9297V6.84131Z" fill="#D9D9D9"/>
<path d="M58.8182 6.84131H56.7175V8.94629H58.8182V6.84131Z" fill="#D9D9D9"/>
<path d="M61.7066 6.84131H59.606V8.94629H61.7066V6.84131Z" fill="#D9D9D9"/>
<path d="M64.595 6.84131H62.4944V8.94629H64.595V6.84131Z" fill="#D9D9D9"/>
<path d="M67.4832 6.84131H65.3826V8.94629H67.4832V6.84131Z" fill="#D9D9D9"/>
<path d="M70.3716 6.84131H68.271V8.94629H70.3716V6.84131Z" fill="#D9D9D9"/>
<path d="M15.4922 9.73584H13.3916V11.8408H15.4922V9.73584Z" fill="#D9D9D9"/>
<path d="M18.3807 9.73584H16.28V11.8408H18.3807V9.73584Z" fill="#D9D9D9"/>
<path d="M21.2691 9.73584H19.1685V11.8408H21.2691V9.73584Z" fill="#D9D9D9"/>
<path d="M24.1575 9.73584H22.0569V11.8408H24.1575V9.73584Z" fill="#D9D9D9"/>
<path d="M27.046 9.73584H24.9453V11.8408H27.046V9.73584Z" fill="#D9D9D9"/>
<path d="M29.9341 9.73584H27.8335V11.8408H29.9341V9.73584Z" fill="#D9D9D9"/>
<path d="M32.8226 9.73584H30.7219V11.8408H32.8226V9.73584Z" fill="#D9D9D9"/>
<path d="M35.711 9.73584H33.6104V11.8408H35.711V9.73584Z" fill="#D9D9D9"/>
<path d="M38.5994 9.73584H36.4988V11.8408H38.5994V9.73584Z" fill="#D9D9D9"/>
<path d="M41.4878 9.73584H39.3872V11.8408H41.4878V9.73584Z" fill="#D9D9D9"/>
<path d="M44.376 9.73584H42.2754V11.8408H44.376V9.73584Z" fill="#D9D9D9"/>
<path d="M47.2645 9.73584H45.1638V11.8408H47.2645V9.73584Z" fill="#D9D9D9"/>
<path d="M50.1529 9.73584H48.0522V11.8408H50.1529V9.73584Z" fill="#D9D9D9"/>
<path d="M53.0413 9.73584H50.9407V11.8408H53.0413V9.73584Z" fill="#D9D9D9"/>
<path d="M55.9297 9.73584H53.8291V11.8408H55.9297V9.73584Z" fill="#D9D9D9"/>
<path d="M58.8182 9.73584H56.7175V11.8408H58.8182V9.73584Z" fill="#D9D9D9"/>
<path d="M61.7066 9.73584H59.606V11.8408H61.7066V9.73584Z" fill="#D9D9D9"/>
<path d="M64.595 9.73584H62.4944V11.8408H64.595V9.73584Z" fill="#D9D9D9"/>
<path d="M67.4832 9.73584H65.3826V11.8408H67.4832V9.73584Z" fill="#D9D9D9"/>
<path d="M70.3716 9.73584H68.271V11.8408H70.3716V9.73584Z" fill="#D9D9D9"/>
<path d="M15.4922 12.6299H13.3916V14.7349H15.4922V12.6299Z" fill="#D9D9D9"/>
<path d="M18.3807 12.6299H16.28V14.7349H18.3807V12.6299Z" fill="#D9D9D9"/>
<path d="M21.2691 12.6299H19.1685V14.7349H21.2691V12.6299Z" fill="#D9D9D9"/>
<path d="M24.1575 12.6299H22.0569V14.7349H24.1575V12.6299Z" fill="#D9D9D9"/>
<path d="M27.046 12.6299H24.9453V14.7349H27.046V12.6299Z" fill="#D9D9D9"/>
<path d="M29.9341 12.6299H27.8335V14.7349H29.9341V12.6299Z" fill="#D9D9D9"/>
<path d="M32.8226 12.6299H30.7219V14.7349H32.8226V12.6299Z" fill="#D9D9D9"/>
<path d="M35.711 12.6299H33.6104V14.7349H35.711V12.6299Z" fill="#D9D9D9"/>
<path d="M38.5994 12.6299H36.4988V14.7349H38.5994V12.6299Z" fill="#D9D9D9"/>
<path d="M41.4878 12.6299H39.3872V14.7349H41.4878V12.6299Z" fill="#D9D9D9"/>
<path d="M44.376 12.6299H42.2754V14.7349H44.376V12.6299Z" fill="#D9D9D9"/>
<path d="M47.2645 12.6299H45.1638V14.7349H47.2645V12.6299Z" fill="#D9D9D9"/>
<path d="M50.1529 12.6299H48.0522V14.7349H50.1529V12.6299Z" fill="#D9D9D9"/>
<path d="M53.0413 12.6299H50.9407V14.7349H53.0413V12.6299Z" fill="#D9D9D9"/>
<path d="M55.9297 12.6299H53.8291V14.7349H55.9297V12.6299Z" fill="#D9D9D9"/>
<path d="M58.8182 12.6299H56.7175V14.7349H58.8182V12.6299Z" fill="#D9D9D9"/>
<path d="M61.7066 12.6299H59.606V14.7349H61.7066V12.6299Z" fill="#D9D9D9"/>
<path d="M64.595 12.6299H62.4944V14.7349H64.595V12.6299Z" fill="#D9D9D9"/>
<path d="M67.4832 12.6299H65.3826V14.7349H67.4832V12.6299Z" fill="#D9D9D9"/>
<path d="M70.3716 12.6299H68.271V14.7349H70.3716V12.6299Z" fill="#D9D9D9"/>
<path d="M15.4922 15.5244H13.3916V17.6294H15.4922V15.5244Z" fill="#D9D9D9"/>
<path d="M18.3807 15.5244H16.28V17.6294H18.3807V15.5244Z" fill="#D9D9D9"/>
<path d="M21.2691 15.5244H19.1685V17.6294H21.2691V15.5244Z" fill="#D9D9D9"/>
<path d="M24.1575 15.5244H22.0569V17.6294H24.1575V15.5244Z" fill="#D9D9D9"/>
<path d="M27.046 15.5244H24.9453V17.6294H27.046V15.5244Z" fill="#D9D9D9"/>
<path d="M29.9341 15.5244H27.8335V17.6294H29.9341V15.5244Z" fill="#D9D9D9"/>
<path d="M32.8226 15.5244H30.7219V17.6294H32.8226V15.5244Z" fill="#D9D9D9"/>
<path d="M35.711 15.5244H33.6104V17.6294H35.711V15.5244Z" fill="#D9D9D9"/>
<path d="M38.5994 15.5244H36.4988V17.6294H38.5994V15.5244Z" fill="#D9D9D9"/>
<path d="M41.4878 15.5244H39.3872V17.6294H41.4878V15.5244Z" fill="#D9D9D9"/>
<path d="M44.376 15.5244H42.2754V17.6294H44.376V15.5244Z" fill="#D9D9D9"/>
<path d="M47.2645 15.5244H45.1638V17.6294H47.2645V15.5244Z" fill="#D9D9D9"/>
<path d="M50.1529 15.5244H48.0522V17.6294H50.1529V15.5244Z" fill="#D9D9D9"/>
<path d="M53.0413 15.5244H50.9407V17.6294H53.0413V15.5244Z" fill="#D9D9D9"/>
<path d="M55.9297 15.5244H53.8291V17.6294H55.9297V15.5244Z" fill="#D9D9D9"/>
<path d="M58.8182 15.5244H56.7175V17.6294H58.8182V15.5244Z" fill="#D9D9D9"/>
<path d="M61.7066 15.5244H59.606V17.6294H61.7066V15.5244Z" fill="#D9D9D9"/>
<path d="M64.595 15.5244H62.4944V17.6294H64.595V15.5244Z" fill="#D9D9D9"/>
<path d="M67.4832 15.5244H65.3826V17.6294H67.4832V15.5244Z" fill="#D9D9D9"/>
<path d="M70.3716 15.5244H68.271V17.6294H70.3716V15.5244Z" fill="#D9D9D9"/>
<path d="M15.4922 18.4185H13.3916V20.5234H15.4922V18.4185Z" fill="#D9D9D9"/>
<path d="M18.3807 18.4185H16.28V20.5234H18.3807V18.4185Z" fill="#D9D9D9"/>
<path d="M21.2691 18.4185H19.1685V20.5234H21.2691V18.4185Z" fill="#D9D9D9"/>
<path d="M24.1575 18.4185H22.0569V20.5234H24.1575V18.4185Z" fill="#D9D9D9"/>
<path d="M27.046 18.4185H24.9453V20.5234H27.046V18.4185Z" fill="#D9D9D9"/>
<path d="M29.9341 18.4185H27.8335V20.5234H29.9341V18.4185Z" fill="#D9D9D9"/>
<path d="M32.8226 18.4185H30.7219V20.5234H32.8226V18.4185Z" fill="#D9D9D9"/>
<path d="M35.711 18.4185H33.6104V20.5234H35.711V18.4185Z" fill="#D9D9D9"/>
<path d="M38.5994 18.4185H36.4988V20.5234H38.5994V18.4185Z" fill="#D9D9D9"/>
<path d="M41.4878 18.4185H39.3872V20.5234H41.4878V18.4185Z" fill="#D9D9D9"/>
<path d="M44.376 18.4185H42.2754V20.5234H44.376V18.4185Z" fill="#D9D9D9"/>
<path d="M47.2645 18.4185H45.1638V20.5234H47.2645V18.4185Z" fill="#D9D9D9"/>
<path d="M50.1529 18.4185H48.0522V20.5234H50.1529V18.4185Z" fill="#D9D9D9"/>
<path d="M53.0413 18.4185H50.9407V20.5234H53.0413V18.4185Z" fill="#D9D9D9"/>
<path d="M55.9297 18.4185H53.8291V20.5234H55.9297V18.4185Z" fill="#D9D9D9"/>
<path d="M58.8182 18.4185H56.7175V20.5234H58.8182V18.4185Z" fill="#D9D9D9"/>
<path d="M61.7066 18.4185H59.606V20.5234H61.7066V18.4185Z" fill="#D9D9D9"/>
<path d="M64.595 18.4185H62.4944V20.5234H64.595V18.4185Z" fill="#D9D9D9"/>
<path d="M67.4832 18.4185H65.3826V20.5234H67.4832V18.4185Z" fill="#D9D9D9"/>
<path d="M70.3716 18.4185H68.271V20.5234H70.3716V18.4185Z" fill="#D9D9D9"/>
<path d="M15.4922 21.313H13.3916V23.418H15.4922V21.313Z" fill="#D9D9D9"/>
<path d="M18.3807 21.313H16.28V23.418H18.3807V21.313Z" fill="#D9D9D9"/>
<path d="M21.2691 21.313H19.1685V23.418H21.2691V21.313Z" fill="#D9D9D9"/>
<path d="M24.1575 21.313H22.0569V23.418H24.1575V21.313Z" fill="#D9D9D9"/>
<path d="M27.046 21.313H24.9453V23.418H27.046V21.313Z" fill="#D9D9D9"/>
<path d="M29.9341 21.313H27.8335V23.418H29.9341V21.313Z" fill="#D9D9D9"/>
<path d="M32.8226 21.313H30.7219V23.418H32.8226V21.313Z" fill="#D9D9D9"/>
<path d="M35.711 21.313H33.6104V23.418H35.711V21.313Z" fill="#D9D9D9"/>
<path d="M38.5994 21.313H36.4988V23.418H38.5994V21.313Z" fill="#D9D9D9"/>
<path d="M41.4878 21.313H39.3872V23.418H41.4878V21.313Z" fill="#D9D9D9"/>
<path d="M44.376 21.313H42.2754V23.418H44.376V21.313Z" fill="#D9D9D9"/>
<path d="M47.2645 21.313H45.1638V23.418H47.2645V21.313Z" fill="#D9D9D9"/>
<path d="M50.1529 21.313H48.0522V23.418H50.1529V21.313Z" fill="#D9D9D9"/>
<path d="M53.0413 21.313H50.9407V23.418H53.0413V21.313Z" fill="#D9D9D9"/>
<path d="M55.9297 21.313H53.8291V23.418H55.9297V21.313Z" fill="#D9D9D9"/>
<path d="M58.8182 21.313H56.7175V23.418H58.8182V21.313Z" fill="#D9D9D9"/>
<path d="M61.7066 21.313H59.606V23.418H61.7066V21.313Z" fill="#D9D9D9"/>
<path d="M64.595 21.313H62.4944V23.418H64.595V21.313Z" fill="#D9D9D9"/>
<path d="M67.4832 21.313H65.3826V23.418H67.4832V21.313Z" fill="#D9D9D9"/>
<path d="M70.3716 21.313H68.271V23.418H70.3716V21.313Z" fill="#D9D9D9"/>
<path d="M15.4922 24.2075H13.3916V26.3125H15.4922V24.2075Z" fill="#D9D9D9"/>
<path d="M18.3807 24.2075H16.28V26.3125H18.3807V24.2075Z" fill="#D9D9D9"/>
<path d="M21.2691 24.2075H19.1685V26.3125H21.2691V24.2075Z" fill="#D9D9D9"/>
<path d="M24.1575 24.2075H22.0569V26.3125H24.1575V24.2075Z" fill="#D9D9D9"/>
<path d="M27.046 24.2075H24.9453V26.3125H27.046V24.2075Z" fill="#D9D9D9"/>
<path d="M29.9341 24.2075H27.8335V26.3125H29.9341V24.2075Z" fill="#D9D9D9"/>
<path d="M32.8226 24.2075H30.7219V26.3125H32.8226V24.2075Z" fill="#D9D9D9"/>
<path d="M35.711 24.2075H33.6104V26.3125H35.711V24.2075Z" fill="#D9D9D9"/>
<path d="M38.5994 24.2075H36.4988V26.3125H38.5994V24.2075Z" fill="#D9D9D9"/>
<path d="M41.4878 24.2075H39.3872V26.3125H41.4878V24.2075Z" fill="#D9D9D9"/>
<path d="M44.376 24.2075H42.2754V26.3125H44.376V24.2075Z" fill="#D9D9D9"/>
<path d="M47.2645 24.2075H45.1638V26.3125H47.2645V24.2075Z" fill="#D9D9D9"/>
<path d="M50.1529 24.2075H48.0522V26.3125H50.1529V24.2075Z" fill="#D9D9D9"/>
<path d="M53.0413 24.2075H50.9407V26.3125H53.0413V24.2075Z" fill="#D9D9D9"/>
<path d="M55.9297 24.2075H53.8291V26.3125H55.9297V24.2075Z" fill="#D9D9D9"/>
<path d="M58.8182 24.2075H56.7175V26.3125H58.8182V24.2075Z" fill="#D9D9D9"/>
<path d="M61.7066 24.2075H59.606V26.3125H61.7066V24.2075Z" fill="#D9D9D9"/>
<path d="M64.595 24.2075H62.4944V26.3125H64.595V24.2075Z" fill="#D9D9D9"/>
<path d="M67.4832 24.2075H65.3826V26.3125H67.4832V24.2075Z" fill="#D9D9D9"/>
<path d="M70.3716 24.2075H68.271V26.3125H70.3716V24.2075Z" fill="#D9D9D9"/>
<path d="M15.4922 27.1016H13.3916V29.2065H15.4922V27.1016Z" fill="#D9D9D9"/>
<path d="M18.3807 27.1016H16.28V29.2065H18.3807V27.1016Z" fill="#D9D9D9"/>
<path d="M21.2691 27.1016H19.1685V29.2065H21.2691V27.1016Z" fill="#D9D9D9"/>
<path d="M24.1575 27.1016H22.0569V29.2065H24.1575V27.1016Z" fill="#D9D9D9"/>
<path d="M27.046 27.1016H24.9453V29.2065H27.046V27.1016Z" fill="#D9D9D9"/>
<path d="M29.9341 27.1016H27.8335V29.2065H29.9341V27.1016Z" fill="#D9D9D9"/>
<path d="M32.8226 27.1016H30.7219V29.2065H32.8226V27.1016Z" fill="#D9D9D9"/>
<path d="M35.711 27.1016H33.6104V29.2065H35.711V27.1016Z" fill="#D9D9D9"/>
<path d="M38.5994 27.1016H36.4988V29.2065H38.5994V27.1016Z" fill="#D9D9D9"/>
<path d="M41.4878 27.1016H39.3872V29.2065H41.4878V27.1016Z" fill="#D9D9D9"/>
<path d="M44.376 27.1016H42.2754V29.2065H44.376V27.1016Z" fill="#D9D9D9"/>
<path d="M47.2645 27.1016H45.1638V29.2065H47.2645V27.1016Z" fill="#D9D9D9"/>
<path d="M50.1529 27.1016H48.0522V29.2065H50.1529V27.1016Z" fill="#D9D9D9"/>
<path d="M53.0413 27.1016H50.9407V29.2065H53.0413V27.1016Z" fill="#D9D9D9"/>
<path d="M55.9297 27.1016H53.8291V29.2065H55.9297V27.1016Z" fill="#D9D9D9"/>
<path d="M58.8182 27.1016H56.7175V29.2065H58.8182V27.1016Z" fill="#D9D9D9"/>
<path d="M61.7066 27.1016H59.606V29.2065H61.7066V27.1016Z" fill="#D9D9D9"/>
<path d="M64.595 27.1016H62.4944V29.2065H64.595V27.1016Z" fill="#D9D9D9"/>
<path d="M67.4832 27.1016H65.3826V29.2065H67.4832V27.1016Z" fill="#D9D9D9"/>
<path d="M70.3716 27.1016H68.271V29.2065H70.3716V27.1016Z" fill="#D9D9D9"/>
<g opacity="0.5">
<path d="M15.4922 29.7329H13.3916V31.8379H15.4922V29.7329Z" fill="#D9D9D9"/>
<path d="M18.3807 29.7329H16.28V31.8379H18.3807V29.7329Z" fill="#D9D9D9"/>
<path d="M21.2691 29.7329H19.1685V31.8379H21.2691V29.7329Z" fill="#D9D9D9"/>
<path d="M24.1575 29.7329H22.0569V31.8379H24.1575V29.7329Z" fill="#D9D9D9"/>
<path d="M27.046 29.7329H24.9453V31.8379H27.046V29.7329Z" fill="#D9D9D9"/>
<path d="M29.9341 29.7329H27.8335V31.8379H29.9341V29.7329Z" fill="#D9D9D9"/>
<path d="M32.8226 29.7329H30.7219V31.8379H32.8226V29.7329Z" fill="#D9D9D9"/>
<path d="M35.711 29.7329H33.6104V31.8379H35.711V29.7329Z" fill="#D9D9D9"/>
<path d="M38.5994 29.7329H36.4988V31.8379H38.5994V29.7329Z" fill="#D9D9D9"/>
<path d="M41.4878 29.7329H39.3872V31.8379H41.4878V29.7329Z" fill="#D9D9D9"/>
<path d="M44.376 29.7329H42.2754V31.8379H44.376V29.7329Z" fill="#D9D9D9"/>
<path d="M47.2645 29.7329H45.1638V31.8379H47.2645V29.7329Z" fill="#D9D9D9"/>
<path d="M50.1529 29.7329H48.0522V31.8379H50.1529V29.7329Z" fill="#D9D9D9"/>
<path d="M53.0413 29.7329H50.9407V31.8379H53.0413V29.7329Z" fill="#D9D9D9"/>
<path d="M55.9297 29.7329H53.8291V31.8379H55.9297V29.7329Z" fill="#D9D9D9"/>
<path d="M58.8182 29.7329H56.7175V31.8379H58.8182V29.7329Z" fill="#D9D9D9"/>
<path d="M61.7066 29.7329H59.606V31.8379H61.7066V29.7329Z" fill="#D9D9D9"/>
<path d="M64.595 29.7329H62.4944V31.8379H64.595V29.7329Z" fill="#D9D9D9"/>
<path d="M67.4832 29.7329H65.3826V31.8379H67.4832V29.7329Z" fill="#D9D9D9"/>
<path d="M70.3716 29.7329H68.271V31.8379H70.3716V29.7329Z" fill="#D9D9D9"/>
</g>
<g opacity="0.1">
<path d="M15.4922 32.3643H13.3916V34.4692H15.4922V32.3643Z" fill="#D9D9D9"/>
<path d="M18.3807 32.3643H16.28V34.4692H18.3807V32.3643Z" fill="#D9D9D9"/>
<path d="M21.2691 32.3643H19.1685V34.4692H21.2691V32.3643Z" fill="#D9D9D9"/>
<path d="M24.1575 32.3643H22.0569V34.4692H24.1575V32.3643Z" fill="#D9D9D9"/>
<path d="M27.046 32.3643H24.9453V34.4692H27.046V32.3643Z" fill="#D9D9D9"/>
<path d="M29.9341 32.3643H27.8335V34.4692H29.9341V32.3643Z" fill="#D9D9D9"/>
<path d="M32.8226 32.3643H30.7219V34.4692H32.8226V32.3643Z" fill="#D9D9D9"/>
<path d="M35.711 32.3643H33.6104V34.4692H35.711V32.3643Z" fill="#D9D9D9"/>
<path d="M38.5994 32.3643H36.4988V34.4692H38.5994V32.3643Z" fill="#D9D9D9"/>
<path d="M41.4878 32.3643H39.3872V34.4692H41.4878V32.3643Z" fill="#D9D9D9"/>
<path d="M44.376 32.3643H42.2754V34.4692H44.376V32.3643Z" fill="#D9D9D9"/>
<path d="M47.2645 32.3643H45.1638V34.4692H47.2645V32.3643Z" fill="#D9D9D9"/>
<path d="M50.1529 32.3643H48.0522V34.4692H50.1529V32.3643Z" fill="#D9D9D9"/>
<path d="M53.0413 32.3643H50.9407V34.4692H53.0413V32.3643Z" fill="#D9D9D9"/>
<path d="M55.9297 32.3643H53.8291V34.4692H55.9297V32.3643Z" fill="#D9D9D9"/>
<path d="M58.8182 32.3643H56.7175V34.4692H58.8182V32.3643Z" fill="#D9D9D9"/>
<path d="M61.7066 32.3643H59.606V34.4692H61.7066V32.3643Z" fill="#D9D9D9"/>
<path d="M64.595 32.3643H62.4944V34.4692H64.595V32.3643Z" fill="#D9D9D9"/>
<path d="M67.4832 32.3643H65.3826V34.4692H67.4832V32.3643Z" fill="#D9D9D9"/>
<path d="M70.3716 32.3643H68.271V34.4692H70.3716V32.3643Z" fill="#D9D9D9"/>
</g>
<g opacity="0.1">
<path d="M15.4922 35.2588H13.3916V37.3638H15.4922V35.2588Z" fill="#D9D9D9"/>
<path d="M18.3807 35.2588H16.28V37.3638H18.3807V35.2588Z" fill="#D9D9D9"/>
<path d="M21.2691 35.2588H19.1685V37.3638H21.2691V35.2588Z" fill="#D9D9D9"/>
<path d="M24.1575 35.2588H22.0569V37.3638H24.1575V35.2588Z" fill="#D9D9D9"/>
<path d="M27.046 35.2588H24.9453V37.3638H27.046V35.2588Z" fill="#D9D9D9"/>
<path d="M29.9341 35.2588H27.8335V37.3638H29.9341V35.2588Z" fill="#D9D9D9"/>
<path d="M32.8226 35.2588H30.7219V37.3638H32.8226V35.2588Z" fill="#D9D9D9"/>
<path d="M35.711 35.2588H33.6104V37.3638H35.711V35.2588Z" fill="#D9D9D9"/>
<path d="M38.5994 35.2588H36.4988V37.3638H38.5994V35.2588Z" fill="#D9D9D9"/>
<path d="M41.4878 35.2588H39.3872V37.3638H41.4878V35.2588Z" fill="#D9D9D9"/>
<path d="M44.376 35.2588H42.2754V37.3638H44.376V35.2588Z" fill="#D9D9D9"/>
<path d="M47.2645 35.2588H45.1638V37.3638H47.2645V35.2588Z" fill="#D9D9D9"/>
<path d="M50.1529 35.2588H48.0522V37.3638H50.1529V35.2588Z" fill="#D9D9D9"/>
<path d="M53.0413 35.2588H50.9407V37.3638H53.0413V35.2588Z" fill="#D9D9D9"/>
<path d="M55.9297 35.2588H53.8291V37.3638H55.9297V35.2588Z" fill="#D9D9D9"/>
<path d="M58.8182 35.2588H56.7175V37.3638H58.8182V35.2588Z" fill="#D9D9D9"/>
<path d="M61.7066 35.2588H59.606V37.3638H61.7066V35.2588Z" fill="#D9D9D9"/>
<path d="M64.595 35.2588H62.4944V37.3638H64.595V35.2588Z" fill="#D9D9D9"/>
<path d="M67.4832 35.2588H65.3826V37.3638H67.4832V35.2588Z" fill="#D9D9D9"/>
<path d="M70.3716 35.2588H68.271V37.3638H70.3716V35.2588Z" fill="#D9D9D9"/>
</g>
<g opacity="0.1">
<path d="M15.4922 38.1528H13.3916V40.2578H15.4922V38.1528Z" fill="#D9D9D9"/>
<path d="M18.3807 38.1528H16.28V40.2578H18.3807V38.1528Z" fill="#D9D9D9"/>
<path d="M21.2691 38.1528H19.1685V40.2578H21.2691V38.1528Z" fill="#D9D9D9"/>
<path d="M24.1575 38.1528H22.0569V40.2578H24.1575V38.1528Z" fill="#D9D9D9"/>
<path d="M27.046 38.1528H24.9453V40.2578H27.046V38.1528Z" fill="#D9D9D9"/>
<path d="M29.9341 38.1528H27.8335V40.2578H29.9341V38.1528Z" fill="#D9D9D9"/>
<path d="M32.8226 38.1528H30.7219V40.2578H32.8226V38.1528Z" fill="#D9D9D9"/>
<path d="M35.711 38.1528H33.6104V40.2578H35.711V38.1528Z" fill="#D9D9D9"/>
<path d="M38.5994 38.1528H36.4988V40.2578H38.5994V38.1528Z" fill="#D9D9D9"/>
<path d="M41.4878 38.1528H39.3872V40.2578H41.4878V38.1528Z" fill="#D9D9D9"/>
<path d="M44.376 38.1528H42.2754V40.2578H44.376V38.1528Z" fill="#D9D9D9"/>
<path d="M47.2645 38.1528H45.1638V40.2578H47.2645V38.1528Z" fill="#D9D9D9"/>
<path d="M50.1529 38.1528H48.0522V40.2578H50.1529V38.1528Z" fill="#D9D9D9"/>
<path d="M53.0413 38.1528H50.9407V40.2578H53.0413V38.1528Z" fill="#D9D9D9"/>
<path d="M55.9297 38.1528H53.8291V40.2578H55.9297V38.1528Z" fill="#D9D9D9"/>
<path d="M58.8182 38.1528H56.7175V40.2578H58.8182V38.1528Z" fill="#D9D9D9"/>
<path d="M61.7066 38.1528H59.606V40.2578H61.7066V38.1528Z" fill="#D9D9D9"/>
<path d="M64.595 38.1528H62.4944V40.2578H64.595V38.1528Z" fill="#D9D9D9"/>
<path d="M67.4832 38.1528H65.3826V40.2578H67.4832V38.1528Z" fill="#D9D9D9"/>
<path d="M70.3716 38.1528H68.271V40.2578H70.3716V38.1528Z" fill="#D9D9D9"/>
</g>
</mask>
<g mask="url(#mask0_102_2)">
<path d="M71.6844 4.47314H12.0786V41.5736H71.6844V4.47314Z" fill="url(#paint17_linear_102_2)"/>
</g>
<path d="M77.4613 46.3096H7.08964C4.04423 46.3096 1.57544 48.7835 1.57544 51.8352V59.2026C1.57544 62.2543 4.04423 64.7282 7.08964 64.7282H77.4613C80.5067 64.7282 82.9755 62.2543 82.9755 59.2026V51.8352C82.9755 48.7835 80.5067 46.3096 77.4613 46.3096Z" fill="url(#paint18_linear_102_2)"/>
<path d="M77.4613 46.4414H7.0897C4.1168 46.4414 1.70679 48.8564 1.70679 51.8354V59.2029C1.70679 62.1819 4.1168 64.5969 7.0897 64.5969H77.4613C80.4342 64.5969 82.8442 62.1819 82.8442 59.2029V51.8354C82.8442 48.8564 80.4342 46.4414 77.4613 46.4414Z" stroke="white" stroke-opacity="0.12"/>
<g filter="url(#filter0_d_102_2)">
<path d="M14.2324 56.234V49.9607H16.808C17.3625 49.9607 17.8365 50.0504 18.2301 50.2295C18.6295 50.4088 18.9366 50.6657 19.1512 51.0003C19.3659 51.3349 19.4732 51.7321 19.4732 52.1922C19.4732 52.6522 19.3659 53.0496 19.1512 53.3842C18.9366 53.7187 18.6295 53.9756 18.2301 54.1549C17.8365 54.3341 17.3625 54.4237 16.808 54.4237H14.8763L15.395 53.877V56.234H14.2324ZM15.395 54.0025L14.8763 53.4379H16.7544C17.2671 53.4379 17.6518 53.3303 17.9081 53.1152C18.1704 52.8942 18.3016 52.5866 18.3016 52.1922C18.3016 51.7919 18.1704 51.4842 17.9081 51.2691C17.6518 51.054 17.2671 50.9465 16.7544 50.9465H14.8763L15.395 50.3729V54.0025ZM23.655 56.3237C23.1661 56.3237 22.7159 56.243 22.3045 56.0816C21.8932 55.9203 21.5353 55.6963 21.2314 55.4096C20.9272 55.1168 20.6917 54.7762 20.5248 54.3879C20.3578 53.9935 20.2743 53.5633 20.2743 53.0973C20.2743 52.6313 20.3578 52.2041 20.5248 51.8158C20.6917 51.4215 20.9272 51.081 21.2314 50.7942C21.5353 50.5015 21.8932 50.2744 22.3045 50.113C22.7159 49.9518 23.1631 49.8711 23.646 49.8711C24.1349 49.8711 24.5821 49.9518 24.9876 50.113C25.3989 50.2744 25.7567 50.5015 26.0607 50.7942C26.3648 51.081 26.6003 51.4215 26.7672 51.8158C26.9342 52.2041 27.0177 52.6313 27.0177 53.0973C27.0177 53.5633 26.9342 53.9935 26.7672 54.3879C26.6003 54.7822 26.3648 55.1227 26.0607 55.4096C25.7567 55.6963 25.3989 55.9203 24.9876 56.0816C24.5821 56.243 24.1379 56.3237 23.655 56.3237ZM23.646 55.302C23.9621 55.302 24.2541 55.2482 24.5225 55.1406C24.7908 55.0331 25.0233 54.8808 25.2201 54.6836C25.4169 54.4804 25.5689 54.2474 25.6762 53.9846C25.7895 53.7158 25.8461 53.42 25.8461 53.0973C25.8461 52.7747 25.7895 52.482 25.6762 52.2191C25.5689 51.9502 25.4169 51.7172 25.2201 51.52C25.0233 51.317 24.7908 51.1616 24.5225 51.054C24.2541 50.9465 23.9621 50.8927 23.646 50.8927C23.33 50.8927 23.0379 50.9465 22.7695 51.054C22.5072 51.1616 22.2747 51.317 22.072 51.52C21.8752 51.7172 21.7202 51.9502 21.6069 52.2191C21.4996 52.482 21.446 52.7747 21.446 53.0973C21.446 53.414 21.4996 53.7068 21.6069 53.9756C21.7202 54.2444 21.8752 54.4804 22.072 54.6836C22.2688 54.8808 22.5013 55.0331 22.7695 55.1406C23.0379 55.2482 23.33 55.302 23.646 55.302ZM31.1834 56.3237C30.6946 56.3237 30.2444 56.243 29.833 56.0816C29.4216 55.9203 29.0639 55.6963 28.7598 55.4096C28.4557 55.1168 28.2202 54.7762 28.0533 54.3879C27.8863 53.9935 27.8029 53.5633 27.8029 53.0973C27.8029 52.6313 27.8863 52.2041 28.0533 51.8158C28.2202 51.4215 28.4557 51.081 28.7598 50.7942C29.0639 50.5015 29.4216 50.2744 29.833 50.113C30.2444 49.9518 30.6916 49.8711 31.1745 49.8711C31.6635 49.8711 32.1105 49.9518 32.516 50.113C32.9275 50.2744 33.2852 50.5015 33.5892 50.7942C33.8933 51.081 34.1288 51.4215 34.2958 51.8158C34.4627 52.2041 34.5462 52.6313 34.5462 53.0973C34.5462 53.5633 34.4627 53.9935 34.2958 54.3879C34.1288 54.7822 33.8933 55.1227 33.5892 55.4096C33.2852 55.6963 32.9275 55.9203 32.516 56.0816C32.1105 56.243 31.6665 56.3237 31.1834 56.3237ZM31.1745 55.302C31.4905 55.302 31.7827 55.2482 32.051 55.1406C32.3192 55.0331 32.5518 54.8808 32.7485 54.6836C32.9453 54.4804 33.0973 54.2474 33.2047 53.9846C33.3179 53.7158 33.3746 53.42 33.3746 53.0973C33.3746 52.7747 33.3179 52.482 33.2047 52.2191C33.0973 51.9502 32.9453 51.7172 32.7485 51.52C32.5518 51.317 32.3192 51.1616 32.051 51.054C31.7827 50.9465 31.4905 50.8927 31.1745 50.8927C30.8585 50.8927 30.5664 50.9465 30.2981 51.054C30.0357 51.1616 29.8032 51.317 29.6004 51.52C29.4038 51.7172 29.2487 51.9502 29.1354 52.2191C29.0281 52.482 28.9745 52.7747 28.9745 53.0973C28.9745 53.414 29.0281 53.7068 29.1354 53.9756C29.2487 54.2444 29.4038 54.4804 29.6004 54.6836C29.7972 54.8808 30.0297 55.0331 30.2981 55.1406C30.5664 55.2482 30.8585 55.302 31.1745 55.302ZM35.7786 56.234V49.9607H36.9412V55.2482H40.2145V56.234H35.7786ZM44.6682 52.8464H47.7894V53.8323H44.6682V52.8464ZM44.7666 56.234H43.6039V49.9607H48.1741V50.9375H44.7666V56.234ZM52.1619 56.3237C51.673 56.3237 51.2229 56.243 50.8114 56.0816C50.4001 55.9203 50.0424 55.6963 49.7383 55.4096C49.4342 55.1168 49.1987 54.7762 49.0318 54.3879C48.8648 53.9935 48.7814 53.5633 48.7814 53.0973C48.7814 52.6313 48.8648 52.2041 49.0318 51.8158C49.1987 51.4215 49.4342 51.081 49.7383 50.7942C50.0424 50.5015 50.4001 50.2744 50.8114 50.113C51.2229 49.9518 51.67 49.8711 52.153 49.8711C52.6418 49.8711 53.089 49.9518 53.4945 50.113C53.9059 50.2744 54.2636 50.5015 54.5676 50.7942C54.8717 51.081 55.1072 51.4215 55.2743 51.8158C55.4411 52.2041 55.5246 52.6313 55.5246 53.0973C55.5246 53.5633 55.4411 53.9935 55.2743 54.3879C55.1072 54.7822 54.8717 55.1227 54.5676 55.4096C54.2636 55.6963 53.9059 55.9203 53.4945 56.0816C53.089 56.243 52.6448 56.3237 52.1619 56.3237ZM52.153 55.302C52.469 55.302 52.7611 55.2482 53.0294 55.1406C53.2977 55.0331 53.5302 54.8808 53.727 54.6836C53.9238 54.4804 54.0758 54.2474 54.1831 53.9846C54.2964 53.7158 54.353 53.42 54.353 53.0973C54.353 52.7747 54.2964 52.482 54.1831 52.2191C54.0758 51.9502 53.9238 51.7172 53.727 51.52C53.5302 51.317 53.2977 51.1616 53.0294 51.054C52.7611 50.9465 52.469 50.8927 52.153 50.8927C51.8369 50.8927 51.5448 50.9465 51.2765 51.054C51.0142 51.1616 50.7816 51.317 50.5789 51.52C50.3822 51.7172 50.2271 51.9502 50.1139 52.2191C50.0065 52.482 49.9529 52.7747 49.9529 53.0973C49.9529 53.414 50.0065 53.7068 50.1139 53.9756C50.2271 54.2444 50.3822 54.4804 50.5789 54.6836C50.7757 54.8808 51.0082 55.0331 51.2765 55.1406C51.5448 55.2482 51.8369 55.302 52.153 55.302ZM56.757 56.234V49.9607H59.3326C59.8871 49.9607 60.3611 50.0504 60.7547 50.2295C61.1541 50.4088 61.4612 50.6657 61.6758 51.0003C61.8905 51.3349 61.9978 51.7321 61.9978 52.1922C61.9978 52.6522 61.8905 53.0496 61.6758 53.3842C61.4612 53.7128 61.1541 53.9667 60.7547 54.1458C60.3611 54.3192 59.8871 54.4058 59.3326 54.4058H57.4009L57.9196 53.877V56.234H56.757ZM60.8531 56.234L59.2701 53.9577H60.5132L62.1051 56.234H60.8531ZM57.9196 54.0025L57.4009 53.4468H59.279C59.7917 53.4468 60.1763 53.3363 60.4327 53.1152C60.695 52.8942 60.8262 52.5866 60.8262 52.1922C60.8262 51.7919 60.695 51.4842 60.4327 51.2691C60.1763 51.054 59.7917 50.9465 59.279 50.9465H57.4009L57.9196 50.3729V54.0025ZM63.2986 56.234V49.9607H64.2555L66.9921 54.5402H66.4913L69.1832 49.9607H70.1402L70.1492 56.234H69.0491L69.0402 51.6904H69.2727L66.9832 55.517H66.4645L64.1392 51.6904H64.4076V56.234H63.2986Z" fill="#E7BE89"/>
</g>
<path d="M20.1509 62.1504V60.2325H21.2874V60.4447H20.3921V61.0437H20.6763C20.8675 61.0437 21.0158 61.0679 21.1212 61.1162C21.2267 61.1628 21.2999 61.2273 21.341 61.3096C21.3821 61.3902 21.4026 61.4833 21.4026 61.589C21.4026 61.7054 21.3795 61.8056 21.333 61.8898C21.2883 61.9739 21.215 62.0385 21.1132 62.0832C21.0113 62.128 20.8773 62.1504 20.7111 62.1504H20.1509ZM20.6869 61.9435C20.8585 61.9435 20.9791 61.9148 21.0489 61.8576C21.1185 61.7984 21.1534 61.7089 21.1534 61.589C21.1534 61.5066 21.1364 61.4413 21.1025 61.3929C21.0703 61.3428 21.0167 61.307 20.9417 61.2855C20.8684 61.2639 20.7701 61.2532 20.6467 61.2532H20.3921V61.9435H20.6869ZM23.0008 62.1504L22.7703 61.5567H22.0117L21.7839 62.1504H21.5399L22.2878 60.2245H22.505L23.2501 62.1504H23.0008ZM22.4834 60.7616C22.4782 60.7474 22.4692 60.7214 22.4566 60.6838C22.4441 60.6462 22.4317 60.6077 22.4192 60.5684C22.4084 60.5271 22.3995 60.4958 22.3924 60.4744C22.3834 60.5102 22.3736 60.5468 22.3628 60.5844C22.3539 60.6202 22.3442 60.6534 22.3334 60.6838C22.3244 60.7142 22.3164 60.7402 22.3092 60.7616L22.0922 61.3419H22.698L22.4834 60.7616ZM24.332 60.4179C24.2302 60.4179 24.1382 60.4358 24.056 60.4716C23.9738 60.5057 23.9041 60.5567 23.847 60.6247C23.7898 60.6909 23.7459 60.7724 23.7156 60.8691C23.6852 60.964 23.67 61.0714 23.67 61.1915C23.67 61.349 23.6942 61.486 23.7424 61.6024C23.7924 61.7188 23.8657 61.8083 23.9622 61.871C24.0605 61.9337 24.1829 61.965 24.3294 61.965C24.4134 61.965 24.4929 61.9579 24.568 61.9435C24.643 61.9292 24.7162 61.9113 24.7877 61.8898V62.0993C24.7162 62.1261 24.6421 62.1459 24.5653 62.1584C24.4902 62.1709 24.4 62.1772 24.2946 62.1772C24.0998 62.1772 23.9372 62.1369 23.8068 62.0564C23.6763 61.9758 23.578 61.8611 23.5119 61.7125C23.4475 61.5638 23.4154 61.3893 23.4154 61.1887C23.4154 61.0437 23.4351 60.9112 23.4743 60.7913C23.5155 60.6713 23.5745 60.5674 23.6513 60.4796C23.7299 60.3919 23.8263 60.3248 23.9408 60.2782C24.0551 60.2299 24.1865 60.2057 24.3348 60.2057C24.4331 60.2057 24.5278 60.2155 24.6189 60.2353C24.71 60.2549 24.7914 60.2827 24.8628 60.3185L24.7663 60.5227C24.7073 60.4958 24.6412 60.4716 24.568 60.4501C24.4965 60.4287 24.4178 60.4179 24.332 60.4179ZM25.9733 60.4179C25.8715 60.4179 25.7794 60.4358 25.6972 60.4716C25.615 60.5057 25.5453 60.5567 25.4881 60.6247C25.431 60.6909 25.3872 60.7724 25.3569 60.8691C25.3264 60.964 25.3113 61.0714 25.3113 61.1915C25.3113 61.349 25.3353 61.486 25.3837 61.6024C25.4336 61.7188 25.5069 61.8083 25.6034 61.871C25.7016 61.9337 25.8241 61.965 25.9706 61.965C26.0547 61.965 26.1342 61.9579 26.2092 61.9435C26.2842 61.9292 26.3575 61.9113 26.429 61.8898V62.0993C26.3575 62.1261 26.2833 62.1459 26.2065 62.1584C26.1314 62.1709 26.0413 62.1772 25.9358 62.1772C25.741 62.1772 25.5784 62.1369 25.4479 62.0564C25.3175 61.9758 25.2192 61.8611 25.1531 61.7125C25.0887 61.5638 25.0566 61.3893 25.0566 61.1887C25.0566 61.0437 25.0762 60.9112 25.1155 60.7913C25.1566 60.6713 25.2156 60.5674 25.2925 60.4796C25.3711 60.3919 25.4676 60.3248 25.5819 60.2782C25.6964 60.2299 25.8276 60.2057 25.976 60.2057C26.0742 60.2057 26.169 60.2155 26.2601 60.2353C26.3512 60.2549 26.4325 60.2827 26.504 60.3185L26.4076 60.5227C26.3486 60.4958 26.2825 60.4716 26.2092 60.4501C26.1377 60.4287 26.0591 60.4179 25.9733 60.4179ZM27.9161 62.1504H26.8467V60.2325H27.9161V60.4447H27.088V61.0437H27.8679V61.2532H27.088V61.9381H27.9161V62.1504ZM29.6415 59.6362C29.6342 59.7258 29.6119 59.8011 29.5745 59.8619C29.5387 59.9228 29.4851 59.9684 29.4136 59.9989C29.3422 60.0293 29.2492 60.0445 29.1348 60.0445C29.0187 60.0445 28.9249 60.0293 28.8534 59.9989C28.7836 59.9684 28.7328 59.9236 28.7006 59.8646C28.6684 59.8037 28.6488 59.7276 28.6416 59.6362H28.8614C28.8704 59.733 28.8953 59.7983 28.9364 59.8324C28.9794 59.8646 29.0473 59.8807 29.1402 59.8807C29.2223 59.8807 29.2867 59.8637 29.3332 59.8296C29.3815 59.7938 29.41 59.7294 29.4189 59.6362H29.6415ZM28.3388 60.2325H28.564V61.2855C28.564 61.3303 28.563 61.3795 28.5612 61.4332C28.5612 61.4851 28.5603 61.537 28.5586 61.589C28.5567 61.6409 28.5541 61.6875 28.5506 61.7287C28.5487 61.768 28.5469 61.7984 28.5452 61.8199H28.5558L29.6093 60.2325H29.8773V62.1504H29.6521V61.1082C29.6521 61.0598 29.653 61.0078 29.6549 60.9524C29.6566 60.8951 29.6584 60.8405 29.6601 60.7885C29.6638 60.7348 29.6664 60.6874 29.6683 60.6462C29.67 60.605 29.6718 60.5746 29.6736 60.5549H29.6629L28.6068 62.1504H28.3388V60.2325ZM31.857 62.1504H31.6157V61.2559H30.6348V62.1504H30.3934V60.2325H30.6348V61.0437H31.6157V60.2325H31.857V62.1504ZM32.3802 62.1504V60.2325H32.6214V61.0437H32.9164C33.0951 61.0437 33.2353 61.0679 33.3371 61.1162C33.4407 61.1646 33.5141 61.2299 33.5569 61.3124C33.6016 61.3947 33.6239 61.4869 33.6239 61.589C33.6239 61.7018 33.5998 61.8003 33.5515 61.8844C33.5051 61.9686 33.4318 62.034 33.3318 62.0805C33.2317 62.1271 33.1031 62.1504 32.9458 62.1504H32.3802ZM32.9244 61.9462C33.078 61.9462 33.1915 61.9167 33.2648 61.8576C33.338 61.7984 33.3747 61.7089 33.3747 61.589C33.3747 61.5066 33.3568 61.4413 33.321 61.3929C33.2871 61.3445 33.2343 61.3096 33.1629 61.2881C33.0914 61.2667 33.0003 61.2559 32.8894 61.2559H32.6214V61.9462H32.9244ZM33.9187 62.1504V60.2325H34.16V62.1504H33.9187Z" fill="#FFF1DE"/>
<path d="M38.0283 60.6624C37.9264 60.6624 37.8343 60.6803 37.7522 60.7161C37.67 60.7501 37.6003 60.8012 37.5431 60.8693C37.4859 60.9355 37.4421 61.017 37.4118 61.1136C37.3813 61.2085 37.3662 61.316 37.3662 61.4359C37.3662 61.5935 37.3903 61.7305 37.4386 61.847C37.4886 61.9633 37.5618 62.0529 37.6584 62.1155C37.7567 62.1782 37.879 62.2095 38.0255 62.2095C38.1096 62.2095 38.1891 62.2023 38.2641 62.188C38.3391 62.1737 38.4124 62.1558 38.4839 62.1342V62.3438C38.4124 62.3707 38.3383 62.3903 38.2615 62.4028C38.1864 62.4155 38.0962 62.4217 37.9907 62.4217C37.796 62.4217 37.6333 62.3814 37.5028 62.3008C37.3724 62.2202 37.2741 62.1057 37.208 61.957C37.1438 61.8084 37.1116 61.6338 37.1116 61.4333C37.1116 61.2882 37.1312 61.1557 37.1706 61.0357C37.2116 60.9157 37.2706 60.8119 37.3474 60.7242C37.426 60.6365 37.5226 60.5693 37.6369 60.5227C37.7513 60.4744 37.8826 60.4502 38.0309 60.4502C38.1292 60.4502 38.2239 60.4601 38.3151 60.4798C38.4061 60.4994 38.4875 60.5272 38.5589 60.563L38.4625 60.7671C38.4035 60.7402 38.3374 60.7161 38.2641 60.6947C38.1926 60.6731 38.1141 60.6624 38.0283 60.6624ZM40.1024 62.3948L39.8719 61.8013H39.1133L38.8855 62.3948H38.6416L39.3895 60.469H39.6066L40.3518 62.3948H40.1024ZM39.5851 61.0062C39.5797 60.9918 39.5708 60.9659 39.5583 60.9283C39.5458 60.8907 39.5332 60.8522 39.5208 60.8128C39.5101 60.7716 39.5012 60.7402 39.494 60.7188C39.485 60.7546 39.4752 60.7913 39.4645 60.829C39.4556 60.8648 39.4457 60.8978 39.435 60.9283C39.426 60.9588 39.418 60.9847 39.4109 61.0062L39.1937 61.5864H39.7996L39.5851 61.0062ZM41.415 61.8496C41.3578 61.9768 41.2997 62.0833 41.2407 62.1693C41.1836 62.2534 41.1157 62.317 41.037 62.3599C40.9584 62.4011 40.8583 62.4217 40.7369 62.4217C40.6868 62.4217 40.6394 62.4181 40.5947 62.411C40.5519 62.4037 40.5126 62.3939 40.4769 62.3814V62.1424C40.5126 62.1585 40.551 62.1719 40.5921 62.1827C40.6332 62.1916 40.676 62.1961 40.7207 62.1961C40.7868 62.1961 40.8432 62.1872 40.8895 62.1693C40.9379 62.1495 40.9798 62.1182 41.0155 62.0752C41.0531 62.0322 41.0879 61.9749 41.1201 61.9033L40.383 60.4771H40.6483L41.1817 61.5327C41.1888 61.5452 41.1961 61.5603 41.2032 61.5783C41.2104 61.5944 41.2175 61.6114 41.2246 61.6293C41.2335 61.6472 41.2407 61.6642 41.2461 61.6804H41.2568C41.2622 61.6678 41.2675 61.6535 41.2729 61.6374C41.28 61.6195 41.2863 61.6025 41.2916 61.5864C41.2988 61.5685 41.305 61.5532 41.3104 61.5407L41.7714 60.4771H42.026L41.415 61.8496ZM43.7497 62.3948H43.5083V61.5004H42.5274V62.3948H42.2862V60.4771H42.5274V61.2882H43.5083V60.4771H43.7497V62.3948ZM44.2729 62.3948V60.4771H44.5141V61.2882H44.809C44.9877 61.2882 45.1279 61.3124 45.2298 61.3607C45.3335 61.4091 45.4067 61.4745 45.4496 61.5568C45.4943 61.6392 45.5166 61.7314 45.5166 61.8335C45.5166 61.9462 45.4925 62.0447 45.4442 62.129C45.3977 62.2131 45.3245 62.2784 45.2244 62.325C45.1243 62.3715 44.9957 62.3948 44.8384 62.3948H44.2729ZM44.817 62.1907C44.9707 62.1907 45.0841 62.1611 45.1574 62.1021C45.2307 62.043 45.2673 61.9535 45.2673 61.8335C45.2673 61.7511 45.2494 61.6857 45.2137 61.6374C45.1798 61.589 45.1271 61.5541 45.0556 61.5327C44.9841 61.5111 44.8929 61.5004 44.7822 61.5004H44.5141V62.1907H44.817ZM45.8115 62.3948V60.4771H46.0527V62.3948H45.8115Z" fill="#FFF1DE"/>
<path d="M49.7243 60.6624C49.6224 60.6624 49.5304 60.6803 49.4481 60.7161C49.366 60.7501 49.2963 60.8012 49.2391 60.8693C49.1819 60.9355 49.1382 61.017 49.1078 61.1136C49.0774 61.2085 49.0622 61.316 49.0622 61.4359C49.0622 61.5935 49.0863 61.7305 49.1346 61.847C49.1846 61.9633 49.2579 62.0529 49.3543 62.1155C49.4526 62.1782 49.5751 62.2095 49.7216 62.2095C49.8056 62.2095 49.8851 62.2023 49.9602 62.188C50.0352 62.1737 50.1085 62.1558 50.18 62.1342V62.3438C50.1085 62.3707 50.0343 62.3903 49.9575 62.4028C49.8824 62.4155 49.7922 62.4217 49.6867 62.4217C49.492 62.4217 49.3294 62.3814 49.1989 62.3008C49.0684 62.2202 48.9702 62.1057 48.9041 61.957C48.8397 61.8084 48.8076 61.6338 48.8076 61.4333C48.8076 61.2882 48.8272 61.1557 48.8665 61.0357C48.9076 60.9157 48.9666 60.8119 49.0435 60.7242C49.122 60.6365 49.2186 60.5693 49.3329 60.5227C49.4473 60.4744 49.5786 60.4502 49.7269 60.4502C49.8252 60.4502 49.9199 60.4601 50.0111 60.4798C50.1022 60.4994 50.1835 60.5272 50.255 60.563L50.1585 60.7671C50.0995 60.7402 50.0335 60.7161 49.9602 60.6947C49.8887 60.6731 49.8101 60.6624 49.7243 60.6624ZM50.5977 62.3948V60.4771H52.0343V62.3948H51.7958V60.6893H50.8389V62.3948H50.5977ZM53.759 62.3948L53.5285 61.8013H52.77L52.5421 62.3948H52.2982L53.0461 60.469H53.2631L54.0083 62.3948H53.759ZM53.2417 61.0062C53.2363 60.9918 53.2274 60.9659 53.2149 60.9283C53.2024 60.8907 53.1899 60.8522 53.1773 60.8128C53.1667 60.7716 53.1577 60.7402 53.1505 60.7188C53.1416 60.7546 53.1318 60.7913 53.1211 60.829C53.1121 60.8648 53.1023 60.8978 53.0916 60.9283C53.0827 60.9588 53.0746 60.9847 53.0675 61.0062L52.8504 61.5864H53.4561L53.2417 61.0062Z" fill="#FFF1DE"/>
<path d="M56.8235 62.2725V60.3547H57.96V60.5669H57.0647V61.1659H57.3489C57.5401 61.1659 57.6884 61.1901 57.7938 61.2384C57.8993 61.2849 57.9725 61.3494 58.0136 61.4318C58.0547 61.5124 58.0752 61.6055 58.0752 61.7111C58.0752 61.8275 58.052 61.9278 58.0056 62.0119C57.9609 62.096 57.8876 62.1605 57.7858 62.2053C57.6839 62.2501 57.5499 62.2725 57.3837 62.2725H56.8235ZM57.3595 62.0656C57.5311 62.0656 57.6517 62.037 57.7214 61.9797C57.7911 61.9207 57.826 61.8311 57.826 61.7111C57.826 61.6288 57.809 61.5633 57.775 61.515C57.7428 61.4649 57.6892 61.4291 57.6142 61.4076C57.541 61.3861 57.4427 61.3753 57.3193 61.3753H57.0647V62.0656H57.3595ZM59.6733 62.2725L59.4429 61.6788H58.6844L58.4565 62.2725H58.2125L58.9604 60.3467H59.1775L59.9227 62.2725H59.6733ZM59.156 60.8838C59.1507 60.8695 59.1417 60.8436 59.1292 60.8059C59.1168 60.7684 59.1043 60.7298 59.0918 60.6904C59.081 60.6492 59.0721 60.6179 59.065 60.5964C59.056 60.6323 59.0462 60.669 59.0354 60.7065C59.0265 60.7423 59.0166 60.7755 59.006 60.8059C58.9971 60.8363 58.9889 60.8624 58.9818 60.8838L58.7648 61.4639H59.3705L59.156 60.8838ZM61.6479 62.2725H61.4067V61.3781H60.4256V62.2725H60.1844V60.3547H60.4256V61.1659H61.4067V60.3547H61.6479V62.2725ZM62.1739 60.3547H62.399V61.4076C62.399 61.4524 62.3982 61.5016 62.3964 61.5553C62.3964 61.6072 62.3954 61.6592 62.3937 61.7111C62.3919 61.7631 62.3892 61.8095 62.3856 61.8508C62.3839 61.8901 62.382 61.9207 62.3803 61.9421H62.391L63.4444 60.3547H63.7125V62.2725H63.4873V61.2304C63.4873 61.1819 63.4882 61.1301 63.4899 61.0745C63.4917 61.0172 63.4936 60.9626 63.4953 60.9107C63.4988 60.857 63.5016 60.8095 63.5033 60.7684C63.5051 60.7272 63.507 60.6968 63.5087 60.677H63.498L62.4419 62.2725H62.1739V60.3547Z" fill="#FFF1DE"/>
<path d="M35.7907 61.7081C35.9589 61.7081 36.0953 61.5714 36.0953 61.4029C36.0953 61.2343 35.9589 61.0977 35.7907 61.0977C35.6225 61.0977 35.4861 61.2343 35.4861 61.4029C35.4861 61.5714 35.6225 61.7081 35.7907 61.7081Z" fill="url(#paint19_linear_102_2)"/>
<path d="M47.3649 61.7081C47.5331 61.7081 47.6695 61.5714 47.6695 61.4029C47.6695 61.2343 47.5331 61.0977 47.3649 61.0977C47.1967 61.0977 47.0603 61.2343 47.0603 61.4029C47.0603 61.5714 47.1967 61.7081 47.3649 61.7081Z" fill="#D9BA6E"/>
<path d="M55.4059 61.7081C55.5741 61.7081 55.7105 61.5714 55.7105 61.4029C55.7105 61.2343 55.5741 61.0977 55.4059 61.0977C55.2377 61.0977 55.1013 61.2343 55.1013 61.4029C55.1013 61.5714 55.2377 61.7081 55.4059 61.7081Z" fill="url(#paint20_linear_102_2)"/>
<path d="M28.8419 25.6262C23.6949 27.2284 12.3609 34.8012 6.86719 36.6362C10.377 36.7819 12.9844 37.8595 18.4649 33.7308C23.9358 29.6094 28.8419 28.0728 33.2673 28.0728C43.0339 28.0728 42.7287 29.2961 54.1738 34.3424C63.3299 38.3795 74.47 39.8403 76.1486 40.2989C81.337 42.8986 86.8308 43.4156 88.9671 42.7529C86.3729 42.651 80.6656 42.0801 78.5902 40.6121C76.5148 39.144 76.1427 39.195 75.0804 39.0828C72.1809 38.7771 66.8399 36.6915 64.3982 35.8717C60.2779 34.4881 52.0883 30.5167 48.2224 28.3787C53.8687 30.5195 55.2356 31.1706 63.9403 34.9541C70.9601 38.0052 79.048 38.5731 82.4053 38.1654C64.7034 37.095 59.3623 30.2137 52.0374 26.8495C44.7126 23.4853 35.2512 23.631 28.8419 25.6262Z" fill="url(#paint21_linear_102_2)"/>
<path d="M19.6857 35.1066C13.8257 39.266 4.12025 38.7767 0 38.012C2.07538 39.7247 7.37578 40.2548 9.76654 40.3059C12.2591 40.3568 18.1929 39.5194 22.5852 36.6358C27.0105 33.7304 31.1309 32.8056 35.2511 32.507C42.4235 32.9586 44.3504 35.151 49.9967 37.139C54.5138 38.7293 60.8883 39.3883 63.2732 39.8915C64.0929 40.0644 72.7912 43.2113 77.3693 42.2937C71.4179 42.5923 68.1717 39.4455 63.9403 38.7767C59.0571 38.0048 54.9368 37.139 53.1055 35.8712C47.9171 32.9586 40.4396 29.7473 36.6245 29.6016C33.3646 29.4771 27.0105 29.9074 19.6857 35.1066Z" fill="url(#paint22_linear_102_2)"/>
<path d="M20.9065 39.6945C15.4128 42.8753 4.57806 43.0587 0 42.7529C2.84857 43.6194 9.88862 45.1384 15.2602 44.282C21.9748 43.2117 26.5528 40.1533 27.1632 39.8475C27.7736 39.5416 32.8589 37.0908 37.8454 37.8595C41.813 38.4712 44.7 41.1648 51.2743 41.9882C53.7159 42.2941 61.2282 42.168 62.1091 42.2941C64.0219 42.568 65.8189 43.5046 67.158 44.1489C67.5494 44.3371 67.9806 44.4208 68.4145 44.4075L72.486 44.282C70.3496 43.8161 68.0606 43.6631 67.1449 43.2117C65.3137 41.8281 62.3671 40.5219 57.8363 40.612C50.5113 40.7577 43.7381 37.1192 38.9135 35.4128C33.725 33.5779 27.7736 35.7186 20.9065 39.6945Z" fill="url(#paint23_linear_102_2)"/>
<path d="M30.9783 40.7648C25.7287 43.4561 19.9401 45.1483 17.7019 45.6581C20.5097 45.6581 22.28 45.1922 29.1471 43.0513C31.1308 42.2868 33.4199 42.3098 34.9459 42.4396C38.761 42.7642 41.423 45.3288 44.4073 46.1168C46.6963 46.7214 48.9853 47.18 52.3426 46.4155L62.567 44.129C55.8524 44.4959 50.5113 44.5805 46.8489 43.2042C40.5922 40.4517 36.2278 38.0734 30.9783 40.7648Z" fill="url(#paint24_linear_102_2)"/>
</g>
<g filter="url(#filter1_d_102_2)">
<path d="M101.82 30V9H110.46C112.32 9 113.91 9.3 115.23 9.9C116.57 10.5 117.6 11.36 118.32 12.48C119.04 13.6 119.4 14.93 119.4 16.47C119.4 18.01 119.04 19.34 118.32 20.46C117.6 21.58 116.57 22.44 115.23 23.04C113.91 23.64 112.32 23.94 110.46 23.94H103.98L105.72 22.11V30H101.82ZM105.72 22.53L103.98 20.64H110.28C112 20.64 113.29 20.28 114.15 19.56C115.03 18.82 115.47 17.79 115.47 16.47C115.47 15.13 115.03 14.1 114.15 13.38C113.29 12.66 112 12.3 110.28 12.3H103.98L105.72 10.38V22.53ZM133.428 30.3C131.788 30.3 130.278 30.03 128.898 29.49C127.518 28.95 126.318 28.2 125.298 27.24C124.278 26.26 123.488 25.12 122.928 23.82C122.368 22.5 122.088 21.06 122.088 19.5C122.088 17.94 122.368 16.51 122.928 15.21C123.488 13.89 124.278 12.75 125.298 11.79C126.318 10.81 127.518 10.05 128.898 9.51C130.278 8.97 131.778 8.7 133.398 8.7C135.038 8.7 136.538 8.97 137.898 9.51C139.278 10.05 140.478 10.81 141.498 11.79C142.518 12.75 143.308 13.89 143.868 15.21C144.428 16.51 144.708 17.94 144.708 19.5C144.708 21.06 144.428 22.5 143.868 23.82C143.308 25.14 142.518 26.28 141.498 27.24C140.478 28.2 139.278 28.95 137.898 29.49C136.538 30.03 135.048 30.3 133.428 30.3ZM133.398 26.88C134.458 26.88 135.438 26.7 136.338 26.34C137.238 25.98 138.018 25.47 138.678 24.81C139.338 24.13 139.848 23.35 140.208 22.47C140.588 21.57 140.778 20.58 140.778 19.5C140.778 18.42 140.588 17.44 140.208 16.56C139.848 15.66 139.338 14.88 138.678 14.22C138.018 13.54 137.238 13.02 136.338 12.66C135.438 12.3 134.458 12.12 133.398 12.12C132.338 12.12 131.358 12.3 130.458 12.66C129.578 13.02 128.798 13.54 128.118 14.22C127.458 14.88 126.938 15.66 126.558 16.56C126.198 17.44 126.018 18.42 126.018 19.5C126.018 20.56 126.198 21.54 126.558 22.44C126.938 23.34 127.458 24.13 128.118 24.81C128.778 25.47 129.558 25.98 130.458 26.34C131.358 26.7 132.338 26.88 133.398 26.88ZM158.681 30.3C157.041 30.3 155.531 30.03 154.151 29.49C152.771 28.95 151.571 28.2 150.551 27.24C149.531 26.26 148.741 25.12 148.181 23.82C147.621 22.5 147.341 21.06 147.341 19.5C147.341 17.94 147.621 16.51 148.181 15.21C148.741 13.89 149.531 12.75 150.551 11.79C151.571 10.81 152.771 10.05 154.151 9.51C155.531 8.97 157.031 8.7 158.651 8.7C160.291 8.7 161.791 8.97 163.151 9.51C164.531 10.05 165.731 10.81 166.751 11.79C167.771 12.75 168.561 13.89 169.121 15.21C169.681 16.51 169.961 17.94 169.961 19.5C169.961 21.06 169.681 22.5 169.121 23.82C168.561 25.14 167.771 26.28 166.751 27.24C165.731 28.2 164.531 28.95 163.151 29.49C161.791 30.03 160.301 30.3 158.681 30.3ZM158.651 26.88C159.711 26.88 160.691 26.7 161.591 26.34C162.491 25.98 163.271 25.47 163.931 24.81C164.591 24.13 165.101 23.35 165.461 22.47C165.841 21.57 166.031 20.58 166.031 19.5C166.031 18.42 165.841 17.44 165.461 16.56C165.101 15.66 164.591 14.88 163.931 14.22C163.271 13.54 162.491 13.02 161.591 12.66C160.691 12.3 159.711 12.12 158.651 12.12C157.591 12.12 156.611 12.3 155.711 12.66C154.831 13.02 154.051 13.54 153.371 14.22C152.711 14.88 152.191 15.66 151.811 16.56C151.451 17.44 151.271 18.42 151.271 19.5C151.271 20.56 151.451 21.54 151.811 22.44C152.191 23.34 152.711 24.13 153.371 24.81C154.031 25.47 154.811 25.98 155.711 26.34C156.611 26.7 157.591 26.88 158.651 26.88ZM174.095 30V9H177.995V26.7H188.975V30H174.095ZM105.39 50.66H115.86V53.96H105.39V50.66ZM105.72 62H101.82V41H117.15V44.27H105.72V62ZM130.527 62.3C128.887 62.3 127.377 62.03 125.997 61.49C124.617 60.95 123.417 60.2 122.397 59.24C121.377 58.26 120.587 57.12 120.027 55.82C119.467 54.5 119.187 53.06 119.187 51.5C119.187 49.94 119.467 48.51 120.027 47.21C120.587 45.89 121.377 44.75 122.397 43.79C123.417 42.81 124.617 42.05 125.997 41.51C127.377 40.97 128.877 40.7 130.497 40.7C132.137 40.7 133.637 40.97 134.997 41.51C136.377 42.05 137.577 42.81 138.597 43.79C139.617 44.75 140.407 45.89 140.967 47.21C141.527 48.51 141.807 49.94 141.807 51.5C141.807 53.06 141.527 54.5 140.967 55.82C140.407 57.14 139.617 58.28 138.597 59.24C137.577 60.2 136.377 60.95 134.997 61.49C133.637 62.03 132.147 62.3 130.527 62.3ZM130.497 58.88C131.557 58.88 132.537 58.7 133.437 58.34C134.337 57.98 135.117 57.47 135.777 56.81C136.437 56.13 136.947 55.35 137.307 54.47C137.687 53.57 137.877 52.58 137.877 51.5C137.877 50.42 137.687 49.44 137.307 48.56C136.947 47.66 136.437 46.88 135.777 46.22C135.117 45.54 134.337 45.02 133.437 44.66C132.537 44.3 131.557 44.12 130.497 44.12C129.437 44.12 128.457 44.3 127.557 44.66C126.677 45.02 125.897 45.54 125.217 46.22C124.557 46.88 124.037 47.66 123.657 48.56C123.297 49.44 123.117 50.42 123.117 51.5C123.117 52.56 123.297 53.54 123.657 54.44C124.037 55.34 124.557 56.13 125.217 56.81C125.877 57.47 126.657 57.98 127.557 58.34C128.457 58.7 129.437 58.88 130.497 58.88ZM145.941 62V41H154.581C156.441 41 158.031 41.3 159.351 41.9C160.691 42.5 161.721 43.36 162.441 44.48C163.161 45.6 163.521 46.93 163.521 48.47C163.521 50.01 163.161 51.34 162.441 52.46C161.721 53.56 160.691 54.41 159.351 55.01C158.031 55.59 156.441 55.88 154.581 55.88H148.101L149.841 54.11V62H145.941ZM159.681 62L154.371 54.38H158.541L163.881 62H159.681ZM149.841 54.53L148.101 52.67H154.401C156.121 52.67 157.411 52.3 158.271 51.56C159.151 50.82 159.591 49.79 159.591 48.47C159.591 47.13 159.151 46.1 158.271 45.38C157.411 44.66 156.121 44.3 154.401 44.3H148.101L149.841 42.38V54.53ZM167.884 62V41H171.094L180.274 56.33H178.594L187.624 41H190.834L190.864 62H187.174L187.144 46.79H187.924L180.244 59.6H178.504L170.704 46.79H171.604V62H167.884Z" fill="url(#paint25_linear_102_2)"/>
</g>
<path d="M125 35H166" stroke="#EBC996" stroke-linecap="round"/>
<defs>
<filter id="filter0_d_102_2" x="4.19375" y="46.5249" width="80.4557" height="30.9916" filterUnits="userSpaceOnUse" color-interpolation-filters="sRGB">
<feFlood flood-opacity="0" result="BackgroundImageFix"/>
<feColorMatrix in="SourceAlpha" type="matrix" values="0 0 0 0 0 0 0 0 0 0 0 0 0 0 0 0 0 0 127 0" result="hardAlpha"/>
<feOffset dx="2.23081" dy="8.92325"/>
<feGaussianBlur stdDeviation="6.13474"/>
<feComposite in2="hardAlpha" operator="out"/>
<feColorMatrix type="matrix" values="0 0 0 0 0 0 0 0 0 0.203172 0 0 0 0 0.4125 0 0 0 0.88 0"/>
<feBlend mode="normal" in2="BackgroundImageFix" result="effect1_dropShadow_102_2"/>
<feBlend mode="normal" in="SourceGraphic" in2="effect1_dropShadow_102_2" result="shape"/>
</filter>
<filter id="filter1_d_102_2" x="100.792" y="8.35761" width="91.5567" height="56.1119" filterUnits="userSpaceOnUse" color-interpolation-filters="sRGB">
<feFlood flood-opacity="0" result="BackgroundImageFix"/>
<feColorMatrix in="SourceAlpha" type="matrix" values="0 0 0 0 0 0 0 0 0 0 0 0 0 0 0 0 0 0 127 0" result="hardAlpha"/>
<feOffset dx="0.228389" dy="0.913555"/>
<feGaussianBlur stdDeviation="0.628069"/>
<feComposite in2="hardAlpha" operator="out"/>
<feColorMatrix type="matrix" values="0 0 0 0 0.164706 0 0 0 0 0.294118 0 0 0 0 0.427451 0 0 0 0.33 0"/>
<feBlend mode="normal" in2="BackgroundImageFix" result="effect1_dropShadow_102_2"/>
<feBlend mode="normal" in="SourceGraphic" in2="effect1_dropShadow_102_2" result="shape"/>
</filter>
<linearGradient id="paint0_linear_102_2" x1="24.6826" y1="0" x2="24.6826" y2="19.4711" gradientUnits="userSpaceOnUse">
<stop stop-color="#A88455"/>
<stop offset="1" stop-color="#FEDDA9"/>
</linearGradient>
<linearGradient id="paint1_linear_102_2" x1="55.9296" y1="3.15771" x2="55.9296" y2="22.6289" gradientUnits="userSpaceOnUse">
<stop stop-color="#A88455"/>
<stop offset="1" stop-color="#FEDDA9"/>
</linearGradient>
<linearGradient id="paint2_linear_102_2" x1="9.7156" y1="7.36768" x2="9.7156" y2="22.6288" gradientUnits="userSpaceOnUse">
<stop stop-color="#A88455"/>
<stop offset="1" stop-color="#FEDDA9"/>
</linearGradient>
<linearGradient id="paint3_linear_102_2" x1="15.2297" y1="61.0444" x2="15.2297" y2="72.885" gradientUnits="userSpaceOnUse">
<stop stop-color="#A88455"/>
<stop offset="1" stop-color="#FEDDA9"/>
</linearGradient>
<linearGradient id="paint4_linear_102_2" x1="22.1882" y1="57.8872" x2="22.1882" y2="69.7278" gradientUnits="userSpaceOnUse">
<stop stop-color="#A88455"/>
<stop offset="1" stop-color="#FEDDA9"/>
</linearGradient>
<linearGradient id="paint5_linear_102_2" x1="69.19" y1="69.728" x2="69.19" y2="50.2568" gradientUnits="userSpaceOnUse">
<stop stop-color="#0FADDF"/>
<stop offset="1" stop-color="#0485C9"/>
</linearGradient>
<linearGradient id="paint6_linear_102_2" x1="5.51416" y1="32.3641" x2="7.6148" y2="32.3641" gradientUnits="userSpaceOnUse">
<stop stop-color="#0FADDF"/>
<stop offset="1" stop-color="#0485C9"/>
</linearGradient>
<linearGradient id="paint7_linear_102_2" x1="72.9973" y1="29.7331" x2="75.098" y2="29.7331" gradientUnits="userSpaceOnUse">
<stop stop-color="#0FADDF"/>
<stop offset="1" stop-color="#0485C9"/>
</linearGradient>
<linearGradient id="paint8_linear_102_2" x1="76.1484" y1="43.4153" x2="78.249" y2="43.4153" gradientUnits="userSpaceOnUse">
<stop stop-color="#0FADDF"/>
<stop offset="1" stop-color="#0485C9"/>
</linearGradient>
<linearGradient id="paint9_linear_102_2" x1="76.1484" y1="67.7544" x2="78.249" y2="67.7544" gradientUnits="userSpaceOnUse">
<stop stop-color="#0FADDF"/>
<stop offset="1" stop-color="#0485C9"/>
</linearGradient>
<linearGradient id="paint10_linear_102_2" x1="8.66528" y1="29.3384" x2="10.7659" y2="29.3384" gradientUnits="userSpaceOnUse">
<stop stop-color="#0FADDF"/>
<stop offset="1" stop-color="#0485C9"/>
</linearGradient>
<linearGradient id="paint11_linear_102_2" x1="30.5908" y1="3.15771" x2="30.5908" y2="5.26271" gradientUnits="userSpaceOnUse">
<stop stop-color="#0FADDF"/>
<stop offset="1" stop-color="#0485C9"/>
</linearGradient>
<linearGradient id="paint12_linear_102_2" x1="29.8385" y1="70.8193" x2="29.8385" y2="72.9243" gradientUnits="userSpaceOnUse">
<stop stop-color="#0FADDF"/>
<stop offset="1" stop-color="#0485C9"/>
</linearGradient>
<linearGradient id="paint13_linear_102_2" x1="8.66528" y1="37.4951" x2="10.7659" y2="37.4951" gradientUnits="userSpaceOnUse">
<stop stop-color="#0FADDF"/>
<stop offset="1" stop-color="#0485C9"/>
</linearGradient>
<linearGradient id="paint14_linear_102_2" x1="48.7088" y1="70.7803" x2="48.7088" y2="72.8852" gradientUnits="userSpaceOnUse">
<stop stop-color="#A88455"/>
<stop offset="1" stop-color="#FEDDA9"/>
</linearGradient>
<linearGradient id="paint15_linear_102_2" x1="69.5839" y1="0" x2="69.5839" y2="30.5224" gradientUnits="userSpaceOnUse">
<stop stop-color="#A88455"/>
<stop offset="1" stop-color="#FEDDA9"/>
</linearGradient>
<linearGradient id="paint16_linear_102_2" x1="16.6088" y1="3.21387" x2="16.6088" y2="5.96858" gradientUnits="userSpaceOnUse">
<stop stop-color="#A88455"/>
<stop offset="1" stop-color="#FEDDA9"/>
</linearGradient>
<linearGradient id="paint17_linear_102_2" x1="26.7991" y1="2.44421" x2="62.4015" y2="37.7202" gradientUnits="userSpaceOnUse">
<stop stop-color="#1499C8"/>
<stop offset="0.0853791" stop-color="#1D8FBC"/>
<stop offset="0.218009" stop-color="#146890"/>
<stop offset="0.505117" stop-color="#135376"/>
<stop offset="0.655837" stop-color="#074869"/>
<stop offset="0.767522" stop-color="#013C64"/>
<stop offset="1" stop-color="#175992"/>
</linearGradient>
<linearGradient id="paint18_linear_102_2" x1="6.1706" y1="47.1468" x2="83.2072" y2="59.0417" gradientUnits="userSpaceOnUse">
<stop stop-color="#10587C"/>
<stop offset="0.395833" stop-color="#043B6F"/>
<stop offset="0.723958" stop-color="#003251"/>
<stop offset="1" stop-color="#004F88"/>
</linearGradient>
<linearGradient id="paint19_linear_102_2" x1="35.7907" y1="61.0977" x2="35.7907" y2="61.7081" gradientUnits="userSpaceOnUse">
<stop stop-color="#A88455"/>
<stop offset="1" stop-color="#FEDDA9"/>
</linearGradient>
<linearGradient id="paint20_linear_102_2" x1="55.4059" y1="61.0977" x2="55.4059" y2="61.7081" gradientUnits="userSpaceOnUse">
<stop stop-color="#A88455"/>
<stop offset="1" stop-color="#FEDDA9"/>
</linearGradient>
<linearGradient id="paint21_linear_102_2" x1="47.9171" y1="24.2075" x2="47.9171" y2="43.0148" gradientUnits="userSpaceOnUse">
<stop stop-color="#A88455"/>
<stop offset="1" stop-color="#FEDDA9"/>
</linearGradient>
<linearGradient id="paint22_linear_102_2" x1="38.6847" y1="29.5845" x2="38.6847" y2="42.4611" gradientUnits="userSpaceOnUse">
<stop stop-color="#A88455"/>
<stop offset="1" stop-color="#FEDDA9"/>
</linearGradient>
<linearGradient id="paint23_linear_102_2" x1="36.243" y1="34.7485" x2="36.243" y2="44.5353" gradientUnits="userSpaceOnUse">
<stop stop-color="#A88455"/>
<stop offset="1" stop-color="#FEDDA9"/>
</linearGradient>
<linearGradient id="paint24_linear_102_2" x1="40.1344" y1="39.5835" x2="40.1344" y2="46.8164" gradientUnits="userSpaceOnUse">
<stop stop-color="#A88455"/>
<stop offset="1" stop-color="#FEDDA9"/>
</linearGradient>
<linearGradient id="paint25_linear_102_2" x1="160" y1="3" x2="160" y2="67" gradientUnits="userSpaceOnUse">
<stop stop-color="#AF8B5C"/>
<stop offset="1" stop-color="#FCDBA7"/>
</linearGradient>
<clipPath id="clip0_102_2">
<rect width="89" height="73" fill="white"/>
</clipPath>
</defs>
</svg>
