<svg width="777" height="636" viewBox="0 0 777 636" fill="none" xmlns="http://www.w3.org/2000/svg">
<g clip-path="url(#clip0_15_511)">
<path fill-rule="evenodd" clip-rule="evenodd" d="M382.834 0H48.1409V169.639H66.4802V18.3394H382.834V0Z" fill="url(#paint0_linear_15_511)"/>
<path fill-rule="evenodd" clip-rule="evenodd" d="M320.939 27.509H655.632V197.148H637.292V45.8484H320.939V27.509Z" fill="url(#paint1_linear_15_511)"/>
<path fill-rule="evenodd" clip-rule="evenodd" d="M93.9892 64.1877H75.6499V197.148H93.9892V64.1877Z" fill="url(#paint2_linear_15_511)"/>
<path fill-rule="evenodd" clip-rule="evenodd" d="M48.1409 531.841V635H217.78V616.661H66.4802V531.841H48.1409Z" fill="url(#paint3_linear_15_511)"/>
<path fill-rule="evenodd" clip-rule="evenodd" d="M75.6499 504.332V607.491H311.769V589.152H93.9892V504.332H75.6499Z" fill="url(#paint4_linear_15_511)"/>
<path fill-rule="evenodd" clip-rule="evenodd" d="M552.473 607.491H655.632V437.852H637.292V589.152H552.473V607.491Z" fill="url(#paint5_linear_15_511)"/>
<path fill-rule="evenodd" clip-rule="evenodd" d="M48.1409 181.101V382.834H66.4802V371.78V181.101H48.1409Z" fill="url(#paint6_linear_15_511)"/>
<path fill-rule="evenodd" clip-rule="evenodd" d="M637.292 210.902V307.184H655.632V301.908V210.902H637.292Z" fill="url(#paint7_linear_15_511)"/>
<path fill-rule="evenodd" clip-rule="evenodd" d="M664.802 277.383V479.115H683.141V468.062V277.383H664.802Z" fill="url(#paint8_linear_15_511)"/>
<path fill-rule="evenodd" clip-rule="evenodd" d="M664.802 545.596V635H683.141V630.101V545.596H664.802Z" fill="url(#paint9_linear_15_511)"/>
<path fill-rule="evenodd" clip-rule="evenodd" d="M75.6499 210.903V300.307H93.9892V295.408V210.903H75.6499Z" fill="url(#paint10_linear_15_511)"/>
<path fill-rule="evenodd" clip-rule="evenodd" d="M311.769 27.509H222.365V45.8484H227.263H311.769V27.509Z" fill="url(#paint11_linear_15_511)"/>
<path fill-rule="evenodd" clip-rule="evenodd" d="M289 617H232V635.339H235.123H289V617Z" fill="url(#paint12_linear_15_511)"/>
<path fill-rule="evenodd" clip-rule="evenodd" d="M75.6499 314.061V339.278H93.9892V337.896V314.061H75.6499Z" fill="url(#paint13_linear_15_511)"/>
<path fill-rule="evenodd" clip-rule="evenodd" d="M545.596 616.661H304.892V635H318.081H545.596V616.661Z" fill="url(#paint14_linear_15_511)"/>
<path fill-rule="evenodd" clip-rule="evenodd" d="M531.841 18.3394H664.801V265.921H683.141V0H531.841V18.3394Z" fill="url(#paint15_linear_15_511)"/>
<path fill-rule="evenodd" clip-rule="evenodd" d="M92.7271 46.3394H214V28H75.9997V52H92.7271V46.3394Z" fill="url(#paint16_linear_15_511)"/>
<mask id="mask0_15_511" style="mask-type:alpha" maskUnits="userSpaceOnUse" x="116" y="59" width="499" height="292">
<path d="M135.252 59.603H116.913V77.9423H135.252V59.603Z" fill="#D9D9D9"/>
<path d="M160.469 59.603H142.13V77.9423H160.469V59.603Z" fill="#D9D9D9"/>
<path d="M185.685 59.603H167.346V77.9423H185.685V59.603Z" fill="#D9D9D9"/>
<path d="M210.902 59.603H192.563V77.9423H210.902V59.603Z" fill="#D9D9D9"/>
<path d="M236.119 59.603H217.78V77.9423H236.119V59.603Z" fill="#D9D9D9"/>
<path d="M261.335 59.603H242.996V77.9423H261.335V59.603Z" fill="#D9D9D9"/>
<path d="M286.552 59.603H268.213V77.9423H286.552V59.603Z" fill="#D9D9D9"/>
<path d="M311.769 59.603H293.43V77.9423H311.769V59.603Z" fill="#D9D9D9"/>
<path d="M336.985 59.603H318.646V77.9423H336.985V59.603Z" fill="#D9D9D9"/>
<path d="M362.202 59.603H343.863V77.9423H362.202V59.603Z" fill="#D9D9D9"/>
<path d="M387.418 59.603H369.079V77.9423H387.418V59.603Z" fill="#D9D9D9"/>
<path d="M412.635 59.603H394.296V77.9423H412.635V59.603Z" fill="#D9D9D9"/>
<path d="M437.852 59.603H419.513V77.9423H437.852V59.603Z" fill="#D9D9D9"/>
<path d="M463.068 59.603H444.729V77.9423H463.068V59.603Z" fill="#D9D9D9"/>
<path d="M488.285 59.603H469.946V77.9423H488.285V59.603Z" fill="#D9D9D9"/>
<path d="M513.501 59.603H495.162V77.9423H513.501V59.603Z" fill="#D9D9D9"/>
<path d="M538.718 59.603H520.379V77.9423H538.718V59.603Z" fill="#D9D9D9"/>
<path d="M563.935 59.603H545.596V77.9423H563.935V59.603Z" fill="#D9D9D9"/>
<path d="M589.151 59.603H570.812V77.9423H589.151V59.603Z" fill="#D9D9D9"/>
<path d="M614.368 59.603H596.029V77.9423H614.368V59.603Z" fill="#D9D9D9"/>
<path d="M135.252 84.8196H116.913V103.159H135.252V84.8196Z" fill="#D9D9D9"/>
<path d="M160.469 84.8196H142.13V103.159H160.469V84.8196Z" fill="#D9D9D9"/>
<path d="M185.685 84.8196H167.346V103.159H185.685V84.8196Z" fill="#D9D9D9"/>
<path d="M210.902 84.8196H192.563V103.159H210.902V84.8196Z" fill="#D9D9D9"/>
<path d="M236.119 84.8196H217.78V103.159H236.119V84.8196Z" fill="#D9D9D9"/>
<path d="M261.335 84.8196H242.996V103.159H261.335V84.8196Z" fill="#D9D9D9"/>
<path d="M286.552 84.8196H268.213V103.159H286.552V84.8196Z" fill="#D9D9D9"/>
<path d="M311.769 84.8196H293.43V103.159H311.769V84.8196Z" fill="#D9D9D9"/>
<path d="M336.985 84.8196H318.646V103.159H336.985V84.8196Z" fill="#D9D9D9"/>
<path d="M362.202 84.8196H343.863V103.159H362.202V84.8196Z" fill="#D9D9D9"/>
<path d="M387.418 84.8196H369.079V103.159H387.418V84.8196Z" fill="#D9D9D9"/>
<path d="M412.635 84.8196H394.296V103.159H412.635V84.8196Z" fill="#D9D9D9"/>
<path d="M437.852 84.8196H419.513V103.159H437.852V84.8196Z" fill="#D9D9D9"/>
<path d="M463.068 84.8196H444.729V103.159H463.068V84.8196Z" fill="#D9D9D9"/>
<path d="M488.285 84.8196H469.946V103.159H488.285V84.8196Z" fill="#D9D9D9"/>
<path d="M513.501 84.8196H495.162V103.159H513.501V84.8196Z" fill="#D9D9D9"/>
<path d="M538.718 84.8196H520.379V103.159H538.718V84.8196Z" fill="#D9D9D9"/>
<path d="M563.935 84.8196H545.596V103.159H563.935V84.8196Z" fill="#D9D9D9"/>
<path d="M589.151 84.8196H570.812V103.159H589.151V84.8196Z" fill="#D9D9D9"/>
<path d="M614.368 84.8196H596.029V103.159H614.368V84.8196Z" fill="#D9D9D9"/>
<path d="M135.252 110.036H116.913V128.375H135.252V110.036Z" fill="#D9D9D9"/>
<path d="M160.469 110.036H142.13V128.375H160.469V110.036Z" fill="#D9D9D9"/>
<path d="M185.685 110.036H167.346V128.375H185.685V110.036Z" fill="#D9D9D9"/>
<path d="M210.902 110.036H192.563V128.375H210.902V110.036Z" fill="#D9D9D9"/>
<path d="M236.119 110.036H217.78V128.375H236.119V110.036Z" fill="#D9D9D9"/>
<path d="M261.335 110.036H242.996V128.375H261.335V110.036Z" fill="#D9D9D9"/>
<path d="M286.552 110.036H268.213V128.375H286.552V110.036Z" fill="#D9D9D9"/>
<path d="M311.769 110.036H293.43V128.375H311.769V110.036Z" fill="#D9D9D9"/>
<path d="M336.985 110.036H318.646V128.375H336.985V110.036Z" fill="#D9D9D9"/>
<path d="M362.202 110.036H343.863V128.375H362.202V110.036Z" fill="#D9D9D9"/>
<path d="M387.418 110.036H369.079V128.375H387.418V110.036Z" fill="#D9D9D9"/>
<path d="M412.635 110.036H394.296V128.375H412.635V110.036Z" fill="#D9D9D9"/>
<path d="M437.852 110.036H419.513V128.375H437.852V110.036Z" fill="#D9D9D9"/>
<path d="M463.068 110.036H444.729V128.375H463.068V110.036Z" fill="#D9D9D9"/>
<path d="M488.285 110.036H469.946V128.375H488.285V110.036Z" fill="#D9D9D9"/>
<path d="M513.501 110.036H495.162V128.375H513.501V110.036Z" fill="#D9D9D9"/>
<path d="M538.718 110.036H520.379V128.375H538.718V110.036Z" fill="#D9D9D9"/>
<path d="M563.935 110.036H545.596V128.375H563.935V110.036Z" fill="#D9D9D9"/>
<path d="M589.151 110.036H570.812V128.375H589.151V110.036Z" fill="#D9D9D9"/>
<path d="M614.368 110.036H596.029V128.375H614.368V110.036Z" fill="#D9D9D9"/>
<path d="M135.252 135.253H116.913V153.592H135.252V135.253Z" fill="#D9D9D9"/>
<path d="M160.469 135.253H142.13V153.592H160.469V135.253Z" fill="#D9D9D9"/>
<path d="M185.685 135.253H167.346V153.592H185.685V135.253Z" fill="#D9D9D9"/>
<path d="M210.902 135.253H192.563V153.592H210.902V135.253Z" fill="#D9D9D9"/>
<path d="M236.119 135.253H217.78V153.592H236.119V135.253Z" fill="#D9D9D9"/>
<path d="M261.335 135.253H242.996V153.592H261.335V135.253Z" fill="#D9D9D9"/>
<path d="M286.552 135.253H268.213V153.592H286.552V135.253Z" fill="#D9D9D9"/>
<path d="M311.769 135.253H293.43V153.592H311.769V135.253Z" fill="#D9D9D9"/>
<path d="M336.985 135.253H318.646V153.592H336.985V135.253Z" fill="#D9D9D9"/>
<path d="M362.202 135.253H343.863V153.592H362.202V135.253Z" fill="#D9D9D9"/>
<path d="M387.418 135.253H369.079V153.592H387.418V135.253Z" fill="#D9D9D9"/>
<path d="M412.635 135.253H394.296V153.592H412.635V135.253Z" fill="#D9D9D9"/>
<path d="M437.852 135.253H419.513V153.592H437.852V135.253Z" fill="#D9D9D9"/>
<path d="M463.068 135.253H444.729V153.592H463.068V135.253Z" fill="#D9D9D9"/>
<path d="M488.285 135.253H469.946V153.592H488.285V135.253Z" fill="#D9D9D9"/>
<path d="M513.501 135.253H495.162V153.592H513.501V135.253Z" fill="#D9D9D9"/>
<path d="M538.718 135.253H520.379V153.592H538.718V135.253Z" fill="#D9D9D9"/>
<path d="M563.935 135.253H545.596V153.592H563.935V135.253Z" fill="#D9D9D9"/>
<path d="M589.151 135.253H570.812V153.592H589.151V135.253Z" fill="#D9D9D9"/>
<path d="M614.368 135.253H596.029V153.592H614.368V135.253Z" fill="#D9D9D9"/>
<path d="M135.252 160.469H116.913V178.808H135.252V160.469Z" fill="#D9D9D9"/>
<path d="M160.469 160.469H142.13V178.808H160.469V160.469Z" fill="#D9D9D9"/>
<path d="M185.685 160.469H167.346V178.808H185.685V160.469Z" fill="#D9D9D9"/>
<path d="M210.902 160.469H192.563V178.808H210.902V160.469Z" fill="#D9D9D9"/>
<path d="M236.119 160.469H217.78V178.808H236.119V160.469Z" fill="#D9D9D9"/>
<path d="M261.335 160.469H242.996V178.808H261.335V160.469Z" fill="#D9D9D9"/>
<path d="M286.552 160.469H268.213V178.808H286.552V160.469Z" fill="#D9D9D9"/>
<path d="M311.769 160.469H293.43V178.808H311.769V160.469Z" fill="#D9D9D9"/>
<path d="M336.985 160.469H318.646V178.808H336.985V160.469Z" fill="#D9D9D9"/>
<path d="M362.202 160.469H343.863V178.808H362.202V160.469Z" fill="#D9D9D9"/>
<path d="M387.418 160.469H369.079V178.808H387.418V160.469Z" fill="#D9D9D9"/>
<path d="M412.635 160.469H394.296V178.808H412.635V160.469Z" fill="#D9D9D9"/>
<path d="M437.852 160.469H419.513V178.808H437.852V160.469Z" fill="#D9D9D9"/>
<path d="M463.068 160.469H444.729V178.808H463.068V160.469Z" fill="#D9D9D9"/>
<path d="M488.285 160.469H469.946V178.808H488.285V160.469Z" fill="#D9D9D9"/>
<path d="M513.501 160.469H495.162V178.808H513.501V160.469Z" fill="#D9D9D9"/>
<path d="M538.718 160.469H520.379V178.808H538.718V160.469Z" fill="#D9D9D9"/>
<path d="M563.935 160.469H545.596V178.808H563.935V160.469Z" fill="#D9D9D9"/>
<path d="M589.151 160.469H570.812V178.808H589.151V160.469Z" fill="#D9D9D9"/>
<path d="M614.368 160.469H596.029V178.808H614.368V160.469Z" fill="#D9D9D9"/>
<path d="M135.252 185.686H116.913V204.025H135.252V185.686Z" fill="#D9D9D9"/>
<path d="M160.469 185.686H142.13V204.025H160.469V185.686Z" fill="#D9D9D9"/>
<path d="M185.685 185.686H167.346V204.025H185.685V185.686Z" fill="#D9D9D9"/>
<path d="M210.902 185.686H192.563V204.025H210.902V185.686Z" fill="#D9D9D9"/>
<path d="M236.119 185.686H217.78V204.025H236.119V185.686Z" fill="#D9D9D9"/>
<path d="M261.335 185.686H242.996V204.025H261.335V185.686Z" fill="#D9D9D9"/>
<path d="M286.552 185.686H268.213V204.025H286.552V185.686Z" fill="#D9D9D9"/>
<path d="M311.769 185.686H293.43V204.025H311.769V185.686Z" fill="#D9D9D9"/>
<path d="M336.985 185.686H318.646V204.025H336.985V185.686Z" fill="#D9D9D9"/>
<path d="M362.202 185.686H343.863V204.025H362.202V185.686Z" fill="#D9D9D9"/>
<path d="M387.418 185.686H369.079V204.025H387.418V185.686Z" fill="#D9D9D9"/>
<path d="M412.635 185.686H394.296V204.025H412.635V185.686Z" fill="#D9D9D9"/>
<path d="M437.852 185.686H419.513V204.025H437.852V185.686Z" fill="#D9D9D9"/>
<path d="M463.068 185.686H444.729V204.025H463.068V185.686Z" fill="#D9D9D9"/>
<path d="M488.285 185.686H469.946V204.025H488.285V185.686Z" fill="#D9D9D9"/>
<path d="M513.501 185.686H495.162V204.025H513.501V185.686Z" fill="#D9D9D9"/>
<path d="M538.718 185.686H520.379V204.025H538.718V185.686Z" fill="#D9D9D9"/>
<path d="M563.935 185.686H545.596V204.025H563.935V185.686Z" fill="#D9D9D9"/>
<path d="M589.151 185.686H570.812V204.025H589.151V185.686Z" fill="#D9D9D9"/>
<path d="M614.368 185.686H596.029V204.025H614.368V185.686Z" fill="#D9D9D9"/>
<path d="M135.252 210.903H116.913V229.242H135.252V210.903Z" fill="#D9D9D9"/>
<path d="M160.469 210.903H142.13V229.242H160.469V210.903Z" fill="#D9D9D9"/>
<path d="M185.685 210.903H167.346V229.242H185.685V210.903Z" fill="#D9D9D9"/>
<path d="M210.902 210.903H192.563V229.242H210.902V210.903Z" fill="#D9D9D9"/>
<path d="M236.119 210.903H217.78V229.242H236.119V210.903Z" fill="#D9D9D9"/>
<path d="M261.335 210.903H242.996V229.242H261.335V210.903Z" fill="#D9D9D9"/>
<path d="M286.552 210.903H268.213V229.242H286.552V210.903Z" fill="#D9D9D9"/>
<path d="M311.769 210.903H293.43V229.242H311.769V210.903Z" fill="#D9D9D9"/>
<path d="M336.985 210.903H318.646V229.242H336.985V210.903Z" fill="#D9D9D9"/>
<path d="M362.202 210.903H343.863V229.242H362.202V210.903Z" fill="#D9D9D9"/>
<path d="M387.418 210.903H369.079V229.242H387.418V210.903Z" fill="#D9D9D9"/>
<path d="M412.635 210.903H394.296V229.242H412.635V210.903Z" fill="#D9D9D9"/>
<path d="M437.852 210.903H419.513V229.242H437.852V210.903Z" fill="#D9D9D9"/>
<path d="M463.068 210.903H444.729V229.242H463.068V210.903Z" fill="#D9D9D9"/>
<path d="M488.285 210.903H469.946V229.242H488.285V210.903Z" fill="#D9D9D9"/>
<path d="M513.501 210.903H495.162V229.242H513.501V210.903Z" fill="#D9D9D9"/>
<path d="M538.718 210.903H520.379V229.242H538.718V210.903Z" fill="#D9D9D9"/>
<path d="M563.935 210.903H545.596V229.242H563.935V210.903Z" fill="#D9D9D9"/>
<path d="M589.151 210.903H570.812V229.242H589.151V210.903Z" fill="#D9D9D9"/>
<path d="M614.368 210.903H596.029V229.242H614.368V210.903Z" fill="#D9D9D9"/>
<path d="M135.252 236.119H116.913V254.458H135.252V236.119Z" fill="#D9D9D9"/>
<path d="M160.469 236.119H142.13V254.458H160.469V236.119Z" fill="#D9D9D9"/>
<path d="M185.685 236.119H167.346V254.458H185.685V236.119Z" fill="#D9D9D9"/>
<path d="M210.902 236.119H192.563V254.458H210.902V236.119Z" fill="#D9D9D9"/>
<path d="M236.119 236.119H217.78V254.458H236.119V236.119Z" fill="#D9D9D9"/>
<path d="M261.335 236.119H242.996V254.458H261.335V236.119Z" fill="#D9D9D9"/>
<path d="M286.552 236.119H268.213V254.458H286.552V236.119Z" fill="#D9D9D9"/>
<path d="M311.769 236.119H293.43V254.458H311.769V236.119Z" fill="#D9D9D9"/>
<path d="M336.985 236.119H318.646V254.458H336.985V236.119Z" fill="#D9D9D9"/>
<path d="M362.202 236.119H343.863V254.458H362.202V236.119Z" fill="#D9D9D9"/>
<path d="M387.418 236.119H369.079V254.458H387.418V236.119Z" fill="#D9D9D9"/>
<path d="M412.635 236.119H394.296V254.458H412.635V236.119Z" fill="#D9D9D9"/>
<path d="M437.852 236.119H419.513V254.458H437.852V236.119Z" fill="#D9D9D9"/>
<path d="M463.068 236.119H444.729V254.458H463.068V236.119Z" fill="#D9D9D9"/>
<path d="M488.285 236.119H469.946V254.458H488.285V236.119Z" fill="#D9D9D9"/>
<path d="M513.501 236.119H495.162V254.458H513.501V236.119Z" fill="#D9D9D9"/>
<path d="M538.718 236.119H520.379V254.458H538.718V236.119Z" fill="#D9D9D9"/>
<path d="M563.935 236.119H545.596V254.458H563.935V236.119Z" fill="#D9D9D9"/>
<path d="M589.151 236.119H570.812V254.458H589.151V236.119Z" fill="#D9D9D9"/>
<path d="M614.368 236.119H596.029V254.458H614.368V236.119Z" fill="#D9D9D9"/>
<g opacity="0.5">
<path d="M135.252 259.043H116.913V277.382H135.252V259.043Z" fill="#D9D9D9"/>
<path d="M160.469 259.043H142.13V277.382H160.469V259.043Z" fill="#D9D9D9"/>
<path d="M185.685 259.043H167.346V277.382H185.685V259.043Z" fill="#D9D9D9"/>
<path d="M210.902 259.043H192.563V277.382H210.902V259.043Z" fill="#D9D9D9"/>
<path d="M236.119 259.043H217.78V277.382H236.119V259.043Z" fill="#D9D9D9"/>
<path d="M261.335 259.043H242.996V277.382H261.335V259.043Z" fill="#D9D9D9"/>
<path d="M286.552 259.043H268.213V277.382H286.552V259.043Z" fill="#D9D9D9"/>
<path d="M311.769 259.043H293.43V277.382H311.769V259.043Z" fill="#D9D9D9"/>
<path d="M336.985 259.043H318.646V277.382H336.985V259.043Z" fill="#D9D9D9"/>
<path d="M362.202 259.043H343.863V277.382H362.202V259.043Z" fill="#D9D9D9"/>
<path d="M387.418 259.043H369.079V277.382H387.418V259.043Z" fill="#D9D9D9"/>
<path d="M412.635 259.043H394.296V277.382H412.635V259.043Z" fill="#D9D9D9"/>
<path d="M437.852 259.043H419.513V277.382H437.852V259.043Z" fill="#D9D9D9"/>
<path d="M463.068 259.043H444.729V277.382H463.068V259.043Z" fill="#D9D9D9"/>
<path d="M488.285 259.043H469.946V277.382H488.285V259.043Z" fill="#D9D9D9"/>
<path d="M513.501 259.043H495.162V277.382H513.501V259.043Z" fill="#D9D9D9"/>
<path d="M538.718 259.043H520.379V277.382H538.718V259.043Z" fill="#D9D9D9"/>
<path d="M563.935 259.043H545.596V277.382H563.935V259.043Z" fill="#D9D9D9"/>
<path d="M589.151 259.043H570.812V277.382H589.151V259.043Z" fill="#D9D9D9"/>
<path d="M614.368 259.043H596.029V277.382H614.368V259.043Z" fill="#D9D9D9"/>
</g>
<g opacity="0.1">
<path d="M135.252 281.968H116.913V300.307H135.252V281.968Z" fill="#D9D9D9"/>
<path d="M160.469 281.968H142.13V300.307H160.469V281.968Z" fill="#D9D9D9"/>
<path d="M185.685 281.968H167.346V300.307H185.685V281.968Z" fill="#D9D9D9"/>
<path d="M210.902 281.968H192.563V300.307H210.902V281.968Z" fill="#D9D9D9"/>
<path d="M236.119 281.968H217.78V300.307H236.119V281.968Z" fill="#D9D9D9"/>
<path d="M261.335 281.968H242.996V300.307H261.335V281.968Z" fill="#D9D9D9"/>
<path d="M286.552 281.968H268.213V300.307H286.552V281.968Z" fill="#D9D9D9"/>
<path d="M311.769 281.968H293.43V300.307H311.769V281.968Z" fill="#D9D9D9"/>
<path d="M336.985 281.968H318.646V300.307H336.985V281.968Z" fill="#D9D9D9"/>
<path d="M362.202 281.968H343.863V300.307H362.202V281.968Z" fill="#D9D9D9"/>
<path d="M387.418 281.968H369.079V300.307H387.418V281.968Z" fill="#D9D9D9"/>
<path d="M412.635 281.968H394.296V300.307H412.635V281.968Z" fill="#D9D9D9"/>
<path d="M437.852 281.968H419.513V300.307H437.852V281.968Z" fill="#D9D9D9"/>
<path d="M463.068 281.968H444.729V300.307H463.068V281.968Z" fill="#D9D9D9"/>
<path d="M488.285 281.968H469.946V300.307H488.285V281.968Z" fill="#D9D9D9"/>
<path d="M513.501 281.968H495.162V300.307H513.501V281.968Z" fill="#D9D9D9"/>
<path d="M538.718 281.968H520.379V300.307H538.718V281.968Z" fill="#D9D9D9"/>
<path d="M563.935 281.968H545.596V300.307H563.935V281.968Z" fill="#D9D9D9"/>
<path d="M589.151 281.968H570.812V300.307H589.151V281.968Z" fill="#D9D9D9"/>
<path d="M614.368 281.968H596.029V300.307H614.368V281.968Z" fill="#D9D9D9"/>
</g>
<g opacity="0.1">
<path d="M135.252 307.184H116.913V325.523H135.252V307.184Z" fill="#D9D9D9"/>
<path d="M160.469 307.184H142.13V325.523H160.469V307.184Z" fill="#D9D9D9"/>
<path d="M185.685 307.184H167.346V325.523H185.685V307.184Z" fill="#D9D9D9"/>
<path d="M210.902 307.184H192.563V325.523H210.902V307.184Z" fill="#D9D9D9"/>
<path d="M236.119 307.184H217.78V325.523H236.119V307.184Z" fill="#D9D9D9"/>
<path d="M261.335 307.184H242.996V325.523H261.335V307.184Z" fill="#D9D9D9"/>
<path d="M286.552 307.184H268.213V325.523H286.552V307.184Z" fill="#D9D9D9"/>
<path d="M311.769 307.184H293.43V325.523H311.769V307.184Z" fill="#D9D9D9"/>
<path d="M336.985 307.184H318.646V325.523H336.985V307.184Z" fill="#D9D9D9"/>
<path d="M362.202 307.184H343.863V325.523H362.202V307.184Z" fill="#D9D9D9"/>
<path d="M387.418 307.184H369.079V325.523H387.418V307.184Z" fill="#D9D9D9"/>
<path d="M412.635 307.184H394.296V325.523H412.635V307.184Z" fill="#D9D9D9"/>
<path d="M437.852 307.184H419.513V325.523H437.852V307.184Z" fill="#D9D9D9"/>
<path d="M463.068 307.184H444.729V325.523H463.068V307.184Z" fill="#D9D9D9"/>
<path d="M488.285 307.184H469.946V325.523H488.285V307.184Z" fill="#D9D9D9"/>
<path d="M513.501 307.184H495.162V325.523H513.501V307.184Z" fill="#D9D9D9"/>
<path d="M538.718 307.184H520.379V325.523H538.718V307.184Z" fill="#D9D9D9"/>
<path d="M563.935 307.184H545.596V325.523H563.935V307.184Z" fill="#D9D9D9"/>
<path d="M589.151 307.184H570.812V325.523H589.151V307.184Z" fill="#D9D9D9"/>
<path d="M614.368 307.184H596.029V325.523H614.368V307.184Z" fill="#D9D9D9"/>
</g>
<g opacity="0.1">
<path d="M135.252 332.401H116.913V350.74H135.252V332.401Z" fill="#D9D9D9"/>
<path d="M160.469 332.401H142.13V350.74H160.469V332.401Z" fill="#D9D9D9"/>
<path d="M185.685 332.401H167.346V350.74H185.685V332.401Z" fill="#D9D9D9"/>
<path d="M210.902 332.401H192.563V350.74H210.902V332.401Z" fill="#D9D9D9"/>
<path d="M236.119 332.401H217.78V350.74H236.119V332.401Z" fill="#D9D9D9"/>
<path d="M261.335 332.401H242.996V350.74H261.335V332.401Z" fill="#D9D9D9"/>
<path d="M286.552 332.401H268.213V350.74H286.552V332.401Z" fill="#D9D9D9"/>
<path d="M311.769 332.401H293.43V350.74H311.769V332.401Z" fill="#D9D9D9"/>
<path d="M336.985 332.401H318.646V350.74H336.985V332.401Z" fill="#D9D9D9"/>
<path d="M362.202 332.401H343.863V350.74H362.202V332.401Z" fill="#D9D9D9"/>
<path d="M387.418 332.401H369.079V350.74H387.418V332.401Z" fill="#D9D9D9"/>
<path d="M412.635 332.401H394.296V350.74H412.635V332.401Z" fill="#D9D9D9"/>
<path d="M437.852 332.401H419.513V350.74H437.852V332.401Z" fill="#D9D9D9"/>
<path d="M463.068 332.401H444.729V350.74H463.068V332.401Z" fill="#D9D9D9"/>
<path d="M488.285 332.401H469.946V350.74H488.285V332.401Z" fill="#D9D9D9"/>
<path d="M513.501 332.401H495.162V350.74H513.501V332.401Z" fill="#D9D9D9"/>
<path d="M538.718 332.401H520.379V350.74H538.718V332.401Z" fill="#D9D9D9"/>
<path d="M563.935 332.401H545.596V350.74H563.935V332.401Z" fill="#D9D9D9"/>
<path d="M589.151 332.401H570.812V350.74H589.151V332.401Z" fill="#D9D9D9"/>
<path d="M614.368 332.401H596.029V350.74H614.368V332.401Z" fill="#D9D9D9"/>
</g>
</mask>
<g mask="url(#mask0_15_511)">
<path d="M625.83 38.9712H105.451V362.202H625.83V38.9712Z" fill="url(#paint17_linear_15_511)"/>
</g>
<path d="M676.264 403.466H61.8952C35.3078 403.466 13.7544 425.019 13.7544 451.607V515.794C13.7544 542.382 35.3078 563.935 61.8952 563.935H676.264C702.851 563.935 724.404 542.382 724.404 515.794V451.607C724.404 425.019 702.851 403.466 676.264 403.466Z" fill="url(#paint18_linear_15_511)"/>
<path d="M676.263 404.612H61.8952C35.9408 404.612 14.9006 425.652 14.9006 451.607V515.794C14.9006 541.749 35.9408 562.789 61.8952 562.789H676.263C702.217 562.789 723.258 541.749 723.258 515.794V451.607C723.258 425.652 702.217 404.612 676.263 404.612Z" stroke="white" stroke-opacity="0.12" stroke-width="2.29242"/>
<g filter="url(#filter0_d_15_511)">
<path d="M124.253 489.928V435.273H146.739C151.58 435.273 155.718 436.054 159.154 437.615C162.641 439.177 165.322 441.415 167.196 444.33C169.07 447.245 170.007 450.706 170.007 454.714C170.007 458.722 169.07 462.184 167.196 465.099C165.322 468.014 162.641 470.252 159.154 471.814C155.718 473.375 151.58 474.156 146.739 474.156H129.874L134.403 469.393V489.928H124.253ZM134.403 470.486L129.874 465.567H146.271C150.747 465.567 154.105 464.63 156.343 462.756C158.633 460.83 159.778 458.15 159.778 454.714C159.778 451.227 158.633 448.546 156.343 446.672C154.105 444.798 150.747 443.861 146.271 443.861H129.874L134.403 438.864V470.486ZM206.515 490.709C202.247 490.709 198.317 490.006 194.725 488.6C191.134 487.195 188.01 485.243 185.356 482.745C182.701 480.194 180.645 477.227 179.188 473.844C177.73 470.408 177.001 466.66 177.001 462.6C177.001 458.54 177.73 454.818 179.188 451.435C180.645 448 182.701 445.033 185.356 442.534C188.01 439.984 191.134 438.006 194.725 436.6C198.317 435.195 202.221 434.492 206.437 434.492C210.705 434.492 214.609 435.195 218.149 436.6C221.74 438.006 224.864 439.984 227.518 442.534C230.173 445.033 232.229 448 233.686 451.435C235.144 454.818 235.873 458.54 235.873 462.6C235.873 466.66 235.144 470.408 233.686 473.844C232.229 477.279 230.173 480.246 227.518 482.745C224.864 485.243 221.74 487.195 218.149 488.6C214.609 490.006 210.731 490.709 206.515 490.709ZM206.437 481.808C209.196 481.808 211.746 481.339 214.089 480.402C216.431 479.465 218.461 478.138 220.179 476.42C221.897 474.65 223.224 472.62 224.161 470.33C225.15 467.988 225.644 465.411 225.644 462.6C225.644 459.789 225.15 457.239 224.161 454.949C223.224 452.606 221.897 450.576 220.179 448.858C218.461 447.089 216.431 445.735 214.089 444.798C211.746 443.861 209.196 443.393 206.437 443.393C203.678 443.393 201.128 443.861 198.785 444.798C196.495 445.735 194.465 447.089 192.695 448.858C190.977 450.576 189.624 452.606 188.635 454.949C187.698 457.239 187.23 459.789 187.23 462.6C187.23 465.359 187.698 467.91 188.635 470.252C189.624 472.594 190.977 474.65 192.695 476.42C194.413 478.138 196.443 479.465 198.785 480.402C201.128 481.339 203.678 481.808 206.437 481.808ZM272.241 490.709C267.973 490.709 264.043 490.006 260.451 488.6C256.86 487.195 253.737 485.243 251.082 482.745C248.427 480.194 246.371 477.227 244.914 473.844C243.456 470.408 242.728 466.66 242.728 462.6C242.728 458.54 243.456 454.818 244.914 451.435C246.371 448 248.427 445.033 251.082 442.534C253.737 439.984 256.86 438.006 260.451 436.6C264.043 435.195 267.947 434.492 272.163 434.492C276.432 434.492 280.335 435.195 283.875 436.6C287.467 438.006 290.59 439.984 293.244 442.534C295.899 445.033 297.955 448 299.413 451.435C300.87 454.818 301.599 458.54 301.599 462.6C301.599 466.66 300.87 470.408 299.413 473.844C297.955 477.279 295.899 480.246 293.244 482.745C290.59 485.243 287.467 487.195 283.875 488.6C280.335 490.006 276.458 490.709 272.241 490.709ZM272.163 481.808C274.922 481.808 277.473 481.339 279.815 480.402C282.157 479.465 284.187 478.138 285.905 476.42C287.623 474.65 288.95 472.62 289.887 470.33C290.876 467.988 291.371 465.411 291.371 462.6C291.371 459.789 290.876 457.239 289.887 454.949C288.95 452.606 287.623 450.576 285.905 448.858C284.187 447.089 282.157 445.735 279.815 444.798C277.473 443.861 274.922 443.393 272.163 443.393C269.404 443.393 266.854 443.861 264.512 444.798C262.221 445.735 260.191 447.089 258.421 448.858C256.704 450.576 255.35 452.606 254.361 454.949C253.424 457.239 252.956 459.789 252.956 462.6C252.956 465.359 253.424 467.91 254.361 470.252C255.35 472.594 256.704 474.65 258.421 476.42C260.139 478.138 262.169 479.465 264.512 480.402C266.854 481.339 269.404 481.808 272.163 481.808ZM312.358 489.928V435.273H322.508V481.339H351.085V489.928H312.358ZM389.968 460.414H417.217V469.003H389.968V460.414ZM390.827 489.928H380.676V435.273H420.575V443.783H390.827V489.928ZM455.39 490.709C451.122 490.709 447.192 490.006 443.6 488.6C440.009 487.195 436.886 485.243 434.231 482.745C431.576 480.194 429.52 477.227 428.063 473.844C426.605 470.408 425.877 466.66 425.877 462.6C425.877 458.54 426.605 454.818 428.063 451.435C429.52 448 431.576 445.033 434.231 442.534C436.886 439.984 440.009 438.006 443.6 436.6C447.192 435.195 451.096 434.492 455.312 434.492C459.58 434.492 463.484 435.195 467.024 436.6C470.616 438.006 473.739 439.984 476.393 442.534C479.048 445.033 481.104 448 482.562 451.435C484.019 454.818 484.748 458.54 484.748 462.6C484.748 466.66 484.019 470.408 482.562 473.844C481.104 477.279 479.048 480.246 476.393 482.745C473.739 485.243 470.616 487.195 467.024 488.6C463.484 490.006 459.606 490.709 455.39 490.709ZM455.312 481.808C458.071 481.808 460.621 481.339 462.964 480.402C465.306 479.465 467.336 478.138 469.054 476.42C470.772 474.65 472.099 472.62 473.036 470.33C474.025 467.988 474.519 465.411 474.519 462.6C474.519 459.789 474.025 457.239 473.036 454.949C472.099 452.606 470.772 450.576 469.054 448.858C467.336 447.089 465.306 445.735 462.964 444.798C460.621 443.861 458.071 443.393 455.312 443.393C452.553 443.393 450.003 443.861 447.66 444.798C445.37 445.735 443.34 447.089 441.57 448.858C439.853 450.576 438.499 452.606 437.51 454.949C436.573 457.239 436.105 459.789 436.105 462.6C436.105 465.359 436.573 467.91 437.51 470.252C438.499 472.594 439.853 474.65 441.57 476.42C443.288 478.138 445.318 479.465 447.66 480.402C450.003 481.339 452.553 481.808 455.312 481.808ZM495.507 489.928V435.273H517.993C522.834 435.273 526.972 436.054 530.408 437.615C533.895 439.177 536.576 441.415 538.45 444.33C540.324 447.245 541.261 450.706 541.261 454.714C541.261 458.722 540.324 462.184 538.45 465.099C536.576 467.962 533.895 470.174 530.408 471.735C526.972 473.245 522.834 474 517.993 474H501.128L505.657 469.393V489.928H495.507ZM531.267 489.928L517.447 470.096H528.3L542.198 489.928H531.267ZM505.657 470.486L501.128 465.645H517.525C522.001 465.645 525.359 464.682 527.597 462.756C529.887 460.83 531.032 458.15 531.032 454.714C531.032 451.227 529.887 448.546 527.597 446.672C525.359 444.798 522.001 443.861 517.525 443.861H501.128L505.657 438.864V470.486ZM552.617 489.928V435.273H560.971L584.863 475.171H580.491L603.992 435.273H612.347L612.425 489.928H602.821L602.743 450.342H604.773L584.785 483.681H580.257L559.956 450.342H562.299V489.928H552.617Z" fill="#FFD368"/>
</g>
<path d="M175.923 541.476V524.767H185.845V526.616H178.029V531.834H180.51C182.179 531.834 183.474 532.045 184.394 532.466C185.315 532.872 185.954 533.434 186.313 534.151C186.672 534.853 186.851 535.664 186.851 536.585C186.851 537.599 186.649 538.472 186.243 539.206C185.853 539.939 185.213 540.501 184.324 540.891C183.435 541.281 182.265 541.476 180.814 541.476H175.923ZM180.603 539.674C182.101 539.674 183.154 539.424 183.763 538.925C184.371 538.41 184.675 537.63 184.675 536.585C184.675 535.867 184.527 535.298 184.231 534.877C183.95 534.44 183.482 534.128 182.827 533.941C182.187 533.753 181.329 533.66 180.252 533.66H178.029V539.674H180.603ZM200.804 541.476L198.791 536.304H192.169L190.18 541.476H188.05L194.579 524.697H196.475L202.98 541.476H200.804ZM196.287 529.377C196.241 529.253 196.163 529.026 196.053 528.699C195.944 528.371 195.835 528.036 195.726 527.693C195.632 527.334 195.554 527.061 195.492 526.874C195.414 527.186 195.328 527.505 195.234 527.833C195.156 528.145 195.071 528.434 194.977 528.699C194.899 528.964 194.829 529.19 194.766 529.377L192.871 534.432H198.16L196.287 529.377ZM212.426 526.382C211.537 526.382 210.734 526.538 210.016 526.85C209.298 527.147 208.69 527.591 208.191 528.184C207.692 528.761 207.309 529.471 207.044 530.313C206.779 531.14 206.646 532.076 206.646 533.122C206.646 534.494 206.857 535.688 207.278 536.702C207.715 537.716 208.355 538.496 209.197 539.042C210.055 539.588 211.124 539.861 212.403 539.861C213.136 539.861 213.83 539.799 214.486 539.674C215.141 539.549 215.78 539.393 216.404 539.206V541.031C215.78 541.265 215.133 541.437 214.462 541.546C213.807 541.655 213.019 541.71 212.099 541.71C210.398 541.71 208.979 541.359 207.84 540.657C206.701 539.955 205.843 538.956 205.266 537.661C204.704 536.366 204.423 534.845 204.423 533.098C204.423 531.834 204.595 530.68 204.938 529.635C205.297 528.59 205.812 527.685 206.483 526.92C207.169 526.156 208.011 525.571 209.01 525.165C210.008 524.744 211.155 524.533 212.45 524.533C213.308 524.533 214.135 524.619 214.93 524.791C215.726 524.962 216.436 525.204 217.06 525.516L216.217 527.295C215.702 527.061 215.125 526.85 214.486 526.663C213.862 526.476 213.175 526.382 212.426 526.382ZM226.755 526.382C225.866 526.382 225.062 526.538 224.344 526.85C223.627 527.147 223.018 527.591 222.519 528.184C222.02 528.761 221.638 529.471 221.373 530.313C221.107 531.14 220.975 532.076 220.975 533.122C220.975 534.494 221.185 535.688 221.607 536.702C222.043 537.716 222.683 538.496 223.525 539.042C224.383 539.588 225.452 539.861 226.731 539.861C227.465 539.861 228.159 539.799 228.814 539.674C229.469 539.549 230.109 539.393 230.733 539.206V541.031C230.109 541.265 229.461 541.437 228.791 541.546C228.135 541.655 227.348 541.71 226.427 541.71C224.727 541.71 223.307 541.359 222.168 540.657C221.029 539.955 220.171 538.956 219.594 537.661C219.032 536.366 218.752 534.845 218.752 533.098C218.752 531.834 218.923 530.68 219.266 529.635C219.625 528.59 220.14 527.685 220.811 526.92C221.497 526.156 222.34 525.571 223.338 525.165C224.337 524.744 225.483 524.533 226.778 524.533C227.636 524.533 228.463 524.619 229.259 524.791C230.054 524.962 230.764 525.204 231.388 525.516L230.546 527.295C230.031 527.061 229.454 526.85 228.814 526.663C228.19 526.476 227.504 526.382 226.755 526.382ZM243.716 541.476H234.38V524.767H243.716V526.616H236.486V531.834H243.295V533.66H236.486V539.627H243.716V541.476ZM258.779 519.572C258.716 520.352 258.521 521.008 258.194 521.538C257.882 522.069 257.414 522.466 256.79 522.732C256.166 522.997 255.354 523.129 254.356 523.129C253.342 523.129 252.523 522.997 251.899 522.732C251.29 522.466 250.846 522.076 250.565 521.562C250.284 521.031 250.113 520.368 250.05 519.572H251.969C252.047 520.415 252.265 520.984 252.624 521.281C252.999 521.562 253.592 521.702 254.403 521.702C255.12 521.702 255.682 521.554 256.088 521.257C256.509 520.945 256.758 520.384 256.836 519.572H258.779ZM247.406 524.767H249.372V533.941C249.372 534.331 249.364 534.76 249.348 535.228C249.348 535.68 249.34 536.132 249.325 536.585C249.309 537.037 249.286 537.443 249.255 537.802C249.239 538.145 249.223 538.41 249.208 538.597H249.301L258.498 524.767H260.838V541.476H258.872V532.396C258.872 531.975 258.88 531.522 258.896 531.039C258.911 530.54 258.927 530.064 258.942 529.611C258.974 529.143 258.997 528.73 259.013 528.371C259.028 528.012 259.044 527.747 259.06 527.576H258.966L249.746 541.476H247.406V524.767ZM278.121 541.476H276.015V533.683H267.451V541.476H265.344V524.767H267.451V531.834H276.015V524.767H278.121V541.476ZM282.689 541.476V524.767H284.795V531.834H287.37C288.93 531.834 290.154 532.045 291.043 532.466C291.948 532.888 292.588 533.457 292.962 534.175C293.352 534.892 293.547 535.696 293.547 536.585C293.547 537.568 293.337 538.426 292.915 539.159C292.51 539.892 291.87 540.462 290.997 540.867C290.123 541.273 289 541.476 287.627 541.476H282.689ZM287.44 539.697C288.781 539.697 289.772 539.44 290.412 538.925C291.051 538.41 291.371 537.63 291.371 536.585C291.371 535.867 291.215 535.298 290.903 534.877C290.607 534.455 290.146 534.151 289.522 533.964C288.898 533.777 288.103 533.683 287.135 533.683H284.795V539.697H287.44ZM296.121 541.476V524.767H298.227V541.476H296.121Z" fill="#FFF1DE"/>
<path d="M331.999 528.51C331.11 528.51 330.306 528.666 329.589 528.978C328.871 529.274 328.263 529.719 327.763 530.312C327.264 530.889 326.882 531.599 326.617 532.441C326.351 533.268 326.219 534.204 326.219 535.249C326.219 536.622 326.429 537.815 326.851 538.83C327.288 539.844 327.927 540.624 328.77 541.17C329.628 541.716 330.696 541.989 331.975 541.989C332.709 541.989 333.403 541.926 334.058 541.801C334.713 541.677 335.353 541.521 335.977 541.333V543.159C335.353 543.393 334.706 543.564 334.035 543.673C333.38 543.783 332.592 543.837 331.671 543.837C329.971 543.837 328.551 543.486 327.412 542.784C326.273 542.082 325.415 541.084 324.838 539.789C324.277 538.494 323.996 536.973 323.996 535.226C323.996 533.962 324.167 532.808 324.511 531.762C324.869 530.717 325.384 529.812 326.055 529.048C326.741 528.284 327.584 527.699 328.582 527.293C329.581 526.872 330.727 526.661 332.022 526.661C332.88 526.661 333.707 526.747 334.503 526.919C335.298 527.09 336.008 527.332 336.632 527.644L335.79 529.422C335.275 529.188 334.698 528.978 334.058 528.791C333.434 528.603 332.748 528.51 331.999 528.51ZM350.107 543.603L348.095 538.432H341.472L339.483 543.603H337.354L343.883 526.825H345.778L352.284 543.603H350.107ZM345.591 531.505C345.544 531.38 345.466 531.154 345.357 530.826C345.248 530.499 345.138 530.163 345.029 529.82C344.936 529.461 344.858 529.188 344.795 529.001C344.717 529.313 344.631 529.633 344.538 529.961C344.46 530.273 344.374 530.561 344.28 530.826C344.202 531.092 344.132 531.318 344.07 531.505L342.174 536.56H347.463L345.591 531.505ZM361.566 538.853C361.067 539.961 360.56 540.889 360.045 541.638C359.546 542.371 358.953 542.925 358.266 543.299C357.58 543.658 356.706 543.837 355.646 543.837C355.209 543.837 354.795 543.806 354.405 543.744C354.031 543.681 353.688 543.595 353.376 543.486V541.404C353.688 541.544 354.023 541.661 354.382 541.755C354.741 541.833 355.115 541.872 355.505 541.872C356.082 541.872 356.574 541.794 356.979 541.638C357.401 541.466 357.767 541.193 358.079 540.819C358.407 540.444 358.711 539.945 358.992 539.321L352.557 526.895H354.873L359.53 536.092C359.592 536.201 359.655 536.333 359.717 536.489C359.78 536.63 359.842 536.778 359.904 536.934C359.982 537.09 360.045 537.238 360.092 537.379H360.185C360.232 537.269 360.279 537.145 360.326 537.004C360.388 536.848 360.443 536.7 360.489 536.56C360.552 536.404 360.606 536.271 360.653 536.162L364.678 526.895H366.901L361.566 538.853ZM381.949 543.603H379.842V535.811H371.278V543.603H369.172V526.895H371.278V533.962H379.842V526.895H381.949V543.603ZM386.517 543.603V526.895H388.623V533.962H391.197C392.757 533.962 393.981 534.173 394.871 534.594C395.776 535.015 396.415 535.585 396.79 536.302C397.18 537.02 397.375 537.823 397.375 538.713C397.375 539.695 397.164 540.553 396.743 541.287C396.337 542.02 395.698 542.589 394.824 542.995C393.95 543.4 392.827 543.603 391.454 543.603H386.517ZM391.267 541.825C392.609 541.825 393.599 541.567 394.239 541.053C394.879 540.538 395.198 539.758 395.198 538.713C395.198 537.995 395.042 537.425 394.73 537.004C394.434 536.583 393.974 536.279 393.35 536.092C392.726 535.904 391.93 535.811 390.963 535.811H388.623V541.825H391.267ZM399.949 543.603V526.895H402.055V543.603H399.949Z" fill="#FFF1DE"/>
<path d="M434.111 528.51C433.221 528.51 432.418 528.666 431.7 528.978C430.983 529.274 430.374 529.719 429.875 530.312C429.376 530.889 428.994 531.599 428.729 532.441C428.463 533.268 428.331 534.204 428.331 535.249C428.331 536.622 428.541 537.815 428.963 538.83C429.399 539.844 430.039 540.624 430.881 541.17C431.739 541.716 432.808 541.989 434.087 541.989C434.821 541.989 435.515 541.926 436.17 541.801C436.825 541.677 437.465 541.521 438.089 541.333V543.159C437.465 543.393 436.817 543.564 436.147 543.673C435.491 543.783 434.704 543.837 433.783 543.837C432.083 543.837 430.663 543.486 429.524 542.784C428.385 542.082 427.527 541.084 426.95 539.789C426.388 538.494 426.108 536.973 426.108 535.226C426.108 533.962 426.279 532.808 426.622 531.762C426.981 530.717 427.496 529.812 428.167 529.048C428.853 528.284 429.696 527.699 430.694 527.293C431.693 526.872 432.839 526.661 434.134 526.661C434.992 526.661 435.819 526.747 436.615 526.919C437.41 527.09 438.12 527.332 438.744 527.644L437.902 529.422C437.387 529.188 436.81 528.978 436.17 528.791C435.546 528.603 434.86 528.51 434.111 528.51ZM441.736 543.603V526.895H454.278V543.603H452.196V528.744H443.842V543.603H441.736ZM469.335 543.603L467.323 538.432H460.701L458.711 543.603H456.582L463.111 526.825H465.006L471.512 543.603H469.335ZM464.819 531.505C464.772 531.38 464.694 531.154 464.585 530.826C464.476 530.499 464.367 530.163 464.257 529.82C464.164 529.461 464.086 529.188 464.023 529.001C463.945 529.313 463.86 529.633 463.766 529.961C463.688 530.273 463.602 530.561 463.509 530.826C463.431 531.092 463.36 531.318 463.298 531.505L461.403 536.56H466.691L464.819 531.505Z" fill="#FFF1DE"/>
<path d="M496.088 542.539V525.831H506.01V527.68H498.194V532.898H500.675C502.344 532.898 503.639 533.109 504.559 533.53C505.48 533.935 506.119 534.497 506.478 535.215C506.837 535.917 507.016 536.728 507.016 537.648C507.016 538.662 506.813 539.536 506.408 540.269C506.018 541.002 505.378 541.564 504.489 541.954C503.6 542.344 502.43 542.539 500.979 542.539H496.088ZM500.768 540.737C502.266 540.737 503.319 540.488 503.927 539.988C504.536 539.474 504.84 538.694 504.84 537.648C504.84 536.931 504.692 536.361 504.395 535.94C504.114 535.503 503.646 535.191 502.991 535.004C502.352 534.817 501.494 534.723 500.417 534.723H498.194V540.737H500.768ZM520.968 542.539L518.956 537.367H512.334L510.345 542.539H508.215L514.744 525.761H516.639L523.145 542.539H520.968ZM516.452 530.441C516.405 530.316 516.327 530.09 516.218 529.762C516.109 529.435 516 529.099 515.891 528.756C515.797 528.397 515.719 528.124 515.657 527.937C515.579 528.249 515.493 528.569 515.399 528.896C515.321 529.208 515.235 529.497 515.142 529.762C515.064 530.027 514.993 530.254 514.931 530.441L513.036 535.495H518.324L516.452 530.441ZM538.207 542.539H536.101V534.747H527.536V542.539H525.43V525.831H527.536V532.898H536.101V525.831H538.207V542.539ZM542.799 525.831H544.764V535.004C544.764 535.394 544.757 535.823 544.741 536.291C544.741 536.743 544.733 537.196 544.718 537.648C544.702 538.101 544.679 538.506 544.647 538.865C544.632 539.208 544.616 539.474 544.601 539.661H544.694L553.891 525.831H556.231V542.539H554.265V533.46C554.265 533.038 554.273 532.586 554.288 532.102C554.304 531.603 554.32 531.127 554.335 530.675C554.366 530.207 554.39 529.793 554.405 529.435C554.421 529.076 554.437 528.811 554.452 528.639H554.359L545.139 542.539H542.799V525.831Z" fill="#FFF1DE"/>
<path d="M312.464 537.621C313.933 537.621 315.123 536.431 315.123 534.962C315.123 533.493 313.933 532.303 312.464 532.303C310.995 532.303 309.805 533.493 309.805 534.962C309.805 536.431 310.995 537.621 312.464 537.621Z" fill="#D7B668"/>
<path d="M413.511 537.621C414.98 537.621 416.17 536.431 416.17 534.962C416.17 533.493 414.98 532.303 413.511 532.303C412.042 532.303 410.852 533.493 410.852 534.962C410.852 536.431 412.042 537.621 413.511 537.621Z" fill="#D9BA6E"/>
<path d="M483.713 537.621C485.182 537.621 486.372 536.431 486.372 534.962C486.372 533.493 485.182 532.303 483.713 532.303C482.244 532.303 481.054 533.493 481.054 534.962C481.054 536.431 482.244 537.621 483.713 537.621Z" fill="#DAB96C"/>
<path d="M251.799 223.262C206.864 237.221 107.914 303.198 59.9521 319.185C90.5942 320.454 113.357 329.843 161.204 293.872C208.967 257.965 251.799 244.578 290.434 244.578C375.7 244.578 373.035 255.236 472.955 299.201C552.891 334.373 650.147 347.1 664.802 351.096C710.099 373.745 758.061 378.249 776.712 372.476C754.064 371.588 704.237 366.614 686.118 353.824C667.999 341.034 664.751 341.478 655.476 340.501C630.163 337.837 583.534 319.667 562.217 312.524C526.246 300.47 454.748 265.87 420.997 247.243C470.291 265.894 482.225 271.567 558.22 304.53C619.505 331.112 690.115 336.06 719.425 332.508C564.882 323.182 518.252 263.23 454.303 233.92C390.355 204.61 307.754 205.879 251.799 223.262Z" fill="url(#paint19_linear_15_511)"/>
<path d="M171.863 305.862C120.703 342.1 35.9712 337.837 0 331.175C18.1188 346.097 64.393 350.715 85.2652 351.16C107.026 351.604 158.83 344.308 197.176 319.185C235.811 293.872 271.783 285.815 307.754 283.214C370.371 287.148 387.194 306.249 436.488 323.569C475.924 337.424 531.575 343.166 552.396 347.55C559.553 349.056 635.492 376.473 675.46 368.479C623.502 371.08 595.162 343.664 558.22 337.837C515.588 331.112 479.617 323.569 463.629 312.524C418.332 287.148 353.051 259.17 319.744 257.901C291.284 256.816 235.811 260.565 171.863 305.862Z" fill="url(#paint20_linear_15_511)"/>
<path d="M182.521 345.83C134.559 373.542 39.968 375.14 0 372.476C24.869 380.025 86.331 393.259 133.227 385.798C191.847 376.473 231.815 349.827 237.144 347.163C242.473 344.498 286.869 323.146 330.403 329.843C365.042 335.172 390.246 358.64 447.642 365.814C468.958 368.479 534.543 367.38 542.233 368.479C558.933 370.865 574.621 379.025 586.312 384.638C589.729 386.278 593.494 387.007 597.282 386.891L632.827 385.798C614.176 381.739 594.192 380.406 586.198 376.473C570.211 364.419 544.486 353.039 504.93 353.824C440.981 355.093 381.848 323.393 339.728 308.527C294.431 292.54 242.473 311.191 182.521 345.83Z" fill="url(#paint21_linear_15_511)"/>
<path d="M270.45 355.156C224.62 378.604 174.083 393.347 154.543 397.788C179.056 397.788 194.511 393.729 254.463 375.077C271.782 368.416 291.766 368.617 305.089 369.748C338.396 372.576 361.636 394.919 387.69 401.785C407.674 407.052 427.658 411.048 456.968 404.387L546.23 384.466C487.61 387.663 440.98 388.4 409.006 376.409C354.383 352.428 316.28 331.708 270.45 355.156Z" fill="url(#paint22_linear_15_511)"/>
</g>
<defs>
<filter id="filter0_d_15_511" x="114.214" y="431.146" width="512.711" height="80.756" filterUnits="userSpaceOnUse" color-interpolation-filters="sRGB">
<feFlood flood-opacity="0" result="BackgroundImageFix"/>
<feColorMatrix in="SourceAlpha" type="matrix" values="0 0 0 0 0 0 0 0 0 0 0 0 0 0 0 0 0 0 127 0" result="hardAlpha"/>
<feOffset dx="2.23081" dy="8.92325"/>
<feGaussianBlur stdDeviation="6.13474"/>
<feComposite in2="hardAlpha" operator="out"/>
<feColorMatrix type="matrix" values="0 0 0 0 0 0 0 0 0 0.203172 0 0 0 0 0.4125 0 0 0 0.88 0"/>
<feBlend mode="normal" in2="BackgroundImageFix" result="effect1_dropShadow_15_511"/>
<feBlend mode="normal" in="SourceGraphic" in2="effect1_dropShadow_15_511" result="shape"/>
</filter>
<linearGradient id="paint0_linear_15_511" x1="65.334" y1="-7.65623e-08" x2="215.487" y2="169.639" gradientUnits="userSpaceOnUse">
<stop stop-color="#EEC163"/>
<stop offset="0.244792" stop-color="#F1C05D"/>
<stop offset="0.5625" stop-color="#F1BF5A"/>
<stop offset="1" stop-color="#D9A655"/>
</linearGradient>
<linearGradient id="paint1_linear_15_511" x1="625.83" y1="43.556" x2="464.215" y2="168.493" gradientUnits="userSpaceOnUse">
<stop stop-color="#E6900D"/>
<stop offset="0.239583" stop-color="#EFA016"/>
<stop offset="0.640625" stop-color="#F3AF2B"/>
<stop offset="1" stop-color="#F6BF52"/>
</linearGradient>
<linearGradient id="paint2_linear_15_511" x1="107.744" y1="41.2635" x2="209.756" y2="177.662" gradientUnits="userSpaceOnUse">
<stop stop-color="#EEC25E"/>
<stop offset="0.213542" stop-color="#F4C15A"/>
<stop offset="0.572917" stop-color="#F2C55A"/>
<stop offset="0.969729" stop-color="#F1BB59"/>
</linearGradient>
<linearGradient id="paint3_linear_15_511" x1="48.1409" y1="583.421" x2="217.78" y2="583.421" gradientUnits="userSpaceOnUse">
<stop stop-color="#CF850D"/>
<stop offset="0.140625" stop-color="#D58606"/>
<stop offset="0.421875" stop-color="#E09810"/>
<stop offset="0.755208" stop-color="#EAAE3B"/>
</linearGradient>
<linearGradient id="paint4_linear_15_511" x1="95.1355" y1="607.491" x2="224.657" y2="522.671" gradientUnits="userSpaceOnUse">
<stop stop-color="#C07709"/>
<stop offset="0.265625" stop-color="#C16E02"/>
<stop offset="0.671875" stop-color="#E99A18"/>
<stop offset="1" stop-color="#BE6806"/>
</linearGradient>
<linearGradient id="paint5_linear_15_511" x1="604.052" y1="607.491" x2="604.052" y2="437.852" gradientUnits="userSpaceOnUse">
<stop stop-color="#0FADDF"/>
<stop offset="1" stop-color="#0485C9"/>
</linearGradient>
<linearGradient id="paint6_linear_15_511" x1="48.1409" y1="281.968" x2="66.4802" y2="281.968" gradientUnits="userSpaceOnUse">
<stop stop-color="#0FADDF"/>
<stop offset="1" stop-color="#0485C9"/>
</linearGradient>
<linearGradient id="paint7_linear_15_511" x1="637.292" y1="259.043" x2="655.632" y2="259.043" gradientUnits="userSpaceOnUse">
<stop stop-color="#0FADDF"/>
<stop offset="1" stop-color="#0485C9"/>
</linearGradient>
<linearGradient id="paint8_linear_15_511" x1="664.802" y1="378.249" x2="683.141" y2="378.249" gradientUnits="userSpaceOnUse">
<stop stop-color="#0FADDF"/>
<stop offset="1" stop-color="#0485C9"/>
</linearGradient>
<linearGradient id="paint9_linear_15_511" x1="664.802" y1="590.298" x2="683.141" y2="590.298" gradientUnits="userSpaceOnUse">
<stop stop-color="#0FADDF"/>
<stop offset="1" stop-color="#0485C9"/>
</linearGradient>
<linearGradient id="paint10_linear_15_511" x1="75.6499" y1="255.605" x2="93.9893" y2="255.605" gradientUnits="userSpaceOnUse">
<stop stop-color="#0FADDF"/>
<stop offset="1" stop-color="#0485C9"/>
</linearGradient>
<linearGradient id="paint11_linear_15_511" x1="267.067" y1="27.509" x2="267.067" y2="45.8484" gradientUnits="userSpaceOnUse">
<stop stop-color="#0FADDF"/>
<stop offset="1" stop-color="#0485C9"/>
</linearGradient>
<linearGradient id="paint12_linear_15_511" x1="260.5" y1="617" x2="260.5" y2="635.339" gradientUnits="userSpaceOnUse">
<stop stop-color="#0FADDF"/>
<stop offset="1" stop-color="#0485C9"/>
</linearGradient>
<linearGradient id="paint13_linear_15_511" x1="75.6499" y1="326.67" x2="93.9893" y2="326.67" gradientUnits="userSpaceOnUse">
<stop stop-color="#0FADDF"/>
<stop offset="1" stop-color="#0485C9"/>
</linearGradient>
<linearGradient id="paint14_linear_15_511" x1="315.207" y1="625.83" x2="545.596" y2="635" gradientUnits="userSpaceOnUse">
<stop stop-color="#E8961A"/>
<stop offset="1" stop-color="#EA9D1A"/>
</linearGradient>
<linearGradient id="paint15_linear_15_511" x1="607.491" y1="0" x2="607.491" y2="265.921" gradientUnits="userSpaceOnUse">
<stop stop-color="#F3B547"/>
<stop offset="0.375" stop-color="#E5A22D"/>
<stop offset="0.602027" stop-color="#CF8207"/>
<stop offset="1" stop-color="#9E5D09"/>
</linearGradient>
<linearGradient id="paint16_linear_15_511" x1="145" y1="28" x2="145" y2="293.921" gradientUnits="userSpaceOnUse">
<stop stop-color="#F3B547"/>
<stop offset="0.375" stop-color="#E5A22D"/>
<stop offset="0.602027" stop-color="#CF8207"/>
<stop offset="1" stop-color="#9E5D09"/>
</linearGradient>
<linearGradient id="paint17_linear_15_511" x1="233.966" y1="21.2945" x2="544.151" y2="329.271" gradientUnits="userSpaceOnUse">
<stop stop-color="#1499C8"/>
<stop offset="0.0853791" stop-color="#1D8FBC"/>
<stop offset="0.218009" stop-color="#146890"/>
<stop offset="0.505117" stop-color="#135376"/>
<stop offset="0.655837" stop-color="#074869"/>
<stop offset="0.767522" stop-color="#013C64"/>
<stop offset="1" stop-color="#175992"/>
</linearGradient>
<linearGradient id="paint18_linear_15_511" x1="53.8717" y1="410.76" x2="726.362" y2="514.811" gradientUnits="userSpaceOnUse">
<stop stop-color="#10587C"/>
<stop offset="0.395833" stop-color="#043B6F"/>
<stop offset="0.723958" stop-color="#003251"/>
<stop offset="1" stop-color="#004F88"/>
</linearGradient>
<linearGradient id="paint19_linear_15_511" x1="9.32587" y1="344.435" x2="659.473" y2="356.425" gradientUnits="userSpaceOnUse">
<stop offset="0.0158908" stop-color="#AA782D"/>
<stop offset="0.13175" stop-color="#BC831C"/>
<stop offset="0.188966" stop-color="#C38420"/>
<stop offset="0.250384" stop-color="#D59528"/>
<stop offset="0.33417" stop-color="#F1B432"/>
<stop offset="0.412425" stop-color="#F9C85E"/>
<stop offset="0.457434" stop-color="#F8DC7E"/>
<stop offset="0.493883" stop-color="#F7D25C"/>
<stop offset="0.534875" stop-color="#F8C23D"/>
<stop offset="0.710402" stop-color="#AF670F"/>
<stop offset="0.89512" stop-color="#BC832F"/>
<stop offset="0.954513" stop-color="#C28015"/>
<stop offset="1" stop-color="#F8B029"/>
</linearGradient>
<linearGradient id="paint20_linear_15_511" x1="9.32588" y1="344.435" x2="659.473" y2="356.425" gradientUnits="userSpaceOnUse">
<stop offset="0.0158908" stop-color="#AA782D"/>
<stop offset="0.13175" stop-color="#BC831C"/>
<stop offset="0.188966" stop-color="#C38420"/>
<stop offset="0.250384" stop-color="#D59528"/>
<stop offset="0.33417" stop-color="#F1B432"/>
<stop offset="0.412425" stop-color="#F9C85E"/>
<stop offset="0.457434" stop-color="#F8DC7E"/>
<stop offset="0.493883" stop-color="#F7D25C"/>
<stop offset="0.534875" stop-color="#F8C23D"/>
<stop offset="0.710402" stop-color="#AF670F"/>
<stop offset="0.89512" stop-color="#BC832F"/>
<stop offset="0.954513" stop-color="#C28015"/>
<stop offset="1" stop-color="#F8B029"/>
</linearGradient>
<linearGradient id="paint21_linear_15_511" x1="9.32588" y1="344.435" x2="659.473" y2="356.425" gradientUnits="userSpaceOnUse">
<stop offset="0.0158908" stop-color="#AA782D"/>
<stop offset="0.13175" stop-color="#BC831C"/>
<stop offset="0.188966" stop-color="#C38420"/>
<stop offset="0.250384" stop-color="#D59528"/>
<stop offset="0.33417" stop-color="#F1B432"/>
<stop offset="0.412425" stop-color="#F9C85E"/>
<stop offset="0.457434" stop-color="#F8DC7E"/>
<stop offset="0.493883" stop-color="#F7D25C"/>
<stop offset="0.534875" stop-color="#F8C23D"/>
<stop offset="0.710402" stop-color="#AF670F"/>
<stop offset="0.89512" stop-color="#BC832F"/>
<stop offset="0.954513" stop-color="#C28015"/>
<stop offset="1" stop-color="#F8B029"/>
</linearGradient>
<linearGradient id="paint22_linear_15_511" x1="174.527" y1="397.726" x2="490.274" y2="395.061" gradientUnits="userSpaceOnUse">
<stop stop-color="#DDB846"/>
<stop offset="0.137657" stop-color="#E5B43D"/>
<stop offset="0.268425" stop-color="#F9BD40"/>
<stop offset="0.392582" stop-color="#F3C843"/>
<stop offset="0.563264" stop-color="#FABD31"/>
<stop offset="0.789413" stop-color="#F3AC2D"/>
<stop offset="0.909099" stop-color="#E2A332"/>
<stop offset="1" stop-color="#C59A2E"/>
</linearGradient>
<clipPath id="clip0_15_511">
<rect width="777" height="636" fill="white"/>
</clipPath>
</defs>
</svg>
