<svg width="145" height="68" viewBox="0 0 145 68" fill="none" xmlns="http://www.w3.org/2000/svg">
<g clip-path="url(#clip0_76_3847)">
<path fill-rule="evenodd" clip-rule="evenodd" d="M40.8949 0H5.14258V18.1375H7.1016V1.96082H40.8949V0Z" fill="url(#paint0_linear_76_3847)"/>
<path fill-rule="evenodd" clip-rule="evenodd" d="M34.2832 2.94122H70.0355V21.0787H68.0764V4.90204H34.2832V2.94122Z" fill="url(#paint1_linear_76_3847)"/>
<path fill-rule="evenodd" clip-rule="evenodd" d="M10.0391 6.86328H8.08008V21.0792H10.0391V6.86328Z" fill="url(#paint2_linear_76_3847)"/>
<path fill-rule="evenodd" clip-rule="evenodd" d="M5.14258 56.8635V67.8931H23.2636V65.9323H7.1016V56.8635H5.14258Z" fill="url(#paint3_linear_76_3847)"/>
<path fill-rule="evenodd" clip-rule="evenodd" d="M8.08008 53.9219V64.9515H33.3026V62.9907H10.0391V53.9219H8.08008Z" fill="url(#paint4_linear_76_3847)"/>
<path fill-rule="evenodd" clip-rule="evenodd" d="M59.0156 64.9519H70.0352V46.8144H68.0761V62.9911H59.0156V64.9519Z" fill="url(#paint5_linear_76_3847)"/>
<path fill-rule="evenodd" clip-rule="evenodd" d="M5.14258 19.3633V40.9322H7.1016V39.7503V19.3633H5.14258Z" fill="url(#paint6_linear_76_3847)"/>
<path fill-rule="evenodd" clip-rule="evenodd" d="M68.0762 22.5488V32.8431H70.0353V32.279V22.5488H68.0762Z" fill="url(#paint7_linear_76_3847)"/>
<path fill-rule="evenodd" clip-rule="evenodd" d="M71.0156 29.6582V51.227H72.9746V50.0453V29.6582H71.0156Z" fill="url(#paint8_linear_76_3847)"/>
<path fill-rule="evenodd" clip-rule="evenodd" d="M71.0156 58.334V67.8929H72.9746V67.3691V58.334H71.0156Z" fill="url(#paint9_linear_76_3847)"/>
<path fill-rule="evenodd" clip-rule="evenodd" d="M8.08008 22.5488V32.1077H10.0391V31.584V22.5488H8.08008Z" fill="url(#paint10_linear_76_3847)"/>
<path fill-rule="evenodd" clip-rule="evenodd" d="M33.3041 2.94141H23.7539V4.90222H24.2771H33.3041V2.94141Z" fill="url(#paint11_linear_76_3847)"/>
<path fill-rule="evenodd" clip-rule="evenodd" d="M30.872 65.9688H24.7832V67.9295H25.1168H30.872V65.9688Z" fill="url(#paint12_linear_76_3847)"/>
<path fill-rule="evenodd" clip-rule="evenodd" d="M8.08008 33.5781V36.2743H10.0391V36.1265V33.5781H8.08008Z" fill="url(#paint13_linear_76_3847)"/>
<path fill-rule="evenodd" clip-rule="evenodd" d="M58.2806 65.9316H32.5684V67.8924H33.9772H58.2806V65.9316Z" fill="url(#paint14_linear_76_3847)"/>
<path fill-rule="evenodd" clip-rule="evenodd" d="M56.8125 1.96082H71.0154V28.4318H72.9745V0H56.8125V1.96082Z" fill="url(#paint15_linear_76_3847)"/>
<path fill-rule="evenodd" clip-rule="evenodd" d="M9.90598 4.95496H22.8605V2.99414H8.11914V5.56018H9.90598V4.95496Z" fill="url(#paint16_linear_76_3847)"/>
<mask id="mask0_76_3847" style="mask-type:alpha" maskUnits="userSpaceOnUse" x="12" y="6" width="54" height="32">
<path d="M14.4473 6.37305H12.4883V8.33385H14.4473V6.37305Z" fill="#D9D9D9"/>
<path d="M17.1407 6.37305H15.1816V8.33385H17.1407V6.37305Z" fill="#D9D9D9"/>
<path d="M19.834 6.37305H17.875V8.33385H19.834V6.37305Z" fill="#D9D9D9"/>
<path d="M22.5274 6.37305H20.5684V8.33385H22.5274V6.37305Z" fill="#D9D9D9"/>
<path d="M25.2227 6.37305H23.2637V8.33385H25.2227V6.37305Z" fill="#D9D9D9"/>
<path d="M27.9161 6.37305H25.957V8.33385H27.9161V6.37305Z" fill="#D9D9D9"/>
<path d="M30.6094 6.37305H28.6504V8.33385H30.6094V6.37305Z" fill="#D9D9D9"/>
<path d="M33.3028 6.37305H31.3438V8.33385H33.3028V6.37305Z" fill="#D9D9D9"/>
<path d="M35.9961 6.37305H34.0371V8.33385H35.9961V6.37305Z" fill="#D9D9D9"/>
<path d="M38.6895 6.37305H36.7305V8.33385H38.6895V6.37305Z" fill="#D9D9D9"/>
<path d="M41.3848 6.37305H39.4258V8.33385H41.3848V6.37305Z" fill="#D9D9D9"/>
<path d="M44.0782 6.37305H42.1191V8.33385H44.0782V6.37305Z" fill="#D9D9D9"/>
<path d="M46.7715 6.37305H44.8125V8.33385H46.7715V6.37305Z" fill="#D9D9D9"/>
<path d="M49.4649 6.37305H47.5059V8.33385H49.4649V6.37305Z" fill="#D9D9D9"/>
<path d="M52.1582 6.37305H50.1992V8.33385H52.1582V6.37305Z" fill="#D9D9D9"/>
<path d="M54.8516 6.37305H52.8926V8.33385H54.8516V6.37305Z" fill="#D9D9D9"/>
<path d="M57.5469 6.37305H55.5879V8.33385H57.5469V6.37305Z" fill="#D9D9D9"/>
<path d="M60.2403 6.37305H58.2812V8.33385H60.2403V6.37305Z" fill="#D9D9D9"/>
<path d="M62.9336 6.37305H60.9746V8.33385H62.9336V6.37305Z" fill="#D9D9D9"/>
<path d="M65.627 6.37305H63.668V8.33385H65.627V6.37305Z" fill="#D9D9D9"/>
<path d="M14.4473 9.06836H12.4883V11.0292H14.4473V9.06836Z" fill="#D9D9D9"/>
<path d="M17.1407 9.06836H15.1816V11.0292H17.1407V9.06836Z" fill="#D9D9D9"/>
<path d="M19.834 9.06836H17.875V11.0292H19.834V9.06836Z" fill="#D9D9D9"/>
<path d="M22.5274 9.06836H20.5684V11.0292H22.5274V9.06836Z" fill="#D9D9D9"/>
<path d="M25.2227 9.06836H23.2637V11.0292H25.2227V9.06836Z" fill="#D9D9D9"/>
<path d="M27.9161 9.06836H25.957V11.0292H27.9161V9.06836Z" fill="#D9D9D9"/>
<path d="M30.6094 9.06836H28.6504V11.0292H30.6094V9.06836Z" fill="#D9D9D9"/>
<path d="M33.3028 9.06836H31.3438V11.0292H33.3028V9.06836Z" fill="#D9D9D9"/>
<path d="M35.9961 9.06836H34.0371V11.0292H35.9961V9.06836Z" fill="#D9D9D9"/>
<path d="M38.6895 9.06836H36.7305V11.0292H38.6895V9.06836Z" fill="#D9D9D9"/>
<path d="M41.3848 9.06836H39.4258V11.0292H41.3848V9.06836Z" fill="#D9D9D9"/>
<path d="M44.0782 9.06836H42.1191V11.0292H44.0782V9.06836Z" fill="#D9D9D9"/>
<path d="M46.7715 9.06836H44.8125V11.0292H46.7715V9.06836Z" fill="#D9D9D9"/>
<path d="M49.4649 9.06836H47.5059V11.0292H49.4649V9.06836Z" fill="#D9D9D9"/>
<path d="M52.1582 9.06836H50.1992V11.0292H52.1582V9.06836Z" fill="#D9D9D9"/>
<path d="M54.8516 9.06836H52.8926V11.0292H54.8516V9.06836Z" fill="#D9D9D9"/>
<path d="M57.5469 9.06836H55.5879V11.0292H57.5469V9.06836Z" fill="#D9D9D9"/>
<path d="M60.2403 9.06836H58.2812V11.0292H60.2403V9.06836Z" fill="#D9D9D9"/>
<path d="M62.9336 9.06836H60.9746V11.0292H62.9336V9.06836Z" fill="#D9D9D9"/>
<path d="M65.627 9.06836H63.668V11.0292H65.627V9.06836Z" fill="#D9D9D9"/>
<path d="M14.4473 11.7656H12.4883V13.7264H14.4473V11.7656Z" fill="#D9D9D9"/>
<path d="M17.1407 11.7656H15.1816V13.7264H17.1407V11.7656Z" fill="#D9D9D9"/>
<path d="M19.834 11.7656H17.875V13.7264H19.834V11.7656Z" fill="#D9D9D9"/>
<path d="M22.5274 11.7656H20.5684V13.7264H22.5274V11.7656Z" fill="#D9D9D9"/>
<path d="M25.2227 11.7656H23.2637V13.7264H25.2227V11.7656Z" fill="#D9D9D9"/>
<path d="M27.9161 11.7656H25.957V13.7264H27.9161V11.7656Z" fill="#D9D9D9"/>
<path d="M30.6094 11.7656H28.6504V13.7264H30.6094V11.7656Z" fill="#D9D9D9"/>
<path d="M33.3028 11.7656H31.3438V13.7264H33.3028V11.7656Z" fill="#D9D9D9"/>
<path d="M35.9961 11.7656H34.0371V13.7264H35.9961V11.7656Z" fill="#D9D9D9"/>
<path d="M38.6895 11.7656H36.7305V13.7264H38.6895V11.7656Z" fill="#D9D9D9"/>
<path d="M41.3848 11.7656H39.4258V13.7264H41.3848V11.7656Z" fill="#D9D9D9"/>
<path d="M44.0782 11.7656H42.1191V13.7264H44.0782V11.7656Z" fill="#D9D9D9"/>
<path d="M46.7715 11.7656H44.8125V13.7264H46.7715V11.7656Z" fill="#D9D9D9"/>
<path d="M49.4649 11.7656H47.5059V13.7264H49.4649V11.7656Z" fill="#D9D9D9"/>
<path d="M52.1582 11.7656H50.1992V13.7264H52.1582V11.7656Z" fill="#D9D9D9"/>
<path d="M54.8516 11.7656H52.8926V13.7264H54.8516V11.7656Z" fill="#D9D9D9"/>
<path d="M57.5469 11.7656H55.5879V13.7264H57.5469V11.7656Z" fill="#D9D9D9"/>
<path d="M60.2403 11.7656H58.2812V13.7264H60.2403V11.7656Z" fill="#D9D9D9"/>
<path d="M62.9336 11.7656H60.9746V13.7264H62.9336V11.7656Z" fill="#D9D9D9"/>
<path d="M65.627 11.7656H63.668V13.7264H65.627V11.7656Z" fill="#D9D9D9"/>
<path d="M14.4473 14.4609H12.4883V16.4217H14.4473V14.4609Z" fill="#D9D9D9"/>
<path d="M17.1407 14.4609H15.1816V16.4217H17.1407V14.4609Z" fill="#D9D9D9"/>
<path d="M19.834 14.4609H17.875V16.4217H19.834V14.4609Z" fill="#D9D9D9"/>
<path d="M22.5274 14.4609H20.5684V16.4217H22.5274V14.4609Z" fill="#D9D9D9"/>
<path d="M25.2227 14.4609H23.2637V16.4217H25.2227V14.4609Z" fill="#D9D9D9"/>
<path d="M27.9161 14.4609H25.957V16.4217H27.9161V14.4609Z" fill="#D9D9D9"/>
<path d="M30.6094 14.4609H28.6504V16.4217H30.6094V14.4609Z" fill="#D9D9D9"/>
<path d="M33.3028 14.4609H31.3438V16.4217H33.3028V14.4609Z" fill="#D9D9D9"/>
<path d="M35.9961 14.4609H34.0371V16.4217H35.9961V14.4609Z" fill="#D9D9D9"/>
<path d="M38.6895 14.4609H36.7305V16.4217H38.6895V14.4609Z" fill="#D9D9D9"/>
<path d="M41.3848 14.4609H39.4258V16.4217H41.3848V14.4609Z" fill="#D9D9D9"/>
<path d="M44.0782 14.4609H42.1191V16.4217H44.0782V14.4609Z" fill="#D9D9D9"/>
<path d="M46.7715 14.4609H44.8125V16.4217H46.7715V14.4609Z" fill="#D9D9D9"/>
<path d="M49.4649 14.4609H47.5059V16.4217H49.4649V14.4609Z" fill="#D9D9D9"/>
<path d="M52.1582 14.4609H50.1992V16.4217H52.1582V14.4609Z" fill="#D9D9D9"/>
<path d="M54.8516 14.4609H52.8926V16.4217H54.8516V14.4609Z" fill="#D9D9D9"/>
<path d="M57.5469 14.4609H55.5879V16.4217H57.5469V14.4609Z" fill="#D9D9D9"/>
<path d="M60.2403 14.4609H58.2812V16.4217H60.2403V14.4609Z" fill="#D9D9D9"/>
<path d="M62.9336 14.4609H60.9746V16.4217H62.9336V14.4609Z" fill="#D9D9D9"/>
<path d="M65.627 14.4609H63.668V16.4217H65.627V14.4609Z" fill="#D9D9D9"/>
<path d="M14.4473 17.1582H12.4883V19.119H14.4473V17.1582Z" fill="#D9D9D9"/>
<path d="M17.1407 17.1582H15.1816V19.119H17.1407V17.1582Z" fill="#D9D9D9"/>
<path d="M19.834 17.1582H17.875V19.119H19.834V17.1582Z" fill="#D9D9D9"/>
<path d="M22.5274 17.1582H20.5684V19.119H22.5274V17.1582Z" fill="#D9D9D9"/>
<path d="M25.2227 17.1582H23.2637V19.119H25.2227V17.1582Z" fill="#D9D9D9"/>
<path d="M27.9161 17.1582H25.957V19.119H27.9161V17.1582Z" fill="#D9D9D9"/>
<path d="M30.6094 17.1582H28.6504V19.119H30.6094V17.1582Z" fill="#D9D9D9"/>
<path d="M33.3028 17.1582H31.3438V19.119H33.3028V17.1582Z" fill="#D9D9D9"/>
<path d="M35.9961 17.1582H34.0371V19.119H35.9961V17.1582Z" fill="#D9D9D9"/>
<path d="M38.6895 17.1582H36.7305V19.119H38.6895V17.1582Z" fill="#D9D9D9"/>
<path d="M41.3848 17.1582H39.4258V19.119H41.3848V17.1582Z" fill="#D9D9D9"/>
<path d="M44.0782 17.1582H42.1191V19.119H44.0782V17.1582Z" fill="#D9D9D9"/>
<path d="M46.7715 17.1582H44.8125V19.119H46.7715V17.1582Z" fill="#D9D9D9"/>
<path d="M49.4649 17.1582H47.5059V19.119H49.4649V17.1582Z" fill="#D9D9D9"/>
<path d="M52.1582 17.1582H50.1992V19.119H52.1582V17.1582Z" fill="#D9D9D9"/>
<path d="M54.8516 17.1582H52.8926V19.119H54.8516V17.1582Z" fill="#D9D9D9"/>
<path d="M57.5469 17.1582H55.5879V19.119H57.5469V17.1582Z" fill="#D9D9D9"/>
<path d="M60.2403 17.1582H58.2812V19.119H60.2403V17.1582Z" fill="#D9D9D9"/>
<path d="M62.9336 17.1582H60.9746V19.119H62.9336V17.1582Z" fill="#D9D9D9"/>
<path d="M65.627 17.1582H63.668V19.119H65.627V17.1582Z" fill="#D9D9D9"/>
<path d="M14.4473 19.8536H12.4883V21.8144H14.4473V19.8536Z" fill="#D9D9D9"/>
<path d="M17.1407 19.8535H15.1816V21.8143H17.1407V19.8535Z" fill="#D9D9D9"/>
<path d="M19.834 19.8535H17.875V21.8143H19.834V19.8535Z" fill="#D9D9D9"/>
<path d="M22.5274 19.8535H20.5684V21.8143H22.5274V19.8535Z" fill="#D9D9D9"/>
<path d="M25.2227 19.8535H23.2637V21.8143H25.2227V19.8535Z" fill="#D9D9D9"/>
<path d="M27.9161 19.8535H25.957V21.8143H27.9161V19.8535Z" fill="#D9D9D9"/>
<path d="M30.6094 19.8536H28.6504V21.8144H30.6094V19.8536Z" fill="#D9D9D9"/>
<path d="M33.3028 19.8535H31.3438V21.8143H33.3028V19.8535Z" fill="#D9D9D9"/>
<path d="M35.9961 19.8535H34.0371V21.8143H35.9961V19.8535Z" fill="#D9D9D9"/>
<path d="M38.6895 19.8535H36.7305V21.8143H38.6895V19.8535Z" fill="#D9D9D9"/>
<path d="M41.3848 19.8535H39.4258V21.8143H41.3848V19.8535Z" fill="#D9D9D9"/>
<path d="M44.0782 19.8535H42.1191V21.8143H44.0782V19.8535Z" fill="#D9D9D9"/>
<path d="M46.7715 19.8536H44.8125V21.8144H46.7715V19.8536Z" fill="#D9D9D9"/>
<path d="M49.4649 19.8536H47.5059V21.8144H49.4649V19.8536Z" fill="#D9D9D9"/>
<path d="M52.1582 19.8535H50.1992V21.8143H52.1582V19.8535Z" fill="#D9D9D9"/>
<path d="M54.8516 19.8535H52.8926V21.8143H54.8516V19.8535Z" fill="#D9D9D9"/>
<path d="M57.5469 19.8535H55.5879V21.8143H57.5469V19.8535Z" fill="#D9D9D9"/>
<path d="M60.2403 19.8535H58.2812V21.8143H60.2403V19.8535Z" fill="#D9D9D9"/>
<path d="M62.9336 19.8535H60.9746V21.8143H62.9336V19.8535Z" fill="#D9D9D9"/>
<path d="M65.627 19.8536H63.668V21.8144H65.627V19.8536Z" fill="#D9D9D9"/>
<path d="M14.4473 22.5488H12.4883V24.5096H14.4473V22.5488Z" fill="#D9D9D9"/>
<path d="M17.1407 22.5488H15.1816V24.5096H17.1407V22.5488Z" fill="#D9D9D9"/>
<path d="M19.834 22.5488H17.875V24.5096H19.834V22.5488Z" fill="#D9D9D9"/>
<path d="M22.5274 22.5488H20.5684V24.5096H22.5274V22.5488Z" fill="#D9D9D9"/>
<path d="M25.2227 22.5488H23.2637V24.5096H25.2227V22.5488Z" fill="#D9D9D9"/>
<path d="M27.9161 22.5488H25.957V24.5096H27.9161V22.5488Z" fill="#D9D9D9"/>
<path d="M30.6094 22.5488H28.6504V24.5096H30.6094V22.5488Z" fill="#D9D9D9"/>
<path d="M33.3028 22.5488H31.3438V24.5096H33.3028V22.5488Z" fill="#D9D9D9"/>
<path d="M35.9961 22.5488H34.0371V24.5096H35.9961V22.5488Z" fill="#D9D9D9"/>
<path d="M38.6895 22.5488H36.7305V24.5096H38.6895V22.5488Z" fill="#D9D9D9"/>
<path d="M41.3848 22.5488H39.4258V24.5096H41.3848V22.5488Z" fill="#D9D9D9"/>
<path d="M44.0782 22.5488H42.1191V24.5096H44.0782V22.5488Z" fill="#D9D9D9"/>
<path d="M46.7715 22.5488H44.8125V24.5096H46.7715V22.5488Z" fill="#D9D9D9"/>
<path d="M49.4649 22.5488H47.5059V24.5096H49.4649V22.5488Z" fill="#D9D9D9"/>
<path d="M52.1582 22.5488H50.1992V24.5096H52.1582V22.5488Z" fill="#D9D9D9"/>
<path d="M54.8516 22.5488H52.8926V24.5096H54.8516V22.5488Z" fill="#D9D9D9"/>
<path d="M57.5469 22.5488H55.5879V24.5096H57.5469V22.5488Z" fill="#D9D9D9"/>
<path d="M60.2403 22.5488H58.2812V24.5096H60.2403V22.5488Z" fill="#D9D9D9"/>
<path d="M62.9336 22.5488H60.9746V24.5096H62.9336V22.5488Z" fill="#D9D9D9"/>
<path d="M65.627 22.5488H63.668V24.5096H65.627V22.5488Z" fill="#D9D9D9"/>
<path d="M14.4473 25.2461H12.4883V27.2069H14.4473V25.2461Z" fill="#D9D9D9"/>
<path d="M17.1407 25.2461H15.1816V27.2069H17.1407V25.2461Z" fill="#D9D9D9"/>
<path d="M19.834 25.2461H17.875V27.2069H19.834V25.2461Z" fill="#D9D9D9"/>
<path d="M22.5274 25.2461H20.5684V27.2069H22.5274V25.2461Z" fill="#D9D9D9"/>
<path d="M25.2227 25.2461H23.2637V27.2069H25.2227V25.2461Z" fill="#D9D9D9"/>
<path d="M27.9161 25.2461H25.957V27.2069H27.9161V25.2461Z" fill="#D9D9D9"/>
<path d="M30.6094 25.2461H28.6504V27.2069H30.6094V25.2461Z" fill="#D9D9D9"/>
<path d="M33.3028 25.2461H31.3438V27.2069H33.3028V25.2461Z" fill="#D9D9D9"/>
<path d="M35.9961 25.2461H34.0371V27.2069H35.9961V25.2461Z" fill="#D9D9D9"/>
<path d="M38.6895 25.2461H36.7305V27.2069H38.6895V25.2461Z" fill="#D9D9D9"/>
<path d="M41.3848 25.2461H39.4258V27.2069H41.3848V25.2461Z" fill="#D9D9D9"/>
<path d="M44.0782 25.2461H42.1191V27.2069H44.0782V25.2461Z" fill="#D9D9D9"/>
<path d="M46.7715 25.2461H44.8125V27.2069H46.7715V25.2461Z" fill="#D9D9D9"/>
<path d="M49.4649 25.2461H47.5059V27.2069H49.4649V25.2461Z" fill="#D9D9D9"/>
<path d="M52.1582 25.2461H50.1992V27.2069H52.1582V25.2461Z" fill="#D9D9D9"/>
<path d="M54.8516 25.2461H52.8926V27.2069H54.8516V25.2461Z" fill="#D9D9D9"/>
<path d="M57.5469 25.2461H55.5879V27.2069H57.5469V25.2461Z" fill="#D9D9D9"/>
<path d="M60.2403 25.2461H58.2812V27.2069H60.2403V25.2461Z" fill="#D9D9D9"/>
<path d="M62.9336 25.2461H60.9746V27.2069H62.9336V25.2461Z" fill="#D9D9D9"/>
<path d="M65.627 25.2461H63.668V27.2069H65.627V25.2461Z" fill="#D9D9D9"/>
<g opacity="0.5">
<path d="M14.4473 27.6973H12.4883V29.6581H14.4473V27.6973Z" fill="#D9D9D9"/>
<path d="M17.1407 27.6973H15.1816V29.6581H17.1407V27.6973Z" fill="#D9D9D9"/>
<path d="M19.834 27.6973H17.875V29.6581H19.834V27.6973Z" fill="#D9D9D9"/>
<path d="M22.5274 27.6973H20.5684V29.6581H22.5274V27.6973Z" fill="#D9D9D9"/>
<path d="M25.2227 27.6973H23.2637V29.6581H25.2227V27.6973Z" fill="#D9D9D9"/>
<path d="M27.9161 27.6973H25.957V29.6581H27.9161V27.6973Z" fill="#D9D9D9"/>
<path d="M30.6094 27.6973H28.6504V29.6581H30.6094V27.6973Z" fill="#D9D9D9"/>
<path d="M33.3028 27.6973H31.3438V29.6581H33.3028V27.6973Z" fill="#D9D9D9"/>
<path d="M35.9961 27.6973H34.0371V29.6581H35.9961V27.6973Z" fill="#D9D9D9"/>
<path d="M38.6895 27.6973H36.7305V29.6581H38.6895V27.6973Z" fill="#D9D9D9"/>
<path d="M41.3848 27.6973H39.4258V29.6581H41.3848V27.6973Z" fill="#D9D9D9"/>
<path d="M44.0782 27.6973H42.1191V29.6581H44.0782V27.6973Z" fill="#D9D9D9"/>
<path d="M46.7715 27.6973H44.8125V29.6581H46.7715V27.6973Z" fill="#D9D9D9"/>
<path d="M49.4649 27.6973H47.5059V29.6581H49.4649V27.6973Z" fill="#D9D9D9"/>
<path d="M52.1582 27.6973H50.1992V29.6581H52.1582V27.6973Z" fill="#D9D9D9"/>
<path d="M54.8516 27.6973H52.8926V29.6581H54.8516V27.6973Z" fill="#D9D9D9"/>
<path d="M57.5469 27.6973H55.5879V29.6581H57.5469V27.6973Z" fill="#D9D9D9"/>
<path d="M60.2403 27.6973H58.2812V29.6581H60.2403V27.6973Z" fill="#D9D9D9"/>
<path d="M62.9336 27.6973H60.9746V29.6581H62.9336V27.6973Z" fill="#D9D9D9"/>
<path d="M65.627 27.6973H63.668V29.6581H65.627V27.6973Z" fill="#D9D9D9"/>
</g>
<g opacity="0.1">
<path d="M14.4473 30.1484H12.4883V32.1092H14.4473V30.1484Z" fill="#D9D9D9"/>
<path d="M17.1407 30.1484H15.1816V32.1092H17.1407V30.1484Z" fill="#D9D9D9"/>
<path d="M19.834 30.1484H17.875V32.1092H19.834V30.1484Z" fill="#D9D9D9"/>
<path d="M22.5274 30.1484H20.5684V32.1092H22.5274V30.1484Z" fill="#D9D9D9"/>
<path d="M25.2227 30.1484H23.2637V32.1092H25.2227V30.1484Z" fill="#D9D9D9"/>
<path d="M27.9161 30.1484H25.957V32.1092H27.9161V30.1484Z" fill="#D9D9D9"/>
<path d="M30.6094 30.1484H28.6504V32.1092H30.6094V30.1484Z" fill="#D9D9D9"/>
<path d="M33.3028 30.1484H31.3438V32.1092H33.3028V30.1484Z" fill="#D9D9D9"/>
<path d="M35.9961 30.1484H34.0371V32.1092H35.9961V30.1484Z" fill="#D9D9D9"/>
<path d="M38.6895 30.1484H36.7305V32.1092H38.6895V30.1484Z" fill="#D9D9D9"/>
<path d="M41.3848 30.1484H39.4258V32.1092H41.3848V30.1484Z" fill="#D9D9D9"/>
<path d="M44.0782 30.1484H42.1191V32.1092H44.0782V30.1484Z" fill="#D9D9D9"/>
<path d="M46.7715 30.1484H44.8125V32.1092H46.7715V30.1484Z" fill="#D9D9D9"/>
<path d="M49.4649 30.1484H47.5059V32.1092H49.4649V30.1484Z" fill="#D9D9D9"/>
<path d="M52.1582 30.1484H50.1992V32.1092H52.1582V30.1484Z" fill="#D9D9D9"/>
<path d="M54.8516 30.1484H52.8926V32.1092H54.8516V30.1484Z" fill="#D9D9D9"/>
<path d="M57.5469 30.1484H55.5879V32.1092H57.5469V30.1484Z" fill="#D9D9D9"/>
<path d="M60.2403 30.1484H58.2812V32.1092H60.2403V30.1484Z" fill="#D9D9D9"/>
<path d="M62.9336 30.1484H60.9746V32.1092H62.9336V30.1484Z" fill="#D9D9D9"/>
<path d="M65.627 30.1484H63.668V32.1092H65.627V30.1484Z" fill="#D9D9D9"/>
</g>
<g opacity="0.1">
<path d="M14.4473 32.844H12.4883V34.8048H14.4473V32.844Z" fill="#D9D9D9"/>
<path d="M17.1407 32.844H15.1816V34.8048H17.1407V32.844Z" fill="#D9D9D9"/>
<path d="M19.834 32.844H17.875V34.8048H19.834V32.844Z" fill="#D9D9D9"/>
<path d="M22.5274 32.844H20.5684V34.8048H22.5274V32.844Z" fill="#D9D9D9"/>
<path d="M25.2227 32.844H23.2637V34.8048H25.2227V32.844Z" fill="#D9D9D9"/>
<path d="M27.9161 32.844H25.957V34.8048H27.9161V32.844Z" fill="#D9D9D9"/>
<path d="M30.6094 32.844H28.6504V34.8048H30.6094V32.844Z" fill="#D9D9D9"/>
<path d="M33.3028 32.844H31.3438V34.8048H33.3028V32.844Z" fill="#D9D9D9"/>
<path d="M35.9961 32.844H34.0371V34.8048H35.9961V32.844Z" fill="#D9D9D9"/>
<path d="M38.6895 32.844H36.7305V34.8048H38.6895V32.844Z" fill="#D9D9D9"/>
<path d="M41.3848 32.844H39.4258V34.8048H41.3848V32.844Z" fill="#D9D9D9"/>
<path d="M44.0782 32.844H42.1191V34.8048H44.0782V32.844Z" fill="#D9D9D9"/>
<path d="M46.7715 32.844H44.8125V34.8048H46.7715V32.844Z" fill="#D9D9D9"/>
<path d="M49.4649 32.844H47.5059V34.8048H49.4649V32.844Z" fill="#D9D9D9"/>
<path d="M52.1582 32.844H50.1992V34.8048H52.1582V32.844Z" fill="#D9D9D9"/>
<path d="M54.8516 32.844H52.8926V34.8048H54.8516V32.844Z" fill="#D9D9D9"/>
<path d="M57.5469 32.844H55.5879V34.8048H57.5469V32.844Z" fill="#D9D9D9"/>
<path d="M60.2403 32.844H58.2812V34.8048H60.2403V32.844Z" fill="#D9D9D9"/>
<path d="M62.9336 32.844H60.9746V34.8048H62.9336V32.844Z" fill="#D9D9D9"/>
<path d="M65.627 32.844H63.668V34.8048H65.627V32.844Z" fill="#D9D9D9"/>
</g>
<g opacity="0.1">
<path d="M14.4473 35.541H12.4883V37.5018H14.4473V35.541Z" fill="#D9D9D9"/>
<path d="M17.1407 35.541H15.1816V37.5018H17.1407V35.541Z" fill="#D9D9D9"/>
<path d="M19.834 35.541H17.875V37.5018H19.834V35.541Z" fill="#D9D9D9"/>
<path d="M22.5274 35.541H20.5684V37.5018H22.5274V35.541Z" fill="#D9D9D9"/>
<path d="M25.2227 35.541H23.2637V37.5018H25.2227V35.541Z" fill="#D9D9D9"/>
<path d="M27.9161 35.541H25.957V37.5018H27.9161V35.541Z" fill="#D9D9D9"/>
<path d="M30.6094 35.541H28.6504V37.5018H30.6094V35.541Z" fill="#D9D9D9"/>
<path d="M33.3028 35.541H31.3438V37.5018H33.3028V35.541Z" fill="#D9D9D9"/>
<path d="M35.9961 35.541H34.0371V37.5018H35.9961V35.541Z" fill="#D9D9D9"/>
<path d="M38.6895 35.541H36.7305V37.5018H38.6895V35.541Z" fill="#D9D9D9"/>
<path d="M41.3848 35.541H39.4258V37.5018H41.3848V35.541Z" fill="#D9D9D9"/>
<path d="M44.0782 35.541H42.1191V37.5018H44.0782V35.541Z" fill="#D9D9D9"/>
<path d="M46.7715 35.541H44.8125V37.5018H46.7715V35.541Z" fill="#D9D9D9"/>
<path d="M49.4649 35.541H47.5059V37.5018H49.4649V35.541Z" fill="#D9D9D9"/>
<path d="M52.1582 35.541H50.1992V37.5018H52.1582V35.541Z" fill="#D9D9D9"/>
<path d="M54.8516 35.541H52.8926V37.5018H54.8516V35.541Z" fill="#D9D9D9"/>
<path d="M57.5469 35.541H55.5879V37.5018H57.5469V35.541Z" fill="#D9D9D9"/>
<path d="M60.2403 35.541H58.2812V37.5018H60.2403V35.541Z" fill="#D9D9D9"/>
<path d="M62.9336 35.541H60.9746V37.5018H62.9336V35.541Z" fill="#D9D9D9"/>
<path d="M65.627 35.541H63.668V37.5018H65.627V35.541Z" fill="#D9D9D9"/>
</g>
</mask>
<g mask="url(#mask0_76_3847)">
<path d="M66.8511 4.16797H11.2637V38.7273H66.8511V4.16797Z" fill="url(#paint17_linear_76_3847)"/>
</g>
<path d="M72.2387 43.1387H6.6112C3.77111 43.1387 1.46875 45.4431 1.46875 48.2858V55.1486C1.46875 57.9913 3.77111 60.2957 6.6112 60.2957H72.2387C75.0788 60.2957 77.3812 57.9913 77.3812 55.1486V48.2858C77.3812 45.4431 75.0788 43.1387 72.2387 43.1387Z" fill="url(#paint18_linear_76_3847)"/>
<g filter="url(#filter0_d_76_3847)">
<path d="M13.2734 52.3822V46.5386H15.6754C16.1925 46.5386 16.6346 46.6221 17.0016 46.789C17.3741 46.956 17.6605 47.1953 17.8607 47.5069C18.0608 47.8186 18.1609 48.1886 18.1609 48.6172C18.1609 49.0457 18.0608 49.4159 17.8607 49.7275C17.6605 50.0392 17.3741 50.2785 17.0016 50.4455C16.6346 50.6124 16.1925 50.6959 15.6754 50.6959H13.8739L14.3577 50.1866V52.3822H13.2734ZM14.3577 50.3035L13.8739 49.7776H15.6254C16.1036 49.7776 16.4623 49.6774 16.7013 49.477C16.9459 49.2711 17.0683 48.9845 17.0683 48.6172C17.0683 48.2444 16.9459 47.9577 16.7013 47.7573C16.4623 47.557 16.1036 47.4568 15.6254 47.4568H13.8739L14.3577 46.9225V50.3035ZM22.0608 52.4657C21.6048 52.4657 21.185 52.3905 20.8013 52.2402C20.4177 52.09 20.084 51.8813 19.8005 51.6142C19.5169 51.3415 19.2973 51.0242 19.1417 50.6625C18.9859 50.2952 18.908 49.8944 18.908 49.4603C18.908 49.0262 18.9859 48.6283 19.1417 48.2666C19.2973 47.8993 19.5169 47.5821 19.8005 47.3149C20.084 47.0423 20.4177 46.8308 20.8013 46.6805C21.185 46.5302 21.6021 46.4551 22.0524 46.4551C22.5083 46.4551 22.9254 46.5302 23.3035 46.6805C23.6871 46.8308 24.0208 47.0423 24.3043 47.3149C24.5879 47.5821 24.8076 47.8993 24.9632 48.2666C25.1189 48.6283 25.1968 49.0262 25.1968 49.4603C25.1968 49.8944 25.1189 50.2952 24.9632 50.6625C24.8076 51.0298 24.5879 51.347 24.3043 51.6142C24.0208 51.8813 23.6871 52.09 23.3035 52.2402C22.9254 52.3905 22.5111 52.4657 22.0608 52.4657ZM22.0524 51.514C22.3471 51.514 22.6195 51.4639 22.8698 51.3637C23.12 51.2635 23.3368 51.1216 23.5204 50.9379C23.7039 50.7487 23.8456 50.5317 23.9457 50.2868C24.0514 50.0364 24.1041 49.7609 24.1041 49.4603C24.1041 49.1598 24.0514 48.8871 23.9457 48.6423C23.8456 48.3918 23.7039 48.1748 23.5204 47.9911C23.3368 47.8019 23.12 47.6572 22.8698 47.557C22.6195 47.4568 22.3471 47.4068 22.0524 47.4068C21.7577 47.4068 21.4853 47.4568 21.235 47.557C20.9904 47.6572 20.7736 47.8019 20.5845 47.9911C20.401 48.1748 20.2564 48.3918 20.1508 48.6423C20.0507 48.8871 20.0007 49.1598 20.0007 49.4603C20.0007 49.7553 20.0507 50.0281 20.1508 50.2785C20.2564 50.5289 20.401 50.7487 20.5845 50.9379C20.768 51.1216 20.9849 51.2635 21.235 51.3637C21.4853 51.4639 21.7577 51.514 22.0524 51.514ZM29.0817 52.4657C28.6258 52.4657 28.206 52.3905 27.8223 52.2402C27.4387 52.09 27.1051 51.8813 26.8215 51.6142C26.5378 51.3415 26.3182 51.0242 26.1626 50.6625C26.0068 50.2952 25.9291 49.8944 25.9291 49.4603C25.9291 49.0262 26.0068 48.6283 26.1626 48.2666C26.3182 47.8993 26.5378 47.5821 26.8215 47.3149C27.1051 47.0423 27.4387 46.8308 27.8223 46.6805C28.206 46.5302 28.623 46.4551 29.0733 46.4551C29.5294 46.4551 29.9463 46.5302 30.3244 46.6805C30.7081 46.8308 31.0417 47.0423 31.3252 47.3149C31.6089 47.5821 31.8285 47.8993 31.9842 48.2666C32.1399 48.6283 32.2177 49.0262 32.2177 49.4603C32.2177 49.8944 32.1399 50.2952 31.9842 50.6625C31.8285 51.0298 31.6089 51.347 31.3252 51.6142C31.0417 51.8813 30.7081 52.09 30.3244 52.2402C29.9463 52.3905 29.5321 52.4657 29.0817 52.4657ZM29.0733 51.514C29.3681 51.514 29.6406 51.4639 29.8907 51.3637C30.1409 51.2635 30.3578 51.1216 30.5413 50.9379C30.7248 50.7487 30.8666 50.5317 30.9666 50.2868C31.0723 50.0364 31.1252 49.7609 31.1252 49.4603C31.1252 49.1598 31.0723 48.8871 30.9666 48.6423C30.8666 48.3918 30.7248 48.1748 30.5413 47.9911C30.3578 47.8019 30.1409 47.6572 29.8907 47.557C29.6406 47.4568 29.3681 47.4068 29.0733 47.4068C28.7786 47.4068 28.5062 47.4568 28.2561 47.557C28.0113 47.6572 27.7945 47.8019 27.6054 47.9911C27.422 48.1748 27.2774 48.3918 27.1717 48.6423C27.0716 48.8871 27.0216 49.1598 27.0216 49.4603C27.0216 49.7553 27.0716 50.0281 27.1717 50.2785C27.2774 50.5289 27.422 50.7487 27.6054 50.9379C27.7889 51.1216 28.0058 51.2635 28.2561 51.3637C28.5062 51.4639 28.7786 51.514 29.0733 51.514ZM33.367 52.3822V46.5386H34.4513V51.4639H37.5039V52.3822H33.367ZM41.6574 49.2266H44.5682V50.1449H41.6574V49.2266ZM41.7492 52.3822H40.6648V46.5386H44.9269V47.4485H41.7492V52.3822ZM48.6459 52.4657C48.1899 52.4657 47.7701 52.3905 47.3864 52.2402C47.0028 52.09 46.6692 51.8813 46.3856 51.6142C46.102 51.3415 45.8824 51.0242 45.7268 50.6625C45.571 50.2952 45.4932 49.8944 45.4932 49.4603C45.4932 49.0262 45.571 48.6283 45.7268 48.2666C45.8824 47.8993 46.102 47.5821 46.3856 47.3149C46.6692 47.0423 47.0028 46.8308 47.3864 46.6805C47.7701 46.5302 48.1872 46.4551 48.6375 46.4551C49.0934 46.4551 49.5105 46.5302 49.8886 46.6805C50.2723 46.8308 50.6059 47.0423 50.8894 47.3149C51.173 47.5821 51.3927 47.8993 51.5484 48.2666C51.704 48.6283 51.7819 49.0262 51.7819 49.4603C51.7819 49.8944 51.704 50.2952 51.5484 50.6625C51.3927 51.0298 51.173 51.347 50.8894 51.6142C50.6059 51.8813 50.2723 52.09 49.8886 52.2402C49.5105 52.3905 49.0962 52.4657 48.6459 52.4657ZM48.6375 51.514C48.9322 51.514 49.2046 51.4639 49.4549 51.3637C49.7051 51.2635 49.9219 51.1216 50.1055 50.9379C50.289 50.7487 50.4307 50.5317 50.5308 50.2868C50.6365 50.0364 50.6892 49.7609 50.6892 49.4603C50.6892 49.1598 50.6365 48.8871 50.5308 48.6423C50.4307 48.3918 50.289 48.1748 50.1055 47.9911C49.9219 47.8019 49.7051 47.6572 49.4549 47.557C49.2046 47.4568 48.9322 47.4068 48.6375 47.4068C48.3428 47.4068 48.0704 47.4568 47.8201 47.557C47.5755 47.6572 47.3587 47.8019 47.1696 47.9911C46.9862 48.1748 46.8415 48.3918 46.7359 48.6423C46.6358 48.8871 46.5858 49.1598 46.5858 49.4603C46.5858 49.7553 46.6358 50.0281 46.7359 50.2785C46.8415 50.5289 46.9862 50.7487 47.1696 50.9379C47.3531 51.1216 47.57 51.2635 47.8201 51.3637C48.0704 51.4639 48.3428 51.514 48.6375 51.514ZM52.9312 52.3822V46.5386H55.3332C55.8503 46.5386 56.2923 46.6221 56.6594 46.789C57.0319 46.956 57.3182 47.1953 57.5184 47.5069C57.7186 47.8186 57.8187 48.1886 57.8187 48.6172C57.8187 49.0457 57.7186 49.4159 57.5184 49.7275C57.3182 50.0336 57.0319 50.2701 56.6594 50.437C56.2923 50.5985 55.8503 50.6792 55.3332 50.6792H53.5316L54.0154 50.1866V52.3822H52.9312ZM56.7511 52.3822L55.2749 50.2618H56.4342L57.9188 52.3822H56.7511ZM54.0154 50.3035L53.5316 49.7859H55.2832C55.7613 49.7859 56.12 49.6829 56.3591 49.477C56.6037 49.2711 56.726 48.9845 56.726 48.6172C56.726 48.2444 56.6037 47.9577 56.3591 47.7573C56.12 47.557 55.7613 47.4568 55.2832 47.4568H53.5316L54.0154 46.9225V50.3035ZM59.0318 52.3822V46.5386H59.9241L62.4763 50.8044H62.0093L64.5197 46.5386H65.4122L65.4205 52.3822H64.3946L64.3863 48.1497H64.6031L62.468 51.7143H61.9843L59.8157 48.1497H60.066V52.3822H59.0318Z" fill="#E7BE89"/>
</g>
<path d="M18.793 57.8927V56.1062H19.8528V56.3039H19.0179V56.8618H19.283C19.4612 56.8618 19.5996 56.8844 19.6978 56.9294C19.7962 56.9728 19.8645 57.0329 19.9028 57.1095C19.9412 57.1846 19.9603 57.2713 19.9603 57.3698C19.9603 57.4782 19.9387 57.5715 19.8954 57.65C19.8537 57.7284 19.7853 57.7885 19.6904 57.8302C19.5954 57.8719 19.4704 57.8927 19.3154 57.8927H18.793ZM19.2929 57.7001C19.4529 57.7001 19.5654 57.6733 19.6304 57.62C19.6954 57.5649 19.7279 57.4815 19.7279 57.3698C19.7279 57.293 19.7121 57.2322 19.6804 57.1872C19.6504 57.1404 19.6004 57.1071 19.5305 57.0871C19.4621 57.067 19.3704 57.057 19.2554 57.057H19.0179V57.7001H19.2929ZM21.4508 57.8927L21.2358 57.3397H20.5284L20.3159 57.8927H20.0884L20.7858 56.0987H20.9884L21.6832 57.8927H21.4508ZM20.9683 56.5991C20.9634 56.5859 20.955 56.5616 20.9433 56.5266C20.9316 56.4915 20.92 56.4557 20.9083 56.4191C20.8983 56.3807 20.89 56.3515 20.8834 56.3315C20.875 56.3649 20.8658 56.399 20.8558 56.434C20.8475 56.4674 20.8384 56.4983 20.8283 56.5266C20.82 56.555 20.8125 56.5791 20.8058 56.5991L20.6034 57.1396H21.1683L20.9683 56.5991ZM22.6923 56.2789C22.5973 56.2789 22.5115 56.2956 22.4348 56.3289C22.3581 56.3607 22.2932 56.4082 22.2399 56.4716C22.1866 56.5333 22.1457 56.6092 22.1173 56.6992C22.089 56.7876 22.0748 56.8877 22.0748 56.9995C22.0748 57.1462 22.0974 57.2739 22.1423 57.3823C22.189 57.4907 22.2574 57.5741 22.3473 57.6325C22.439 57.6909 22.5532 57.72 22.6898 57.72C22.7681 57.72 22.8422 57.7134 22.9123 57.7001C22.9823 57.6867 23.0505 57.67 23.1172 57.65V57.8451C23.0505 57.8702 22.9814 57.8885 22.9097 57.9002C22.8398 57.9119 22.7556 57.9177 22.6573 57.9177C22.4756 57.9177 22.324 57.8802 22.2024 57.8051C22.0807 57.7301 21.9891 57.6233 21.9274 57.4848C21.8674 57.3464 21.8374 57.1837 21.8374 56.997C21.8374 56.8618 21.8557 56.7384 21.8924 56.6267C21.9307 56.515 21.9857 56.4182 22.0574 56.3364C22.1307 56.2547 22.2206 56.1922 22.3274 56.1488C22.434 56.1038 22.5565 56.0812 22.6948 56.0812C22.7865 56.0812 22.8748 56.0904 22.9597 56.1088C23.0448 56.1271 23.1206 56.1529 23.1873 56.1863L23.0972 56.3765C23.0422 56.3515 22.9806 56.3289 22.9123 56.3089C22.8457 56.2889 22.7723 56.2789 22.6923 56.2789ZM24.2229 56.2789C24.1279 56.2789 24.042 56.2956 23.9654 56.3289C23.8888 56.3607 23.8237 56.4082 23.7704 56.4716C23.7171 56.5333 23.6763 56.6092 23.648 56.6992C23.6196 56.7876 23.6055 56.8877 23.6055 56.9995C23.6055 57.1462 23.6279 57.2739 23.673 57.3823C23.7196 57.4907 23.7879 57.5741 23.8779 57.6325C23.9695 57.6909 24.0837 57.72 24.2203 57.72C24.2987 57.72 24.3729 57.7134 24.4428 57.7001C24.5128 57.6867 24.5812 57.67 24.6478 57.65V57.8451C24.5812 57.8702 24.512 57.8885 24.4404 57.9002C24.3703 57.9119 24.2862 57.9177 24.1879 57.9177C24.0063 57.9177 23.8546 57.8802 23.7329 57.8051C23.6112 57.7301 23.5196 57.6233 23.458 57.4848C23.3979 57.3464 23.368 57.1837 23.368 56.997C23.368 56.8618 23.3863 56.7384 23.4229 56.6267C23.4613 56.515 23.5163 56.4182 23.588 56.3364C23.6612 56.2547 23.7513 56.1922 23.8579 56.1488C23.9646 56.1038 24.087 56.0812 24.2254 56.0812C24.317 56.0812 24.4053 56.0904 24.4904 56.1088C24.5753 56.1271 24.6511 56.1529 24.7178 56.1863L24.6279 56.3765C24.5728 56.3515 24.5112 56.3289 24.4428 56.3089C24.3762 56.2889 24.3029 56.2789 24.2229 56.2789ZM26.0347 57.8927H25.0374V56.1062H26.0347V56.3039H25.2624V56.8618H25.9897V57.057H25.2624V57.695H26.0347V57.8927ZM27.6437 55.5508C27.637 55.6342 27.6162 55.7043 27.5812 55.761C27.5479 55.8178 27.4979 55.8602 27.4313 55.8886C27.3646 55.917 27.2779 55.9311 27.1713 55.9311C27.063 55.9311 26.9755 55.917 26.9088 55.8886C26.8438 55.8602 26.7963 55.8185 26.7663 55.7635C26.7363 55.7068 26.718 55.6359 26.7113 55.5508H26.9163C26.9246 55.6409 26.9479 55.7017 26.9863 55.7335C27.0263 55.7635 27.0897 55.7785 27.1763 55.7785C27.2529 55.7785 27.3129 55.7627 27.3563 55.7309C27.4013 55.6976 27.4279 55.6376 27.4362 55.5508H27.6437ZM26.4289 56.1062H26.6389V57.0871C26.6389 57.1288 26.638 57.1747 26.6363 57.2247C26.6363 57.273 26.6355 57.3213 26.6339 57.3698C26.6321 57.4181 26.6297 57.4615 26.6264 57.4999C26.6247 57.5366 26.623 57.5649 26.6214 57.5849H26.6313L27.6137 56.1062H27.8637V57.8927H27.6537V56.9219C27.6537 56.8769 27.6545 56.8285 27.6562 56.7768C27.6578 56.7235 27.6595 56.6726 27.6611 56.6241C27.6646 56.5741 27.667 56.5299 27.6687 56.4915C27.6703 56.4532 27.672 56.4248 27.6738 56.4066H27.6637L26.6788 57.8927H26.4289V56.1062ZM29.7099 57.8927H29.4849V57.0595H28.5701V57.8927H28.345V56.1062H28.5701V56.8618H29.4849V56.1062H29.7099V57.8927ZM30.1978 57.8927V56.1062H30.4228V56.8618H30.6979C30.8645 56.8618 30.9952 56.8844 31.0902 56.9294C31.1869 56.9745 31.2553 57.0353 31.2952 57.1121C31.3369 57.1888 31.3577 57.2747 31.3577 57.3698C31.3577 57.4749 31.3353 57.5666 31.2902 57.645C31.2469 57.7234 31.1786 57.7843 31.0853 57.8276C30.9919 57.871 30.872 57.8927 30.7253 57.8927H30.1978ZM30.7053 57.7025C30.8486 57.7025 30.9544 57.675 31.0228 57.62C31.0911 57.5649 31.1253 57.4815 31.1253 57.3698C31.1253 57.293 31.1086 57.2322 31.0753 57.1872C31.0436 57.142 30.9944 57.1095 30.9277 57.0895C30.8611 57.0696 30.7762 57.0595 30.6728 57.0595H30.4228V57.7025H30.7053ZM31.6327 57.8927V56.1062H31.8576V57.8927H31.6327Z" fill="#FFF1DE"/>
<path d="M35.4643 56.5082C35.3693 56.5082 35.2834 56.5249 35.2068 56.5583C35.1301 56.5899 35.0652 56.6375 35.0118 56.7009C34.9585 56.7626 34.9177 56.8385 34.8894 56.9285C34.8609 57.017 34.8468 57.117 34.8468 57.2288C34.8468 57.3756 34.8693 57.5031 34.9144 57.6116C34.961 57.7201 35.0293 57.8034 35.1193 57.8618C35.211 57.9202 35.3251 57.9494 35.4617 57.9494C35.5401 57.9494 35.6142 57.9427 35.6842 57.9293C35.7542 57.916 35.8225 57.8994 35.8892 57.8793V58.0745C35.8225 58.0995 35.7534 58.1178 35.6818 58.1294C35.6118 58.1412 35.5276 58.147 35.4292 58.147C35.2476 58.147 35.0959 58.1094 34.9743 58.0344C34.8526 57.9593 34.761 57.8526 34.6993 57.7142C34.6394 57.5757 34.6094 57.4131 34.6094 57.2263C34.6094 57.0912 34.6276 56.9678 34.6644 56.8559C34.7026 56.7442 34.7576 56.6474 34.8293 56.5658C34.9026 56.4841 34.9926 56.4215 35.0993 56.3781C35.206 56.3331 35.3284 56.3105 35.4667 56.3105C35.5584 56.3105 35.6467 56.3197 35.7317 56.3381C35.8167 56.3564 35.8925 56.3823 35.9592 56.4156L35.8692 56.6057C35.8142 56.5807 35.7526 56.5583 35.6842 56.5383C35.6176 56.5182 35.5443 56.5082 35.4643 56.5082ZM37.3986 58.122L37.1837 57.5691H36.4762L36.2637 58.122H36.0363L36.7337 56.3281H36.9362L37.6311 58.122H37.3986ZM36.9162 56.8285C36.9112 56.8151 36.9028 56.7909 36.8912 56.7559C36.8795 56.7209 36.8678 56.685 36.8561 56.6483C36.8462 56.6099 36.8379 56.5807 36.8311 56.5607C36.8228 56.5941 36.8136 56.6283 36.8037 56.6634C36.7954 56.6967 36.7862 56.7275 36.7761 56.7559C36.7678 56.7843 36.7603 56.8085 36.7537 56.8285L36.5512 57.3689H37.1161L36.9162 56.8285ZM38.6226 57.6141C38.5693 57.7326 38.5152 57.8318 38.4602 57.9119C38.4069 57.9902 38.3435 58.0495 38.2701 58.0895C38.1969 58.1278 38.1035 58.147 37.9903 58.147C37.9436 58.147 37.8994 58.1437 37.8577 58.137C37.8177 58.1303 37.7811 58.1211 37.7478 58.1094V57.8868C37.7811 57.9018 37.8169 57.9143 37.8552 57.9244C37.8936 57.9327 37.9335 57.9369 37.9752 57.9369C38.0368 57.9369 38.0894 57.9285 38.1327 57.9119C38.1777 57.8935 38.2168 57.8643 38.2502 57.8243C38.2852 57.7842 38.3177 57.7308 38.3477 57.6641L37.6603 56.3356H37.9077L38.4052 57.3189C38.4118 57.3305 38.4185 57.3447 38.4251 57.3613C38.4319 57.3764 38.4385 57.3922 38.4451 57.4089C38.4534 57.4256 38.4602 57.4414 38.4652 57.4565H38.4751C38.4801 57.4447 38.4852 57.4315 38.4902 57.4164C38.4968 57.3997 38.5027 57.3839 38.5076 57.3689C38.5143 57.3522 38.5201 57.338 38.5251 57.3264L38.9551 56.3356H39.1925L38.6226 57.6141ZM40.8 58.122H40.5749V57.2888H39.6601V58.122H39.4351V56.3356H39.6601V57.0912H40.5749V56.3356H40.8V58.122ZM41.2879 58.122V56.3356H41.5129V57.0912H41.7879C41.9545 57.0912 42.0852 57.1137 42.1803 57.1587C42.277 57.2037 42.3453 57.2647 42.3853 57.3413C42.427 57.4181 42.4478 57.504 42.4478 57.5991C42.4478 57.7041 42.4253 57.7959 42.3803 57.8743C42.3369 57.9527 42.2687 58.0135 42.1753 58.0569C42.0819 58.1002 41.962 58.122 41.8153 58.122H41.2879ZM41.7953 57.9319C41.9387 57.9319 42.0444 57.9043 42.1128 57.8493C42.1812 57.7942 42.2153 57.7109 42.2153 57.5991C42.2153 57.5224 42.1986 57.4614 42.1653 57.4164C42.1336 57.3714 42.0845 57.3389 42.0178 57.3189C41.9512 57.2988 41.8662 57.2888 41.7629 57.2888H41.5129V57.9319H41.7953ZM42.7228 58.122V56.3356H42.9477V58.122H42.7228Z" fill="#FFF1DE"/>
<path d="M46.3725 56.5082C46.2774 56.5082 46.1916 56.5249 46.1149 56.5583C46.0383 56.5899 45.9733 56.6375 45.92 56.7009C45.8667 56.7626 45.8259 56.8385 45.7976 56.9285C45.7691 57.017 45.755 57.117 45.755 57.2288C45.755 57.3756 45.7775 57.5031 45.8226 57.6116C45.8691 57.7201 45.9375 57.8034 46.0274 57.8618C46.1191 57.9202 46.2333 57.9494 46.3699 57.9494C46.4483 57.9494 46.5224 57.9427 46.5924 57.9293C46.6624 57.916 46.7307 57.8994 46.7974 57.8793V58.0745C46.7307 58.0995 46.6615 58.1178 46.59 58.1294C46.5199 58.1412 46.4358 58.147 46.3374 58.147C46.1558 58.147 46.0041 58.1094 45.8825 58.0344C45.7608 57.9593 45.6692 57.8526 45.6075 57.7142C45.5475 57.5757 45.5176 57.4131 45.5176 57.2263C45.5176 57.0912 45.5358 56.9678 45.5725 56.8559C45.6108 56.7442 45.6658 56.6474 45.7375 56.5658C45.8108 56.4841 45.9009 56.4215 46.0075 56.3781C46.1142 56.3331 46.2366 56.3105 46.3749 56.3105C46.4666 56.3105 46.5549 56.3197 46.6399 56.3381C46.7249 56.3564 46.8007 56.3823 46.8674 56.4156L46.7774 56.6057C46.7224 56.5807 46.6608 56.5583 46.5924 56.5383C46.5258 56.5182 46.4525 56.5082 46.3725 56.5082ZM47.187 58.122V56.3356H48.5267V58.122H48.3043V56.5333H47.4119V58.122H47.187ZM50.1351 58.122L49.9202 57.5691H49.2128L49.0003 58.122H48.7728L49.4703 56.3281H49.6727L50.3677 58.122H50.1351ZM49.6527 56.8285C49.6477 56.8151 49.6394 56.7909 49.6277 56.7559C49.6161 56.7209 49.6044 56.685 49.5927 56.6483C49.5828 56.6099 49.5744 56.5807 49.5677 56.5607C49.5594 56.5941 49.5503 56.6283 49.5402 56.6634C49.5319 56.6967 49.5227 56.7275 49.5128 56.7559C49.5045 56.7843 49.4969 56.8085 49.4903 56.8285L49.2878 57.3689H49.8527L49.6527 56.8285Z" fill="#FFF1DE"/>
<path d="M52.9922 58.0068V56.2204H54.0521V56.4181H53.2172V56.976H53.4822C53.6605 56.976 53.7988 56.9985 53.8971 57.0435C53.9954 57.0868 54.0637 57.1469 54.1021 57.2237C54.1404 57.2988 54.1595 57.3855 54.1595 57.4838C54.1595 57.5922 54.1378 57.6857 54.0946 57.7641C54.0529 57.8424 53.9846 57.9025 53.8896 57.9442C53.7946 57.9859 53.6696 58.0068 53.5146 58.0068H52.9922ZM53.4921 57.8141C53.6521 57.8141 53.7646 57.7875 53.8296 57.734C53.8946 57.6791 53.9271 57.5957 53.9271 57.4838C53.9271 57.4072 53.9113 57.3462 53.8795 57.3012C53.8495 57.2545 53.7995 57.2211 53.7296 57.2011C53.6613 57.1811 53.5697 57.1711 53.4546 57.1711H53.2172V57.8141H53.4921ZM55.6499 58.0068L55.435 57.4538H54.7276L54.5151 58.0068H54.2876L54.985 56.2129H55.1875L55.8824 58.0068H55.6499ZM55.1675 56.7133C55.1625 56.6999 55.1541 56.6757 55.1425 56.6407C55.1309 56.6057 55.1192 56.5698 55.1076 56.5331C55.0975 56.4947 55.0892 56.4655 55.0826 56.4455C55.0742 56.4789 55.065 56.5131 55.055 56.5481C55.0467 56.5814 55.0375 56.6123 55.0276 56.6407C55.0192 56.669 55.0116 56.6933 55.005 56.7133L54.8026 57.2536H55.3675L55.1675 56.7133ZM57.4914 58.0068H57.2664V57.1737H56.3515V58.0068H56.1265V56.2204H56.3515V56.976H57.2664V56.2204H57.4914V58.0068ZM57.9819 56.2204H58.1918V57.2011C58.1918 57.2428 58.1911 57.2887 58.1894 57.3387C58.1894 57.3871 58.1885 57.4355 58.1869 57.4838C58.1852 57.5323 58.1827 57.5756 58.1793 57.6139C58.1777 57.6506 58.176 57.6791 58.1744 57.6991H58.1843L59.1668 56.2204H59.4167V58.0068H59.2067V57.0361C59.2067 56.9909 59.2076 56.9426 59.2092 56.8909C59.2109 56.8375 59.2126 56.7866 59.2142 56.7383C59.2175 56.6882 59.2201 56.644 59.2217 56.6057C59.2234 56.5673 59.2251 56.539 59.2267 56.5206H59.2168L58.2319 58.0068H57.9819V56.2204Z" fill="#FFF1DE"/>
<path d="M33.3778 57.4807C33.5347 57.4807 33.6619 57.3534 33.6619 57.1964C33.6619 57.0394 33.5347 56.9121 33.3778 56.9121C33.2209 56.9121 33.0938 57.0394 33.0938 57.1964C33.0938 57.3534 33.2209 57.4807 33.3778 57.4807Z" fill="url(#paint19_linear_76_3847)"/>
<path d="M44.1708 57.4807C44.3277 57.4807 44.4548 57.3534 44.4548 57.1964C44.4548 57.0394 44.3277 56.9121 44.1708 56.9121C44.0139 56.9121 43.8867 57.0394 43.8867 57.1964C43.8867 57.3534 44.0139 57.4807 44.1708 57.4807Z" fill="#D9BA6E"/>
<path d="M51.6708 57.4807C51.8277 57.4807 51.9548 57.3534 51.9548 57.1964C51.9548 57.0394 51.8277 56.9121 51.6708 56.9121C51.5139 56.9121 51.3867 57.0394 51.3867 57.1964C51.3867 57.3534 51.5139 57.4807 51.6708 57.4807Z" fill="url(#paint20_linear_76_3847)"/>
<path d="M26.8976 23.8703C22.0976 25.3628 11.5276 32.4169 6.4043 34.1262C9.67752 34.2619 12.1091 35.2658 17.2201 31.4198C22.3222 27.5807 26.8976 26.1494 31.0246 26.1494C40.1328 26.1494 39.8482 27.2889 50.5217 31.9896C59.0606 35.7501 69.4496 37.1109 71.015 37.5381C75.8537 39.9597 80.9771 40.4412 82.9694 39.824C80.5501 39.7291 75.2275 39.1973 73.292 37.8298C71.3565 36.4623 71.0096 36.5098 70.0188 36.4053C67.3149 36.1205 62.3339 34.1778 60.0568 33.414C56.2143 32.1253 48.5768 28.4259 44.9715 26.4343C50.2372 28.4284 51.5119 29.035 59.6298 32.5593C66.1763 35.4014 73.719 35.9305 76.8499 35.5507C60.3415 34.5536 55.3604 28.1436 48.5293 25.0098C41.6983 21.8761 32.8748 22.0118 26.8976 23.8703Z" fill="url(#paint21_linear_76_3847)"/>
<path d="M18.3586 32.7025C12.8936 36.577 3.84248 36.1212 0 35.4089C1.93547 37.0043 6.87853 37.4981 9.10812 37.5457C11.4326 37.5931 16.9664 36.813 21.0626 34.1269C25.1896 31.4205 29.0322 30.5591 32.8746 30.281C39.5634 30.7016 41.3605 32.7438 46.6261 34.5957C50.8387 36.077 56.7834 36.6909 59.0075 37.1597C59.7721 37.3207 67.884 40.2521 72.1534 39.3974C66.6032 39.6755 63.5759 36.7442 59.6297 36.1212C55.0757 35.4022 51.2332 34.5957 49.5254 33.4148C44.6867 30.7016 37.7133 27.7102 34.1554 27.5746C31.1153 27.4586 25.1896 27.8594 18.3586 32.7025Z" fill="url(#paint22_linear_76_3847)"/>
<path d="M19.4971 36.9763C14.3737 39.9392 4.26943 40.1101 0 39.8253C2.65653 40.6324 9.22197 42.0473 14.2315 41.2496C20.4933 40.2526 24.7627 37.4037 25.332 37.1188C25.9012 36.8339 30.6437 34.551 35.294 35.267C38.9942 35.8368 41.6865 38.3459 47.8176 39.113C50.0946 39.3979 57.1005 39.2804 57.9219 39.3979C59.7058 39.653 61.3817 40.5255 62.6305 41.1256C62.9955 41.301 63.3977 41.3789 63.8023 41.3665L67.5993 41.2496C65.607 40.8157 63.4723 40.6731 62.6183 40.2526C60.9106 38.9638 58.1626 37.7471 53.9372 37.831C47.1061 37.9667 40.7894 34.5774 36.2901 32.988C31.4514 31.2787 25.9012 33.2728 19.4971 36.9763Z" fill="url(#paint23_linear_76_3847)"/>
<path d="M28.8891 37.9734C23.9935 40.4804 18.5951 42.0567 16.5078 42.5316C19.1263 42.5316 20.7772 42.0976 27.1814 40.1033C29.0314 39.3911 31.1661 39.4126 32.5893 39.5336C36.1472 39.8359 38.6297 42.2248 41.4128 42.9589C43.5475 43.522 45.6823 43.9493 48.8132 43.2371L58.3482 41.1072C52.0864 41.449 47.1053 41.5278 43.6898 40.2457C37.8549 37.6817 33.7847 35.4664 28.8891 37.9734Z" fill="url(#paint24_linear_76_3847)"/>
</g>
<path d="M91 28.8542V17.167H95.804C96.8382 17.167 97.7223 17.334 98.4563 17.6678C99.2013 18.0018 99.7741 18.4804 100.174 19.1037C100.575 19.7271 100.775 20.4671 100.775 21.3242C100.775 22.1813 100.575 22.9216 100.174 23.5449C99.7741 24.1682 99.2013 24.6468 98.4563 24.9808C97.7223 25.3146 96.8382 25.4816 95.804 25.4816H92.2009L93.1685 24.4631V28.8542H91ZM93.1685 24.6968L92.2009 23.645H95.704C96.6602 23.645 97.3776 23.4446 97.8558 23.0439C98.345 22.632 98.5896 22.0589 98.5896 21.3242C98.5896 20.5786 98.345 20.0053 97.8558 19.6045C97.3776 19.2038 96.6602 19.0034 95.704 19.0034H92.2009L93.1685 17.9349V24.6968ZM108.575 29.0212C107.663 29.0212 106.823 28.8709 106.056 28.5703C105.289 28.2698 104.621 27.8524 104.054 27.3183C103.487 26.7728 103.048 26.1383 102.736 25.4149C102.425 24.6801 102.269 23.8787 102.269 23.0105C102.269 22.1423 102.425 21.3464 102.736 20.623C103.048 19.8885 103.487 19.254 104.054 18.7197C104.621 18.1744 105.289 17.7514 106.056 17.4508C106.823 17.1503 107.657 17 108.558 17C109.47 17 110.304 17.1503 111.06 17.4508C111.827 17.7514 112.495 18.1744 113.062 18.7197C113.629 19.254 114.068 19.8885 114.38 20.623C114.691 21.3464 114.847 22.1423 114.847 23.0105C114.847 23.8787 114.691 24.6801 114.38 25.4149C114.068 26.1494 113.629 26.7839 113.062 27.3183C112.495 27.8524 111.827 28.2698 111.06 28.5703C110.304 28.8709 109.475 29.0212 108.575 29.0212ZM108.558 27.1179C109.147 27.1179 109.692 27.0176 110.193 26.8172C110.693 26.6169 111.127 26.3331 111.494 25.9657C111.861 25.5872 112.144 25.1532 112.345 24.6635C112.556 24.1627 112.661 23.6116 112.661 23.0105C112.661 22.4094 112.556 21.8641 112.345 21.3745C112.144 20.8734 111.861 20.4393 111.494 20.072C111.127 19.6937 110.693 19.4042 110.193 19.2038C109.692 19.0034 109.147 18.9034 108.558 18.9034C107.969 18.9034 107.424 19.0034 106.923 19.2038C106.434 19.4042 106 19.6937 105.622 20.072C105.255 20.4393 104.966 20.8734 104.755 21.3745C104.555 21.8641 104.455 22.4094 104.455 23.0105C104.455 23.6005 104.555 24.146 104.755 24.6468C104.966 25.1476 105.255 25.5872 105.622 25.9657C105.989 26.3331 106.423 26.6169 106.923 26.8172C107.424 27.0176 107.969 27.1179 108.558 27.1179ZM122.616 29.0212C121.705 29.0212 120.865 28.8709 120.098 28.5703C119.33 28.2698 118.663 27.8524 118.096 27.3183C117.529 26.7728 117.09 26.1383 116.778 25.4149C116.467 24.6801 116.311 23.8787 116.311 23.0105C116.311 22.1423 116.467 21.3464 116.778 20.623C117.09 19.8885 117.529 19.254 118.096 18.7197C118.663 18.1744 119.33 17.7514 120.098 17.4508C120.865 17.1503 121.699 17 122.6 17C123.512 17 124.346 17.1503 125.102 17.4508C125.869 17.7514 126.537 18.1744 127.104 18.7197C127.671 19.254 128.11 19.8885 128.422 20.623C128.733 21.3464 128.889 22.1423 128.889 23.0105C128.889 23.8787 128.733 24.6801 128.422 25.4149C128.11 26.1494 127.671 26.7839 127.104 27.3183C126.537 27.8524 125.869 28.2698 125.102 28.5703C124.346 28.8709 123.517 29.0212 122.616 29.0212ZM122.6 27.1179C123.189 27.1179 123.734 27.0176 124.235 26.8172C124.735 26.6169 125.169 26.3331 125.536 25.9657C125.903 25.5872 126.186 25.1532 126.386 24.6635C126.598 24.1627 126.703 23.6116 126.703 23.0105C126.703 22.4094 126.598 21.8641 126.386 21.3745C126.186 20.8734 125.903 20.4393 125.536 20.072C125.169 19.6937 124.735 19.4042 124.235 19.2038C123.734 19.0034 123.189 18.9034 122.6 18.9034C122.01 18.9034 121.466 19.0034 120.965 19.2038C120.476 19.4042 120.042 19.6937 119.664 20.072C119.297 20.4393 119.008 20.8734 118.797 21.3745C118.596 21.8641 118.496 22.4094 118.496 23.0105C118.496 23.6005 118.596 24.146 118.797 24.6468C119.008 25.1476 119.297 25.5872 119.664 25.9657C120.031 26.3331 120.465 26.6169 120.965 26.8172C121.466 27.0176 122.01 27.1179 122.6 27.1179ZM131.187 28.8542V17.167H133.356V27.0176H139.461V28.8542H131.187Z" fill="#E7BE89"/>
<path d="M93.1687 45.5431H98.8067V47.3797H93.1687V51.8542H91V40.167H99.5241V41.9868H93.1687V45.5431Z" fill="#E7BE89"/>
<path d="M127.734 51.8542V40.167H129.519L134.152 47.9116L138.71 40.167H140.495L140.511 51.8542H138.46L138.444 44.111L134.606 50.5184H133.639L129.802 44.2121V51.8542H127.734Z" fill="#E7BE89"/>
<path fill-rule="evenodd" clip-rule="evenodd" d="M106.962 52.0212C106.05 52.0212 105.211 51.8709 104.443 51.5703C103.676 51.2698 103.009 50.8524 102.442 50.3183C101.874 49.7728 101.435 49.1383 101.124 48.4149C100.812 47.6801 100.657 46.8787 100.657 46.0105C100.657 45.1423 100.812 44.3464 101.124 43.623C101.435 42.8885 101.874 42.254 102.442 41.7197C103.009 41.1744 103.676 40.7514 104.443 40.4508C105.211 40.1503 106.045 40 106.945 40C107.857 40 108.691 40.1503 109.448 40.4508C110.215 40.7514 110.882 41.1744 111.449 41.7197C112.016 42.254 112.456 42.8885 112.767 43.623C113.078 44.3464 113.234 45.1423 113.234 46.0105C113.234 46.8787 113.078 47.6801 112.767 48.4149C112.456 49.1494 112.016 49.7839 111.449 50.3183C110.882 50.8524 110.215 51.2698 109.448 51.5703C108.691 51.8709 107.863 52.0212 106.962 52.0212ZM108.58 49.8172C108.08 50.0176 107.535 50.1179 106.945 50.1179C106.356 50.1179 105.811 50.0176 105.311 49.8172C104.81 49.6169 104.377 49.3331 104.01 48.9657C103.643 48.5872 103.353 48.1476 103.142 47.6468C102.942 47.146 102.842 46.6005 102.842 46.0105C102.842 45.4094 102.942 44.8641 103.142 44.3745C103.353 43.8734 103.643 43.4393 104.01 43.072C104.388 42.6937 104.821 42.4042 105.311 42.2038C105.811 42.0034 106.356 41.9034 106.945 41.9034C107.535 41.9034 108.08 42.0034 108.58 42.2038C109.081 42.4042 109.514 42.6937 109.881 43.072C110.248 43.4393 110.532 43.8734 110.732 44.3745C110.943 44.8641 111.049 45.4094 111.049 46.0105C111.049 46.6116 110.943 47.1627 110.732 47.6635C110.532 48.1532 110.248 48.5872 109.881 48.9657C109.514 49.3331 109.081 49.6169 108.58 49.8172Z" fill="#E7BE89"/>
<path fill-rule="evenodd" clip-rule="evenodd" d="M115.533 40.167V51.8542H117.701V48.4483H120.337C120.492 48.4483 120.645 48.4446 120.794 48.4373L123.173 51.8542H125.508L122.831 48.0302C122.884 48.0089 122.937 47.9868 122.989 47.9639C123.734 47.6301 124.307 47.1571 124.707 46.5449C125.108 45.9216 125.308 45.1813 125.308 44.3242C125.308 43.4671 125.108 42.7271 124.707 42.1037C124.307 41.4804 123.734 41.0018 122.989 40.6678C122.255 40.334 121.371 40.167 120.337 40.167H115.533ZM120.237 46.6616H117.701V42.0034H120.237C121.193 42.0034 121.91 42.2038 122.389 42.6045C122.878 43.0053 123.122 43.5786 123.122 44.3242C123.122 45.0589 122.878 45.632 122.389 46.0439C121.91 46.4557 121.193 46.6616 120.237 46.6616Z" fill="#E7BE89"/>
<path d="M91 34H143.5" stroke="#E7BE89" stroke-width="1.5" stroke-linecap="round"/>
<defs>
<filter id="filter0_d_76_3847" x="3.23477" y="43.1088" width="76.6859" height="30.5496" filterUnits="userSpaceOnUse" color-interpolation-filters="sRGB">
<feFlood flood-opacity="0" result="BackgroundImageFix"/>
<feColorMatrix in="SourceAlpha" type="matrix" values="0 0 0 0 0 0 0 0 0 0 0 0 0 0 0 0 0 0 127 0" result="hardAlpha"/>
<feOffset dx="2.23081" dy="8.92325"/>
<feGaussianBlur stdDeviation="6.13474"/>
<feComposite in2="hardAlpha" operator="out"/>
<feColorMatrix type="matrix" values="0 0 0 0 0 0 0 0 0 0.203172 0 0 0 0 0.4125 0 0 0 0.88 0"/>
<feBlend mode="normal" in2="BackgroundImageFix" result="effect1_dropShadow_76_3847"/>
<feBlend mode="normal" in="SourceGraphic" in2="effect1_dropShadow_76_3847" result="shape"/>
</filter>
<linearGradient id="paint0_linear_76_3847" x1="23.0187" y1="0" x2="23.0187" y2="18.1375" gradientUnits="userSpaceOnUse">
<stop stop-color="#A88455"/>
<stop offset="1" stop-color="#FEDDA9"/>
</linearGradient>
<linearGradient id="paint1_linear_76_3847" x1="52.1593" y1="2.94122" x2="52.1593" y2="21.0787" gradientUnits="userSpaceOnUse">
<stop stop-color="#A88455"/>
<stop offset="1" stop-color="#FEDDA9"/>
</linearGradient>
<linearGradient id="paint2_linear_76_3847" x1="9.05959" y1="6.86328" x2="9.05959" y2="21.0792" gradientUnits="userSpaceOnUse">
<stop stop-color="#A88455"/>
<stop offset="1" stop-color="#FEDDA9"/>
</linearGradient>
<linearGradient id="paint3_linear_76_3847" x1="14.2031" y1="56.8635" x2="14.2031" y2="67.8931" gradientUnits="userSpaceOnUse">
<stop stop-color="#A88455"/>
<stop offset="1" stop-color="#FEDDA9"/>
</linearGradient>
<linearGradient id="paint4_linear_76_3847" x1="20.6913" y1="53.9219" x2="20.6913" y2="64.9515" gradientUnits="userSpaceOnUse">
<stop stop-color="#A88455"/>
<stop offset="1" stop-color="#FEDDA9"/>
</linearGradient>
<linearGradient id="paint5_linear_76_3847" x1="64.5254" y1="64.9519" x2="64.5254" y2="46.8144" gradientUnits="userSpaceOnUse">
<stop stop-color="#0FADDF"/>
<stop offset="1" stop-color="#0485C9"/>
</linearGradient>
<linearGradient id="paint6_linear_76_3847" x1="5.14258" y1="30.1478" x2="7.1016" y2="30.1478" gradientUnits="userSpaceOnUse">
<stop stop-color="#0FADDF"/>
<stop offset="1" stop-color="#0485C9"/>
</linearGradient>
<linearGradient id="paint7_linear_76_3847" x1="68.0762" y1="27.696" x2="70.0353" y2="27.696" gradientUnits="userSpaceOnUse">
<stop stop-color="#0FADDF"/>
<stop offset="1" stop-color="#0485C9"/>
</linearGradient>
<linearGradient id="paint8_linear_76_3847" x1="71.0156" y1="40.4426" x2="72.9746" y2="40.4426" gradientUnits="userSpaceOnUse">
<stop stop-color="#0FADDF"/>
<stop offset="1" stop-color="#0485C9"/>
</linearGradient>
<linearGradient id="paint9_linear_76_3847" x1="71.0156" y1="63.1134" x2="72.9746" y2="63.1134" gradientUnits="userSpaceOnUse">
<stop stop-color="#0FADDF"/>
<stop offset="1" stop-color="#0485C9"/>
</linearGradient>
<linearGradient id="paint10_linear_76_3847" x1="8.08008" y1="27.3283" x2="10.0391" y2="27.3283" gradientUnits="userSpaceOnUse">
<stop stop-color="#0FADDF"/>
<stop offset="1" stop-color="#0485C9"/>
</linearGradient>
<linearGradient id="paint11_linear_76_3847" x1="28.529" y1="2.94141" x2="28.529" y2="4.90222" gradientUnits="userSpaceOnUse">
<stop stop-color="#0FADDF"/>
<stop offset="1" stop-color="#0485C9"/>
</linearGradient>
<linearGradient id="paint12_linear_76_3847" x1="27.8276" y1="65.9688" x2="27.8276" y2="67.9295" gradientUnits="userSpaceOnUse">
<stop stop-color="#0FADDF"/>
<stop offset="1" stop-color="#0485C9"/>
</linearGradient>
<linearGradient id="paint13_linear_76_3847" x1="8.08008" y1="34.9263" x2="10.0391" y2="34.9263" gradientUnits="userSpaceOnUse">
<stop stop-color="#0FADDF"/>
<stop offset="1" stop-color="#0485C9"/>
</linearGradient>
<linearGradient id="paint14_linear_76_3847" x1="45.4245" y1="65.9316" x2="45.4245" y2="67.8924" gradientUnits="userSpaceOnUse">
<stop stop-color="#A88455"/>
<stop offset="1" stop-color="#FEDDA9"/>
</linearGradient>
<linearGradient id="paint15_linear_76_3847" x1="64.8935" y1="0" x2="64.8935" y2="28.4318" gradientUnits="userSpaceOnUse">
<stop stop-color="#A88455"/>
<stop offset="1" stop-color="#FEDDA9"/>
</linearGradient>
<linearGradient id="paint16_linear_76_3847" x1="15.4898" y1="2.99414" x2="15.4898" y2="5.56018" gradientUnits="userSpaceOnUse">
<stop stop-color="#A88455"/>
<stop offset="1" stop-color="#FEDDA9"/>
</linearGradient>
<linearGradient id="paint17_linear_76_3847" x1="24.9918" y1="2.27801" x2="58.156" y2="35.1762" gradientUnits="userSpaceOnUse">
<stop stop-color="#1499C8"/>
<stop offset="0.0853791" stop-color="#1D8FBC"/>
<stop offset="0.218009" stop-color="#146890"/>
<stop offset="0.505117" stop-color="#135376"/>
<stop offset="0.655837" stop-color="#074869"/>
<stop offset="0.767522" stop-color="#013C64"/>
<stop offset="1" stop-color="#175992"/>
</linearGradient>
<linearGradient id="paint18_linear_76_3847" x1="5.75412" y1="43.9185" x2="77.5933" y2="55.0238" gradientUnits="userSpaceOnUse">
<stop stop-color="#10587C"/>
<stop offset="0.395833" stop-color="#043B6F"/>
<stop offset="0.723958" stop-color="#003251"/>
<stop offset="1" stop-color="#004F88"/>
</linearGradient>
<linearGradient id="paint19_linear_76_3847" x1="33.3778" y1="56.9121" x2="33.3778" y2="57.4807" gradientUnits="userSpaceOnUse">
<stop stop-color="#A88455"/>
<stop offset="1" stop-color="#FEDDA9"/>
</linearGradient>
<linearGradient id="paint20_linear_76_3847" x1="51.6708" y1="56.9121" x2="51.6708" y2="57.4807" gradientUnits="userSpaceOnUse">
<stop stop-color="#A88455"/>
<stop offset="1" stop-color="#FEDDA9"/>
</linearGradient>
<linearGradient id="paint21_linear_76_3847" x1="44.6868" y1="22.5488" x2="44.6868" y2="40.0679" gradientUnits="userSpaceOnUse">
<stop stop-color="#A88455"/>
<stop offset="1" stop-color="#FEDDA9"/>
</linearGradient>
<linearGradient id="paint22_linear_76_3847" x1="36.0767" y1="27.5586" x2="36.0767" y2="39.5532" gradientUnits="userSpaceOnUse">
<stop stop-color="#A88455"/>
<stop offset="1" stop-color="#FEDDA9"/>
</linearGradient>
<linearGradient id="paint23_linear_76_3847" x1="33.7996" y1="32.3691" x2="33.7996" y2="41.4856" gradientUnits="userSpaceOnUse">
<stop stop-color="#A88455"/>
<stop offset="1" stop-color="#FEDDA9"/>
</linearGradient>
<linearGradient id="paint24_linear_76_3847" x1="37.428" y1="36.873" x2="37.428" y2="43.6105" gradientUnits="userSpaceOnUse">
<stop stop-color="#A88455"/>
<stop offset="1" stop-color="#FEDDA9"/>
</linearGradient>
<clipPath id="clip0_76_3847">
<rect width="83" height="68" fill="white"/>
</clipPath>
</defs>
</svg>
