<svg width="166" height="136" viewBox="0 0 166 136" fill="none" xmlns="http://www.w3.org/2000/svg">
<g clip-path="url(#clip0_76_2952)">
<path fill-rule="evenodd" clip-rule="evenodd" d="M81.7897 0H10.2852V36.275H14.2032V3.92163H81.7897V0Z" fill="url(#paint0_linear_76_2952)"/>
<path fill-rule="evenodd" clip-rule="evenodd" d="M68.5659 5.88281H140.07V42.1578H136.152V9.80444H68.5659V5.88281Z" fill="url(#paint1_linear_76_2952)"/>
<path fill-rule="evenodd" clip-rule="evenodd" d="M20.0782 13.7266H16.1602V42.1583H20.0782V13.7266Z" fill="url(#paint2_linear_76_2952)"/>
<path fill-rule="evenodd" clip-rule="evenodd" d="M10.2852 113.727V135.786H46.5272V131.864H14.2032V113.727H10.2852Z" fill="url(#paint3_linear_76_2952)"/>
<path fill-rule="evenodd" clip-rule="evenodd" d="M16.1602 107.844V129.903H66.6052V125.981H20.0782V107.844H16.1602Z" fill="url(#paint4_linear_76_2952)"/>
<path fill-rule="evenodd" clip-rule="evenodd" d="M118.032 129.904H140.071V93.6289H136.153V125.982H118.032V129.904Z" fill="url(#paint5_linear_76_2952)"/>
<path fill-rule="evenodd" clip-rule="evenodd" d="M10.2852 38.7266V81.8644H14.2032V79.5007V38.7266H10.2852Z" fill="url(#paint6_linear_76_2952)"/>
<path fill-rule="evenodd" clip-rule="evenodd" d="M136.152 45.0977V65.6863H140.071V64.5581V45.0977H136.152Z" fill="url(#paint7_linear_76_2952)"/>
<path fill-rule="evenodd" clip-rule="evenodd" d="M142.031 59.3164V102.454H145.949V100.091V59.3164H142.031Z" fill="url(#paint8_linear_76_2952)"/>
<path fill-rule="evenodd" clip-rule="evenodd" d="M142.031 116.668V135.786H145.949V134.738V116.668H142.031Z" fill="url(#paint9_linear_76_2952)"/>
<path fill-rule="evenodd" clip-rule="evenodd" d="M16.1602 45.0977V64.2155H20.0782V63.1679V45.0977H16.1602Z" fill="url(#paint10_linear_76_2952)"/>
<path fill-rule="evenodd" clip-rule="evenodd" d="M66.6083 5.88281H47.5078V9.80444H48.5542H66.6083V5.88281Z" fill="url(#paint11_linear_76_2952)"/>
<path fill-rule="evenodd" clip-rule="evenodd" d="M61.744 131.938H49.5664V135.859H50.2336H61.744V131.938Z" fill="url(#paint12_linear_76_2952)"/>
<path fill-rule="evenodd" clip-rule="evenodd" d="M16.1602 67.1562V72.5486H20.0782V72.253V67.1562H16.1602Z" fill="url(#paint13_linear_76_2952)"/>
<path fill-rule="evenodd" clip-rule="evenodd" d="M116.561 131.863H65.1367V135.785H67.9544H116.561V131.863Z" fill="url(#paint14_linear_76_2952)"/>
<path fill-rule="evenodd" clip-rule="evenodd" d="M113.625 3.92163H142.031V56.8636H145.949V0H113.625V3.92163Z" fill="url(#paint15_linear_76_2952)"/>
<path fill-rule="evenodd" clip-rule="evenodd" d="M19.812 9.90991H45.721V5.98828H16.2383V11.1204H19.812V9.90991Z" fill="url(#paint16_linear_76_2952)"/>
<mask id="mask0_76_2952" style="mask-type:alpha" maskUnits="userSpaceOnUse" x="24" y="12" width="108" height="64">
<path d="M28.8946 12.7461H24.9766V16.6677H28.8946V12.7461Z" fill="#D9D9D9"/>
<path d="M34.2813 12.7461H30.3633V16.6677H34.2813V12.7461Z" fill="#D9D9D9"/>
<path d="M39.6681 12.7461H35.75V16.6677H39.6681V12.7461Z" fill="#D9D9D9"/>
<path d="M45.0548 12.7461H41.1367V16.6677H45.0548V12.7461Z" fill="#D9D9D9"/>
<path d="M50.4454 12.7461H46.5273V16.6677H50.4454V12.7461Z" fill="#D9D9D9"/>
<path d="M55.8321 12.7461H51.9141V16.6677H55.8321V12.7461Z" fill="#D9D9D9"/>
<path d="M61.2188 12.7461H57.3008V16.6677H61.2188V12.7461Z" fill="#D9D9D9"/>
<path d="M66.6055 12.7461H62.6875V16.6677H66.6055V12.7461Z" fill="#D9D9D9"/>
<path d="M71.9923 12.7461H68.0742V16.6677H71.9923V12.7461Z" fill="#D9D9D9"/>
<path d="M77.379 12.7461H73.4609V16.6677H77.379V12.7461Z" fill="#D9D9D9"/>
<path d="M82.7696 12.7461H78.8516V16.6677H82.7696V12.7461Z" fill="#D9D9D9"/>
<path d="M88.1563 12.7461H84.2383V16.6677H88.1563V12.7461Z" fill="#D9D9D9"/>
<path d="M93.5426 12.7461H89.6245V16.6677H93.5426V12.7461Z" fill="#D9D9D9"/>
<path d="M98.9298 12.7461H95.0117V16.6677H98.9298V12.7461Z" fill="#D9D9D9"/>
<path d="M104.316 12.7461H100.398V16.6677H104.316V12.7461Z" fill="#D9D9D9"/>
<path d="M109.703 12.7461H105.785V16.6677H109.703V12.7461Z" fill="#D9D9D9"/>
<path d="M115.094 12.7461H111.176V16.6677H115.094V12.7461Z" fill="#D9D9D9"/>
<path d="M120.481 12.7461H116.562V16.6677H120.481V12.7461Z" fill="#D9D9D9"/>
<path d="M125.867 12.7461H121.949V16.6677H125.867V12.7461Z" fill="#D9D9D9"/>
<path d="M131.254 12.7461H127.336V16.6677H131.254V12.7461Z" fill="#D9D9D9"/>
<path d="M28.8946 18.1367H24.9766V22.0583H28.8946V18.1367Z" fill="#D9D9D9"/>
<path d="M34.2813 18.1367H30.3633V22.0583H34.2813V18.1367Z" fill="#D9D9D9"/>
<path d="M39.6681 18.1367H35.75V22.0583H39.6681V18.1367Z" fill="#D9D9D9"/>
<path d="M45.0548 18.1367H41.1367V22.0583H45.0548V18.1367Z" fill="#D9D9D9"/>
<path d="M50.4454 18.1367H46.5273V22.0583H50.4454V18.1367Z" fill="#D9D9D9"/>
<path d="M55.8321 18.1367H51.9141V22.0583H55.8321V18.1367Z" fill="#D9D9D9"/>
<path d="M61.2188 18.1367H57.3008V22.0583H61.2188V18.1367Z" fill="#D9D9D9"/>
<path d="M66.6055 18.1367H62.6875V22.0583H66.6055V18.1367Z" fill="#D9D9D9"/>
<path d="M71.9923 18.1367H68.0742V22.0583H71.9923V18.1367Z" fill="#D9D9D9"/>
<path d="M77.379 18.1367H73.4609V22.0583H77.379V18.1367Z" fill="#D9D9D9"/>
<path d="M82.7696 18.1367H78.8516V22.0583H82.7696V18.1367Z" fill="#D9D9D9"/>
<path d="M88.1563 18.1367H84.2383V22.0583H88.1563V18.1367Z" fill="#D9D9D9"/>
<path d="M93.543 18.1367H89.625V22.0583H93.543V18.1367Z" fill="#D9D9D9"/>
<path d="M98.9298 18.1367H95.0117V22.0583H98.9298V18.1367Z" fill="#D9D9D9"/>
<path d="M104.316 18.1367H100.398V22.0583H104.316V18.1367Z" fill="#D9D9D9"/>
<path d="M109.703 18.1367H105.785V22.0583H109.703V18.1367Z" fill="#D9D9D9"/>
<path d="M115.094 18.1367H111.176V22.0583H115.094V18.1367Z" fill="#D9D9D9"/>
<path d="M120.481 18.1367H116.562V22.0583H120.481V18.1367Z" fill="#D9D9D9"/>
<path d="M125.867 18.1367H121.949V22.0583H125.867V18.1367Z" fill="#D9D9D9"/>
<path d="M131.254 18.1367H127.336V22.0583H131.254V18.1367Z" fill="#D9D9D9"/>
<path d="M28.8946 23.5312H24.9766V27.4529H28.8946V23.5312Z" fill="#D9D9D9"/>
<path d="M34.2813 23.5312H30.3633V27.4529H34.2813V23.5312Z" fill="#D9D9D9"/>
<path d="M39.6681 23.5312H35.75V27.4529H39.6681V23.5312Z" fill="#D9D9D9"/>
<path d="M45.0548 23.5312H41.1367V27.4529H45.0548V23.5312Z" fill="#D9D9D9"/>
<path d="M50.4454 23.5312H46.5273V27.4529H50.4454V23.5312Z" fill="#D9D9D9"/>
<path d="M55.8321 23.5312H51.9141V27.4529H55.8321V23.5312Z" fill="#D9D9D9"/>
<path d="M61.2188 23.5312H57.3008V27.4529H61.2188V23.5312Z" fill="#D9D9D9"/>
<path d="M66.6055 23.5312H62.6875V27.4529H66.6055V23.5312Z" fill="#D9D9D9"/>
<path d="M71.9923 23.5312H68.0742V27.4529H71.9923V23.5312Z" fill="#D9D9D9"/>
<path d="M77.379 23.5312H73.4609V27.4529H77.379V23.5312Z" fill="#D9D9D9"/>
<path d="M82.7696 23.5312H78.8516V27.4529H82.7696V23.5312Z" fill="#D9D9D9"/>
<path d="M88.1563 23.5312H84.2383V27.4529H88.1563V23.5312Z" fill="#D9D9D9"/>
<path d="M93.543 23.5312H89.625V27.4529H93.543V23.5312Z" fill="#D9D9D9"/>
<path d="M98.9298 23.5312H95.0117V27.4529H98.9298V23.5312Z" fill="#D9D9D9"/>
<path d="M104.316 23.5312H100.398V27.4529H104.316V23.5312Z" fill="#D9D9D9"/>
<path d="M109.703 23.5312H105.785V27.4529H109.703V23.5312Z" fill="#D9D9D9"/>
<path d="M115.094 23.5312H111.176V27.4529H115.094V23.5312Z" fill="#D9D9D9"/>
<path d="M120.481 23.5312H116.562V27.4529H120.481V23.5312Z" fill="#D9D9D9"/>
<path d="M125.867 23.5312H121.949V27.4529H125.867V23.5312Z" fill="#D9D9D9"/>
<path d="M131.254 23.5312H127.336V27.4529H131.254V23.5312Z" fill="#D9D9D9"/>
<path d="M28.8946 28.9219H24.9766V32.8435H28.8946V28.9219Z" fill="#D9D9D9"/>
<path d="M34.2813 28.9219H30.3633V32.8435H34.2813V28.9219Z" fill="#D9D9D9"/>
<path d="M39.6681 28.9219H35.75V32.8435H39.6681V28.9219Z" fill="#D9D9D9"/>
<path d="M45.0548 28.9219H41.1367V32.8435H45.0548V28.9219Z" fill="#D9D9D9"/>
<path d="M50.4454 28.9219H46.5273V32.8435H50.4454V28.9219Z" fill="#D9D9D9"/>
<path d="M55.8321 28.9219H51.9141V32.8435H55.8321V28.9219Z" fill="#D9D9D9"/>
<path d="M61.2188 28.9219H57.3008V32.8435H61.2188V28.9219Z" fill="#D9D9D9"/>
<path d="M66.6055 28.9219H62.6875V32.8435H66.6055V28.9219Z" fill="#D9D9D9"/>
<path d="M71.9923 28.9219H68.0742V32.8435H71.9923V28.9219Z" fill="#D9D9D9"/>
<path d="M77.379 28.9219H73.4609V32.8435H77.379V28.9219Z" fill="#D9D9D9"/>
<path d="M82.7696 28.9219H78.8516V32.8435H82.7696V28.9219Z" fill="#D9D9D9"/>
<path d="M88.1563 28.9219H84.2383V32.8435H88.1563V28.9219Z" fill="#D9D9D9"/>
<path d="M93.543 28.9219H89.625V32.8435H93.543V28.9219Z" fill="#D9D9D9"/>
<path d="M98.9298 28.9219H95.0117V32.8435H98.9298V28.9219Z" fill="#D9D9D9"/>
<path d="M104.316 28.9219H100.398V32.8435H104.316V28.9219Z" fill="#D9D9D9"/>
<path d="M109.703 28.9219H105.785V32.8435H109.703V28.9219Z" fill="#D9D9D9"/>
<path d="M115.094 28.9219H111.176V32.8435H115.094V28.9219Z" fill="#D9D9D9"/>
<path d="M120.481 28.9219H116.562V32.8435H120.481V28.9219Z" fill="#D9D9D9"/>
<path d="M125.867 28.9219H121.949V32.8435H125.867V28.9219Z" fill="#D9D9D9"/>
<path d="M131.254 28.9219H127.336V32.8435H131.254V28.9219Z" fill="#D9D9D9"/>
<path d="M28.8946 34.3164H24.9766V38.238H28.8946V34.3164Z" fill="#D9D9D9"/>
<path d="M34.2813 34.3164H30.3633V38.238H34.2813V34.3164Z" fill="#D9D9D9"/>
<path d="M39.6681 34.3164H35.75V38.238H39.6681V34.3164Z" fill="#D9D9D9"/>
<path d="M45.0548 34.3164H41.1367V38.238H45.0548V34.3164Z" fill="#D9D9D9"/>
<path d="M50.4454 34.3164H46.5273V38.238H50.4454V34.3164Z" fill="#D9D9D9"/>
<path d="M55.8321 34.3164H51.9141V38.238H55.8321V34.3164Z" fill="#D9D9D9"/>
<path d="M61.2188 34.3164H57.3008V38.238H61.2188V34.3164Z" fill="#D9D9D9"/>
<path d="M66.6055 34.3164H62.6875V38.238H66.6055V34.3164Z" fill="#D9D9D9"/>
<path d="M71.9923 34.3164H68.0742V38.238H71.9923V34.3164Z" fill="#D9D9D9"/>
<path d="M77.379 34.3164H73.4609V38.238H77.379V34.3164Z" fill="#D9D9D9"/>
<path d="M82.7696 34.3164H78.8516V38.238H82.7696V34.3164Z" fill="#D9D9D9"/>
<path d="M88.1563 34.3164H84.2383V38.238H88.1563V34.3164Z" fill="#D9D9D9"/>
<path d="M93.543 34.3164H89.625V38.238H93.543V34.3164Z" fill="#D9D9D9"/>
<path d="M98.9298 34.3164H95.0117V38.238H98.9298V34.3164Z" fill="#D9D9D9"/>
<path d="M104.316 34.3164H100.398V38.238H104.316V34.3164Z" fill="#D9D9D9"/>
<path d="M109.703 34.3164H105.785V38.238H109.703V34.3164Z" fill="#D9D9D9"/>
<path d="M115.094 34.3164H111.176V38.238H115.094V34.3164Z" fill="#D9D9D9"/>
<path d="M120.481 34.3164H116.562V38.238H120.481V34.3164Z" fill="#D9D9D9"/>
<path d="M125.867 34.3164H121.949V38.238H125.867V34.3164Z" fill="#D9D9D9"/>
<path d="M131.254 34.3164H127.336V38.238H131.254V34.3164Z" fill="#D9D9D9"/>
<path d="M28.8946 39.707H24.9766V43.6286H28.8946V39.707Z" fill="#D9D9D9"/>
<path d="M34.2813 39.707H30.3633V43.6286H34.2813V39.707Z" fill="#D9D9D9"/>
<path d="M39.6681 39.707H35.75V43.6286H39.6681V39.707Z" fill="#D9D9D9"/>
<path d="M45.0548 39.707H41.1367V43.6286H45.0548V39.707Z" fill="#D9D9D9"/>
<path d="M50.4454 39.707H46.5273V43.6286H50.4454V39.707Z" fill="#D9D9D9"/>
<path d="M55.8321 39.707H51.9141V43.6286H55.8321V39.707Z" fill="#D9D9D9"/>
<path d="M61.2188 39.707H57.3008V43.6286H61.2188V39.707Z" fill="#D9D9D9"/>
<path d="M66.6055 39.707H62.6875V43.6286H66.6055V39.707Z" fill="#D9D9D9"/>
<path d="M71.9923 39.707H68.0742V43.6286H71.9923V39.707Z" fill="#D9D9D9"/>
<path d="M77.379 39.707H73.4609V43.6286H77.379V39.707Z" fill="#D9D9D9"/>
<path d="M82.7696 39.707H78.8516V43.6286H82.7696V39.707Z" fill="#D9D9D9"/>
<path d="M88.1563 39.707H84.2383V43.6286H88.1563V39.707Z" fill="#D9D9D9"/>
<path d="M93.5426 39.707H89.6245V43.6286H93.5426V39.707Z" fill="#D9D9D9"/>
<path d="M98.9298 39.707H95.0117V43.6286H98.9298V39.707Z" fill="#D9D9D9"/>
<path d="M104.316 39.707H100.398V43.6286H104.316V39.707Z" fill="#D9D9D9"/>
<path d="M109.703 39.707H105.785V43.6286H109.703V39.707Z" fill="#D9D9D9"/>
<path d="M115.094 39.707H111.176V43.6286H115.094V39.707Z" fill="#D9D9D9"/>
<path d="M120.481 39.707H116.562V43.6286H120.481V39.707Z" fill="#D9D9D9"/>
<path d="M125.867 39.707H121.949V43.6286H125.867V39.707Z" fill="#D9D9D9"/>
<path d="M131.254 39.707H127.336V43.6286H131.254V39.707Z" fill="#D9D9D9"/>
<path d="M28.8946 45.0977H24.9766V49.0193H28.8946V45.0977Z" fill="#D9D9D9"/>
<path d="M34.2813 45.0977H30.3633V49.0193H34.2813V45.0977Z" fill="#D9D9D9"/>
<path d="M39.6681 45.0977H35.75V49.0193H39.6681V45.0977Z" fill="#D9D9D9"/>
<path d="M45.0548 45.0977H41.1367V49.0193H45.0548V45.0977Z" fill="#D9D9D9"/>
<path d="M50.4454 45.0977H46.5273V49.0193H50.4454V45.0977Z" fill="#D9D9D9"/>
<path d="M55.8321 45.0977H51.9141V49.0193H55.8321V45.0977Z" fill="#D9D9D9"/>
<path d="M61.2188 45.0977H57.3008V49.0193H61.2188V45.0977Z" fill="#D9D9D9"/>
<path d="M66.6055 45.0977H62.6875V49.0193H66.6055V45.0977Z" fill="#D9D9D9"/>
<path d="M71.9923 45.0977H68.0742V49.0193H71.9923V45.0977Z" fill="#D9D9D9"/>
<path d="M77.379 45.0977H73.4609V49.0193H77.379V45.0977Z" fill="#D9D9D9"/>
<path d="M82.7696 45.0977H78.8516V49.0193H82.7696V45.0977Z" fill="#D9D9D9"/>
<path d="M88.1563 45.0977H84.2383V49.0193H88.1563V45.0977Z" fill="#D9D9D9"/>
<path d="M93.543 45.0977H89.625V49.0193H93.543V45.0977Z" fill="#D9D9D9"/>
<path d="M98.9298 45.0977H95.0117V49.0193H98.9298V45.0977Z" fill="#D9D9D9"/>
<path d="M104.316 45.0977H100.398V49.0193H104.316V45.0977Z" fill="#D9D9D9"/>
<path d="M109.703 45.0977H105.785V49.0193H109.703V45.0977Z" fill="#D9D9D9"/>
<path d="M115.094 45.0977H111.176V49.0193H115.094V45.0977Z" fill="#D9D9D9"/>
<path d="M120.481 45.0977H116.562V49.0193H120.481V45.0977Z" fill="#D9D9D9"/>
<path d="M125.867 45.0977H121.949V49.0193H125.867V45.0977Z" fill="#D9D9D9"/>
<path d="M131.254 45.0977H127.336V49.0193H131.254V45.0977Z" fill="#D9D9D9"/>
<path d="M28.8946 50.4922H24.9766V54.4138H28.8946V50.4922Z" fill="#D9D9D9"/>
<path d="M34.2813 50.4922H30.3633V54.4138H34.2813V50.4922Z" fill="#D9D9D9"/>
<path d="M39.6681 50.4922H35.75V54.4138H39.6681V50.4922Z" fill="#D9D9D9"/>
<path d="M45.0548 50.4922H41.1367V54.4138H45.0548V50.4922Z" fill="#D9D9D9"/>
<path d="M50.4454 50.4922H46.5273V54.4138H50.4454V50.4922Z" fill="#D9D9D9"/>
<path d="M55.8321 50.4922H51.9141V54.4138H55.8321V50.4922Z" fill="#D9D9D9"/>
<path d="M61.2188 50.4922H57.3008V54.4138H61.2188V50.4922Z" fill="#D9D9D9"/>
<path d="M66.6055 50.4922H62.6875V54.4138H66.6055V50.4922Z" fill="#D9D9D9"/>
<path d="M71.9923 50.4922H68.0742V54.4138H71.9923V50.4922Z" fill="#D9D9D9"/>
<path d="M77.379 50.4922H73.4609V54.4138H77.379V50.4922Z" fill="#D9D9D9"/>
<path d="M82.7696 50.4922H78.8516V54.4138H82.7696V50.4922Z" fill="#D9D9D9"/>
<path d="M88.1563 50.4922H84.2383V54.4138H88.1563V50.4922Z" fill="#D9D9D9"/>
<path d="M93.543 50.4922H89.625V54.4138H93.543V50.4922Z" fill="#D9D9D9"/>
<path d="M98.9298 50.4922H95.0117V54.4138H98.9298V50.4922Z" fill="#D9D9D9"/>
<path d="M104.316 50.4922H100.398V54.4138H104.316V50.4922Z" fill="#D9D9D9"/>
<path d="M109.703 50.4922H105.785V54.4138H109.703V50.4922Z" fill="#D9D9D9"/>
<path d="M115.094 50.4922H111.176V54.4138H115.094V50.4922Z" fill="#D9D9D9"/>
<path d="M120.481 50.4922H116.562V54.4138H120.481V50.4922Z" fill="#D9D9D9"/>
<path d="M125.867 50.4922H121.949V54.4138H125.867V50.4922Z" fill="#D9D9D9"/>
<path d="M131.254 50.4922H127.336V54.4138H131.254V50.4922Z" fill="#D9D9D9"/>
<g opacity="0.5">
<path d="M28.8946 55.3945H24.9766V59.3161H28.8946V55.3945Z" fill="#D9D9D9"/>
<path d="M34.2813 55.3945H30.3633V59.3161H34.2813V55.3945Z" fill="#D9D9D9"/>
<path d="M39.6681 55.3945H35.75V59.3161H39.6681V55.3945Z" fill="#D9D9D9"/>
<path d="M45.0548 55.3945H41.1367V59.3161H45.0548V55.3945Z" fill="#D9D9D9"/>
<path d="M50.4454 55.3945H46.5273V59.3161H50.4454V55.3945Z" fill="#D9D9D9"/>
<path d="M55.8321 55.3945H51.9141V59.3161H55.8321V55.3945Z" fill="#D9D9D9"/>
<path d="M61.2188 55.3945H57.3008V59.3161H61.2188V55.3945Z" fill="#D9D9D9"/>
<path d="M66.6055 55.3945H62.6875V59.3161H66.6055V55.3945Z" fill="#D9D9D9"/>
<path d="M71.9923 55.3945H68.0742V59.3161H71.9923V55.3945Z" fill="#D9D9D9"/>
<path d="M77.379 55.3945H73.4609V59.3161H77.379V55.3945Z" fill="#D9D9D9"/>
<path d="M82.7696 55.3945H78.8516V59.3161H82.7696V55.3945Z" fill="#D9D9D9"/>
<path d="M88.1563 55.3945H84.2383V59.3161H88.1563V55.3945Z" fill="#D9D9D9"/>
<path d="M93.5426 55.3945H89.6245V59.3161H93.5426V55.3945Z" fill="#D9D9D9"/>
<path d="M98.9298 55.3945H95.0117V59.3161H98.9298V55.3945Z" fill="#D9D9D9"/>
<path d="M104.316 55.3945H100.398V59.3161H104.316V55.3945Z" fill="#D9D9D9"/>
<path d="M109.703 55.3945H105.785V59.3161H109.703V55.3945Z" fill="#D9D9D9"/>
<path d="M115.094 55.3945H111.176V59.3161H115.094V55.3945Z" fill="#D9D9D9"/>
<path d="M120.481 55.3945H116.562V59.3161H120.481V55.3945Z" fill="#D9D9D9"/>
<path d="M125.867 55.3945H121.949V59.3161H125.867V55.3945Z" fill="#D9D9D9"/>
<path d="M131.254 55.3945H127.336V59.3161H131.254V55.3945Z" fill="#D9D9D9"/>
</g>
<g opacity="0.1">
<path d="M28.8946 60.2969H24.9766V64.2185H28.8946V60.2969Z" fill="#D9D9D9"/>
<path d="M34.2813 60.2969H30.3633V64.2185H34.2813V60.2969Z" fill="#D9D9D9"/>
<path d="M39.6681 60.2969H35.75V64.2185H39.6681V60.2969Z" fill="#D9D9D9"/>
<path d="M45.0548 60.2969H41.1367V64.2185H45.0548V60.2969Z" fill="#D9D9D9"/>
<path d="M50.4454 60.2969H46.5273V64.2185H50.4454V60.2969Z" fill="#D9D9D9"/>
<path d="M55.8321 60.2969H51.9141V64.2185H55.8321V60.2969Z" fill="#D9D9D9"/>
<path d="M61.2188 60.2969H57.3008V64.2185H61.2188V60.2969Z" fill="#D9D9D9"/>
<path d="M66.6055 60.2969H62.6875V64.2185H66.6055V60.2969Z" fill="#D9D9D9"/>
<path d="M71.9923 60.2969H68.0742V64.2185H71.9923V60.2969Z" fill="#D9D9D9"/>
<path d="M77.379 60.2969H73.4609V64.2185H77.379V60.2969Z" fill="#D9D9D9"/>
<path d="M82.7696 60.2969H78.8516V64.2185H82.7696V60.2969Z" fill="#D9D9D9"/>
<path d="M88.1563 60.2969H84.2383V64.2185H88.1563V60.2969Z" fill="#D9D9D9"/>
<path d="M93.5426 60.2969H89.6245V64.2185H93.5426V60.2969Z" fill="#D9D9D9"/>
<path d="M98.9298 60.2969H95.0117V64.2185H98.9298V60.2969Z" fill="#D9D9D9"/>
<path d="M104.316 60.2969H100.398V64.2185H104.316V60.2969Z" fill="#D9D9D9"/>
<path d="M109.703 60.2969H105.785V64.2185H109.703V60.2969Z" fill="#D9D9D9"/>
<path d="M115.094 60.2969H111.176V64.2185H115.094V60.2969Z" fill="#D9D9D9"/>
<path d="M120.481 60.2969H116.562V64.2185H120.481V60.2969Z" fill="#D9D9D9"/>
<path d="M125.867 60.2969H121.949V64.2185H125.867V60.2969Z" fill="#D9D9D9"/>
<path d="M131.254 60.2969H127.336V64.2185H131.254V60.2969Z" fill="#D9D9D9"/>
</g>
<g opacity="0.1">
<path d="M28.8946 65.6875H24.9766V69.6091H28.8946V65.6875Z" fill="#D9D9D9"/>
<path d="M34.2813 65.6875H30.3633V69.6091H34.2813V65.6875Z" fill="#D9D9D9"/>
<path d="M39.6681 65.6875H35.75V69.6091H39.6681V65.6875Z" fill="#D9D9D9"/>
<path d="M45.0548 65.6875H41.1367V69.6091H45.0548V65.6875Z" fill="#D9D9D9"/>
<path d="M50.4454 65.6875H46.5273V69.6091H50.4454V65.6875Z" fill="#D9D9D9"/>
<path d="M55.8321 65.6875H51.9141V69.6091H55.8321V65.6875Z" fill="#D9D9D9"/>
<path d="M61.2188 65.6875H57.3008V69.6091H61.2188V65.6875Z" fill="#D9D9D9"/>
<path d="M66.6055 65.6875H62.6875V69.6091H66.6055V65.6875Z" fill="#D9D9D9"/>
<path d="M71.9923 65.6875H68.0742V69.6091H71.9923V65.6875Z" fill="#D9D9D9"/>
<path d="M77.379 65.6875H73.4609V69.6091H77.379V65.6875Z" fill="#D9D9D9"/>
<path d="M82.7696 65.6875H78.8516V69.6091H82.7696V65.6875Z" fill="#D9D9D9"/>
<path d="M88.1563 65.6875H84.2383V69.6091H88.1563V65.6875Z" fill="#D9D9D9"/>
<path d="M93.5426 65.6875H89.6245V69.6091H93.5426V65.6875Z" fill="#D9D9D9"/>
<path d="M98.9298 65.6875H95.0117V69.6091H98.9298V65.6875Z" fill="#D9D9D9"/>
<path d="M104.316 65.6875H100.398V69.6091H104.316V65.6875Z" fill="#D9D9D9"/>
<path d="M109.703 65.6875H105.785V69.6091H109.703V65.6875Z" fill="#D9D9D9"/>
<path d="M115.094 65.6875H111.176V69.6091H115.094V65.6875Z" fill="#D9D9D9"/>
<path d="M120.481 65.6875H116.562V69.6091H120.481V65.6875Z" fill="#D9D9D9"/>
<path d="M125.867 65.6875H121.949V69.6091H125.867V65.6875Z" fill="#D9D9D9"/>
<path d="M131.254 65.6875H127.336V69.6091H131.254V65.6875Z" fill="#D9D9D9"/>
</g>
<g opacity="0.1">
<path d="M28.8946 71.082H24.9766V75.0036H28.8946V71.082Z" fill="#D9D9D9"/>
<path d="M34.2813 71.082H30.3633V75.0036H34.2813V71.082Z" fill="#D9D9D9"/>
<path d="M39.6681 71.082H35.75V75.0036H39.6681V71.082Z" fill="#D9D9D9"/>
<path d="M45.0548 71.082H41.1367V75.0036H45.0548V71.082Z" fill="#D9D9D9"/>
<path d="M50.4454 71.082H46.5273V75.0036H50.4454V71.082Z" fill="#D9D9D9"/>
<path d="M55.8321 71.082H51.9141V75.0036H55.8321V71.082Z" fill="#D9D9D9"/>
<path d="M61.2188 71.082H57.3008V75.0036H61.2188V71.082Z" fill="#D9D9D9"/>
<path d="M66.6055 71.082H62.6875V75.0036H66.6055V71.082Z" fill="#D9D9D9"/>
<path d="M71.9923 71.082H68.0742V75.0036H71.9923V71.082Z" fill="#D9D9D9"/>
<path d="M77.379 71.082H73.4609V75.0036H77.379V71.082Z" fill="#D9D9D9"/>
<path d="M82.7696 71.082H78.8516V75.0036H82.7696V71.082Z" fill="#D9D9D9"/>
<path d="M88.1563 71.082H84.2383V75.0036H88.1563V71.082Z" fill="#D9D9D9"/>
<path d="M93.5426 71.082H89.6245V75.0036H93.5426V71.082Z" fill="#D9D9D9"/>
<path d="M98.9298 71.082H95.0117V75.0036H98.9298V71.082Z" fill="#D9D9D9"/>
<path d="M104.316 71.082H100.398V75.0036H104.316V71.082Z" fill="#D9D9D9"/>
<path d="M109.703 71.082H105.785V75.0036H109.703V71.082Z" fill="#D9D9D9"/>
<path d="M115.094 71.082H111.176V75.0036H115.094V71.082Z" fill="#D9D9D9"/>
<path d="M120.481 71.082H116.562V75.0036H120.481V71.082Z" fill="#D9D9D9"/>
<path d="M125.867 71.082H121.949V75.0036H125.867V71.082Z" fill="#D9D9D9"/>
<path d="M131.254 71.082H127.336V75.0036H131.254V71.082Z" fill="#D9D9D9"/>
</g>
</mask>
<g mask="url(#mask0_76_2952)">
<path d="M133.702 8.33594H22.5273V77.4545H133.702V8.33594Z" fill="url(#paint17_linear_76_2952)"/>
</g>
<path d="M144.477 86.2773H13.2224C7.54221 86.2773 2.9375 90.8862 2.9375 96.5716V110.297C2.9375 115.983 7.54221 120.591 13.2224 120.591H144.477C150.158 120.591 154.762 115.983 154.762 110.297V96.5716C154.762 90.8862 150.158 86.2773 144.477 86.2773Z" fill="url(#paint18_linear_76_2952)"/>
<g filter="url(#filter0_d_76_2952)">
<path d="M26.5469 104.764V93.0772H31.3508C32.3851 93.0772 33.2691 93.2442 34.0032 93.578C34.7482 93.912 35.3209 94.3905 35.7213 95.0139C36.1217 95.6372 36.3219 96.3773 36.3219 97.2344C36.3219 98.0914 36.1217 98.8317 35.7213 99.455C35.3209 100.078 34.7482 100.557 34.0032 100.891C33.2691 101.225 32.3851 101.392 31.3508 101.392H27.7478L28.7153 100.373V104.764H26.5469ZM28.7153 100.607L27.7478 99.5551H31.2508C32.2071 99.5551 32.9245 99.3548 33.4027 98.954C33.8919 98.5422 34.1365 97.9691 34.1365 97.2344C34.1365 96.4887 33.8919 95.9154 33.4027 95.5147C32.9245 95.114 32.2071 94.9136 31.2508 94.9136H27.7478L28.7153 93.8451V100.607ZM44.1215 104.931C43.2097 104.931 42.3701 104.781 41.6027 104.48C40.8355 104.18 40.1681 103.763 39.6011 103.228C39.0338 102.683 38.5946 102.048 38.2833 101.325C37.9718 100.59 37.8161 99.7888 37.8161 98.9207C37.8161 98.0525 37.9718 97.2566 38.2833 96.5332C38.5946 95.7987 39.0338 95.1642 39.6011 94.6298C40.1681 94.0845 40.8355 93.6616 41.6027 93.3609C42.3701 93.0605 43.2041 92.9102 44.1048 92.9102C45.0167 92.9102 45.8507 93.0605 46.607 93.3609C47.3742 93.6616 48.0416 94.0845 48.6086 94.6298C49.1759 95.1642 49.6151 95.7987 49.9264 96.5332C50.2379 97.2566 50.3936 98.0525 50.3936 98.9207C50.3936 99.7888 50.2379 100.59 49.9264 101.325C49.6151 102.06 49.1759 102.694 48.6086 103.228C48.0416 103.763 47.3742 104.18 46.607 104.48C45.8507 104.781 45.0222 104.931 44.1215 104.931ZM44.1048 103.028C44.6943 103.028 45.2391 102.928 45.7396 102.727C46.24 102.527 46.6737 102.243 47.0407 101.876C47.4078 101.497 47.6913 101.063 47.8914 100.574C48.1027 100.073 48.2083 99.5218 48.2083 98.9207C48.2083 98.3196 48.1027 97.7743 47.8914 97.2846C47.6913 96.7836 47.4078 96.3495 47.0407 95.9821C46.6737 95.6039 46.24 95.3143 45.7396 95.114C45.2391 94.9136 44.6943 94.8135 44.1048 94.8135C43.5154 94.8135 42.9706 94.9136 42.4701 95.114C41.9808 95.3143 41.5471 95.6039 41.169 95.9821C40.8019 96.3495 40.5129 96.7836 40.3016 97.2846C40.1014 97.7743 40.0014 98.3196 40.0014 98.9207C40.0014 99.5106 40.1014 100.056 40.3016 100.557C40.5129 101.058 40.8019 101.497 41.169 101.876C41.536 102.243 41.9697 102.527 42.4701 102.727C42.9706 102.928 43.5154 103.028 44.1048 103.028ZM58.1634 104.931C57.2515 104.931 56.4119 104.781 55.6445 104.48C54.8773 104.18 54.2101 103.763 53.6429 103.228C53.0757 102.683 52.6364 102.048 52.3252 101.325C52.0137 100.59 51.8581 99.7888 51.8581 98.9207C51.8581 98.0525 52.0137 97.2566 52.3252 96.5332C52.6364 95.7987 53.0757 95.1642 53.6429 94.6298C54.2101 94.0845 54.8773 93.6616 55.6445 93.3609C56.4119 93.0605 57.246 92.9102 58.1467 92.9102C59.0587 92.9102 59.8926 93.0605 60.6489 93.3609C61.4163 93.6616 62.0835 94.0845 62.6505 94.6298C63.2177 95.1642 63.657 95.7987 63.9684 96.5332C64.2797 97.2566 64.4355 98.0525 64.4355 98.9207C64.4355 99.7888 64.2797 100.59 63.9684 101.325C63.657 102.06 63.2177 102.694 62.6505 103.228C62.0835 103.763 61.4163 104.18 60.6489 104.48C59.8926 104.781 59.0643 104.931 58.1634 104.931ZM58.1467 103.028C58.7361 103.028 59.2811 102.928 59.7815 102.727C60.2818 102.527 60.7155 102.243 61.0826 101.876C61.4496 101.497 61.7331 101.063 61.9333 100.574C62.1446 100.073 62.2503 99.5218 62.2503 98.9207C62.2503 98.3196 62.1446 97.7743 61.9333 97.2846C61.7331 96.7836 61.4496 96.3495 61.0826 95.9821C60.7155 95.6039 60.2818 95.3143 59.7815 95.114C59.2811 94.9136 58.7361 94.8135 58.1467 94.8135C57.5573 94.8135 57.0125 94.9136 56.5121 95.114C56.0227 95.3143 55.589 95.6039 55.2108 95.9821C54.844 96.3495 54.5547 96.7836 54.3434 97.2846C54.1433 97.7743 54.0433 98.3196 54.0433 98.9207C54.0433 99.5106 54.1433 100.056 54.3434 100.557C54.5547 101.058 54.844 101.497 55.2108 101.876C55.5779 102.243 56.0116 102.527 56.5121 102.727C57.0125 102.928 57.5573 103.028 58.1467 103.028ZM66.734 104.764V93.0772H68.9025V102.928H75.0078V104.764H66.734ZM83.3148 98.4532H89.1364V100.29H83.3148V98.4532ZM83.4983 104.764H81.3297V93.0772H89.8538V94.8969H83.4983V104.764ZM97.2917 104.931C96.3799 104.931 95.5403 104.781 94.7729 104.48C94.0057 104.18 93.3385 103.763 92.7713 103.228C92.204 102.683 91.7648 102.048 91.4535 101.325C91.142 100.59 90.9865 99.7888 90.9865 98.9207C90.9865 98.0525 91.142 97.2566 91.4535 96.5332C91.7648 95.7987 92.204 95.1642 92.7713 94.6298C93.3385 94.0845 94.0057 93.6616 94.7729 93.3609C95.5403 93.0605 96.3743 92.9102 97.2751 92.9102C98.1869 92.9102 99.0209 93.0605 99.7772 93.3609C100.545 93.6616 101.212 94.0845 101.779 94.6298C102.346 95.1642 102.785 95.7987 103.097 96.5332C103.408 97.2566 103.564 98.0525 103.564 98.9207C103.564 99.7888 103.408 100.59 103.097 101.325C102.785 102.06 102.346 102.694 101.779 103.228C101.212 103.763 100.545 104.18 99.7772 104.48C99.0209 104.781 98.1924 104.931 97.2917 104.931ZM97.2751 103.028C97.8645 103.028 98.4093 102.928 98.9098 102.727C99.4102 102.527 99.8439 102.243 100.211 101.876C100.578 101.497 100.861 101.063 101.062 100.574C101.273 100.073 101.378 99.5218 101.378 98.9207C101.378 98.3196 101.273 97.7743 101.062 97.2846C100.861 96.7836 100.578 96.3495 100.211 95.9821C99.8439 95.6039 99.4102 95.3143 98.9098 95.114C98.4093 94.9136 97.8645 94.8135 97.2751 94.8135C96.6856 94.8135 96.1408 94.9136 95.6403 95.114C95.151 95.3143 94.7173 95.6039 94.3392 95.9821C93.9724 96.3495 93.6831 96.7836 93.4718 97.2846C93.2716 97.7743 93.1716 98.3196 93.1716 98.9207C93.1716 99.5106 93.2716 100.056 93.4718 100.557C93.6831 101.058 93.9724 101.497 94.3392 101.876C94.7062 102.243 95.1399 102.527 95.6403 102.727C96.1408 102.928 96.6856 103.028 97.2751 103.028ZM105.862 104.764V93.0772H110.666C111.701 93.0772 112.585 93.2442 113.319 93.578C114.064 93.912 114.636 94.3905 115.037 95.0139C115.437 95.6372 115.637 96.3773 115.637 97.2344C115.637 98.0914 115.437 98.8317 115.037 99.455C114.636 100.067 114.064 100.54 113.319 100.874C112.585 101.197 111.701 101.358 110.666 101.358H107.063L108.031 100.373V104.764H105.862ZM113.502 104.764L110.55 100.524H112.868L115.838 104.764H113.502ZM108.031 100.607L107.063 99.5718H110.566C111.523 99.5718 112.24 99.3659 112.718 98.954C113.207 98.5422 113.452 97.9691 113.452 97.2344C113.452 96.4887 113.207 95.9154 112.718 95.5147C112.24 95.114 111.523 94.9136 110.566 94.9136H107.063L108.031 93.8451V100.607ZM118.064 104.764V93.0772H119.848L124.953 101.609H124.019L129.039 93.0772H130.824L130.841 104.764H128.789L128.773 96.2995H129.206L124.936 103.429H123.969L119.631 96.2995H120.132V104.764H118.064Z" fill="#E7BE89"/>
</g>
<path d="M37.5859 115.785V112.212H39.7057V112.608H38.0359V113.724H38.5659C38.9225 113.724 39.1991 113.769 39.3957 113.859C39.5925 113.946 39.729 114.066 39.8057 114.219C39.8824 114.369 39.9206 114.543 39.9206 114.74C39.9206 114.956 39.8775 115.143 39.7907 115.3C39.7074 115.457 39.5707 115.577 39.3807 115.66C39.1908 115.744 38.9409 115.785 38.6309 115.785H37.5859ZM38.5858 115.4C38.9058 115.4 39.1308 115.347 39.2609 115.24C39.3908 115.13 39.4557 114.963 39.4557 114.74C39.4557 114.586 39.4241 114.464 39.3609 114.374C39.3008 114.281 39.2009 114.214 39.0609 114.174C38.9242 114.134 38.7409 114.114 38.5108 114.114H38.0359V115.4H38.5858ZM42.9016 115.785L42.4715 114.679H41.0568L40.6318 115.785H40.1768L41.5716 112.197H41.9767L43.3665 115.785H42.9016ZM41.9365 113.198C41.9267 113.172 41.9101 113.123 41.8866 113.053C41.8633 112.983 41.84 112.911 41.8167 112.838C41.7966 112.761 41.7799 112.703 41.7667 112.663C41.75 112.73 41.7317 112.798 41.7116 112.868C41.6949 112.935 41.6768 112.997 41.6567 113.053C41.64 113.11 41.6251 113.158 41.6116 113.198L41.2067 114.279H42.3367L41.9365 113.198ZM45.3845 112.558C45.1946 112.558 45.023 112.591 44.8696 112.658C44.7162 112.721 44.5863 112.816 44.4797 112.943C44.3731 113.067 44.2913 113.218 44.2347 113.398C44.1781 113.575 44.1497 113.775 44.1497 113.999C44.1497 114.292 44.1947 114.548 44.2847 114.765C44.378 114.981 44.5148 115.148 44.6947 115.265C44.878 115.382 45.1064 115.44 45.3796 115.44C45.5362 115.44 45.6845 115.427 45.8246 115.4C45.9646 115.373 46.1011 115.34 46.2344 115.3V115.69C46.1011 115.74 45.9628 115.777 45.8195 115.8C45.6796 115.824 45.5112 115.835 45.3147 115.835C44.9513 115.835 44.6481 115.76 44.4048 115.61C44.1614 115.46 43.9781 115.247 43.8548 114.97C43.7348 114.693 43.6747 114.367 43.6747 113.994C43.6747 113.724 43.7115 113.477 43.7848 113.253C43.8615 113.03 43.9715 112.836 44.1148 112.673C44.2614 112.509 44.4413 112.384 44.6547 112.298C44.8679 112.208 45.113 112.162 45.3896 112.162C45.5729 112.162 45.7496 112.181 45.9195 112.218C46.0895 112.254 46.2412 112.306 46.3745 112.373L46.1944 112.753C46.0844 112.703 45.9611 112.658 45.8246 112.618C45.6913 112.578 45.5445 112.558 45.3845 112.558ZM48.4458 112.558C48.2559 112.558 48.0841 112.591 47.9307 112.658C47.7775 112.721 47.6474 112.816 47.5408 112.943C47.4342 113.067 47.3526 113.218 47.296 113.398C47.2391 113.575 47.2109 113.775 47.2109 113.999C47.2109 114.292 47.2558 114.548 47.346 114.765C47.4391 114.981 47.5758 115.148 47.7557 115.265C47.939 115.382 48.1674 115.44 48.4407 115.44C48.5975 115.44 48.7457 115.427 48.8857 115.4C49.0256 115.373 49.1624 115.34 49.2957 115.3V115.69C49.1624 115.74 49.0239 115.777 48.8808 115.8C48.7406 115.824 48.5725 115.835 48.3757 115.835C48.0125 115.835 47.7092 115.76 47.4658 115.61C47.2225 115.46 47.0392 115.247 46.9159 114.97C46.7958 114.693 46.736 114.367 46.736 113.994C46.736 113.724 46.7726 113.477 46.8458 113.253C46.9225 113.03 47.0326 112.836 47.1759 112.673C47.3225 112.509 47.5026 112.384 47.7158 112.298C47.9292 112.208 48.174 112.162 48.4507 112.162C48.634 112.162 48.8107 112.181 48.9808 112.218C49.1506 112.254 49.3023 112.306 49.4356 112.373L49.2557 112.753C49.1457 112.703 49.0224 112.658 48.8857 112.618C48.7524 112.578 48.6058 112.558 48.4458 112.558ZM52.0694 115.785H50.0748V112.212H52.0694V112.608H50.5247V113.724H51.9794V114.114H50.5247V115.39H52.0694V115.785ZM55.2875 111.102C55.274 111.268 55.2324 111.409 55.1625 111.522C55.0958 111.636 54.9959 111.72 54.8625 111.777C54.7292 111.834 54.5557 111.862 54.3425 111.862C54.1259 111.862 53.9509 111.834 53.8176 111.777C53.6875 111.72 53.5927 111.637 53.5326 111.527C53.4726 111.414 53.4361 111.272 53.4226 111.102H53.8326C53.8492 111.282 53.8958 111.403 53.9725 111.467C54.0526 111.527 54.1793 111.557 54.3526 111.557C54.5058 111.557 54.6258 111.525 54.7126 111.462C54.8025 111.395 54.8557 111.275 54.8724 111.102H55.2875ZM52.8577 112.212H53.2777V114.174C53.2777 114.258 53.276 114.349 53.2726 114.449C53.2726 114.546 53.2709 114.643 53.2677 114.74C53.2643 114.836 53.2594 114.923 53.2527 115C53.2493 115.073 53.2459 115.13 53.2427 115.17H53.2626L55.2274 112.212H55.7274V115.785H55.3073V113.844C55.3073 113.754 55.3091 113.657 55.3125 113.554C55.3157 113.447 55.3191 113.345 55.3223 113.248C55.3291 113.148 55.334 113.06 55.3375 112.983C55.3407 112.906 55.3441 112.85 55.3475 112.813H55.3274L53.3576 115.785H52.8577V112.212ZM59.4197 115.785H58.9698V114.119H57.1402V115.785H56.69V112.212H57.1402V113.724H58.9698V112.212H59.4197V115.785ZM60.3957 115.785V112.212H60.8456V113.724H61.3957C61.729 113.724 61.9905 113.769 62.1804 113.859C62.3738 113.949 62.5105 114.071 62.5904 114.224C62.6737 114.378 62.7154 114.549 62.7154 114.74C62.7154 114.95 62.6705 115.133 62.5804 115.29C62.4938 115.447 62.3571 115.569 62.1706 115.655C61.9839 115.742 61.744 115.785 61.4506 115.785H60.3957ZM61.4107 115.405C61.6972 115.405 61.9089 115.35 62.0456 115.24C62.1821 115.13 62.2505 114.963 62.2505 114.74C62.2505 114.586 62.2172 114.464 62.1505 114.374C62.0873 114.284 61.9888 114.219 61.8555 114.179C61.7222 114.139 61.5523 114.119 61.3455 114.119H60.8456V115.405H61.4107ZM63.2653 115.785V112.212H63.7152V115.785H63.2653Z" fill="#FFF1DE"/>
<path d="M70.9285 113.016C70.7386 113.016 70.5668 113.05 70.4136 113.117C70.2603 113.18 70.1304 113.275 70.0235 113.402C69.9169 113.525 69.8353 113.677 69.7787 113.857C69.7219 114.034 69.6937 114.234 69.6937 114.458C69.6937 114.751 69.7385 115.006 69.8287 115.223C69.9221 115.44 70.0586 115.607 70.2387 115.724C70.422 115.84 70.6502 115.899 70.9234 115.899C71.0802 115.899 71.2285 115.885 71.3684 115.859C71.5084 115.832 71.6451 115.799 71.7784 115.759V116.149C71.6451 116.199 71.5069 116.236 71.3635 116.259C71.2236 116.282 71.0552 116.294 70.8585 116.294C70.4953 116.294 70.1919 116.219 69.9485 116.069C69.7052 115.919 69.5219 115.705 69.3986 115.428C69.2788 115.151 69.2188 114.826 69.2188 114.453C69.2188 114.182 69.2553 113.936 69.3288 113.712C69.4053 113.488 69.5153 113.295 69.6586 113.132C69.8052 112.968 69.9853 112.843 70.1985 112.756C70.4119 112.666 70.6568 112.621 70.9334 112.621C71.1167 112.621 71.2934 112.639 71.4635 112.676C71.6333 112.713 71.785 112.765 71.9183 112.831L71.7384 113.211C71.6284 113.161 71.5052 113.117 71.3684 113.077C71.2351 113.036 71.0885 113.016 70.9285 113.016ZM74.7972 116.244L74.3673 115.138H72.9524L72.5274 116.244H72.0726L73.4675 112.656H73.8723L75.2623 116.244H74.7972ZM73.8324 113.657C73.8223 113.63 73.8056 113.582 73.7824 113.512C73.7591 113.442 73.7356 113.37 73.7123 113.297C73.6924 113.22 73.6758 113.161 73.6623 113.121C73.6456 113.188 73.6273 113.257 73.6074 113.327C73.5907 113.393 73.5724 113.455 73.5523 113.512C73.5356 113.569 73.5207 113.617 73.5074 113.657L73.1023 114.738H74.2323L73.8324 113.657ZM77.2453 115.228C77.1387 115.465 77.0304 115.664 76.9203 115.824C76.8137 115.98 76.687 116.099 76.5403 116.179C76.3937 116.256 76.207 116.294 75.9805 116.294C75.8872 116.294 75.7987 116.287 75.7154 116.274C75.6355 116.261 75.5622 116.242 75.4956 116.219V115.774C75.5622 115.804 75.6338 115.829 75.7105 115.849C75.7872 115.865 75.8671 115.874 75.9504 115.874C76.0737 115.874 76.1788 115.857 76.2653 115.824C76.3555 115.787 76.4337 115.729 76.5003 115.649C76.5704 115.568 76.6353 115.462 76.6954 115.328L75.3206 112.671H75.8154L76.8103 114.638C76.8236 114.661 76.837 114.689 76.8503 114.723C76.8637 114.753 76.877 114.784 76.8902 114.818C76.9069 114.851 76.9203 114.883 76.9304 114.913H76.9502C76.9603 114.889 76.9703 114.863 76.9804 114.833C76.9936 114.799 77.0054 114.768 77.0152 114.738C77.0287 114.704 77.0402 114.676 77.0502 114.653L77.9101 112.671H78.3851L77.2453 115.228ZM81.6 116.244H81.1498V114.578H79.3202V116.244H78.8702V112.671H79.3202V114.182H81.1498V112.671H81.6V116.244ZM82.5759 116.244V112.671H83.0258V114.182H83.5757C83.909 114.182 84.1705 114.227 84.3606 114.317C84.554 114.407 84.6905 114.529 84.7706 114.683C84.8539 114.836 84.8956 115.008 84.8956 115.198C84.8956 115.408 84.8505 115.592 84.7606 115.749C84.6738 115.905 84.5373 116.027 84.3506 116.114C84.1639 116.2 83.924 116.244 83.6306 116.244H82.5759ZM83.5907 115.864C83.8774 115.864 84.0889 115.809 84.2256 115.699C84.3624 115.588 84.4305 115.422 84.4305 115.198C84.4305 115.045 84.3972 114.923 84.3305 114.833C84.2673 114.743 84.169 114.678 84.0357 114.638C83.9024 114.598 83.7323 114.578 83.5257 114.578H83.0258V115.864H83.5907ZM85.4455 116.244V112.671H85.8954V116.244H85.4455Z" fill="#FFF1DE"/>
<path d="M92.7449 113.016C92.5548 113.016 92.3832 113.05 92.2298 113.117C92.0767 113.18 91.9466 113.275 91.8399 113.402C91.7333 113.525 91.6517 113.677 91.5951 113.857C91.5383 114.034 91.5101 114.234 91.5101 114.458C91.5101 114.751 91.555 115.006 91.6451 115.223C91.7383 115.44 91.875 115.607 92.0549 115.724C92.2382 115.84 92.4666 115.899 92.7398 115.899C92.8966 115.899 93.0449 115.885 93.1848 115.859C93.3248 115.832 93.4615 115.799 93.5948 115.759V116.149C93.4615 116.199 93.3231 116.236 93.1799 116.259C93.0398 116.282 92.8716 116.294 92.6749 116.294C92.3117 116.294 92.0083 116.219 91.765 116.069C91.5216 115.919 91.3383 115.705 91.215 115.428C91.095 115.151 91.0352 114.826 91.0352 114.453C91.0352 114.182 91.0717 113.936 91.145 113.712C91.2217 113.488 91.3317 113.295 91.475 113.132C91.6216 112.968 91.8017 112.843 92.0149 112.756C92.2283 112.666 92.4732 112.621 92.7498 112.621C92.9332 112.621 93.1098 112.639 93.2799 112.676C93.4497 112.713 93.6014 112.765 93.7347 112.831L93.5549 113.211C93.4448 113.161 93.3216 113.117 93.1848 113.077C93.0515 113.036 92.905 113.016 92.7449 113.016ZM94.374 116.244V112.671H97.0535V116.244H96.6087V113.067H94.8239V116.244H94.374ZM100.27 116.244L99.8404 115.138H98.4257L98.0005 116.244H97.5457L98.9406 112.656H99.3454L100.735 116.244H100.27ZM99.3055 113.657C99.2954 113.63 99.2788 113.582 99.2555 113.512C99.2322 113.442 99.2089 113.37 99.1854 113.297C99.1655 113.22 99.1489 113.161 99.1354 113.121C99.1187 113.188 99.1006 113.257 99.0805 113.327C99.0638 113.393 99.0455 113.455 99.0256 113.512C99.0089 113.569 98.9938 113.617 98.9805 113.657L98.5757 114.738H99.7054L99.3055 113.657Z" fill="#FFF1DE"/>
<path d="M105.984 116.014V112.441H108.104V112.836H106.434V113.952H106.964C107.321 113.952 107.598 113.997 107.794 114.087C107.991 114.174 108.127 114.294 108.204 114.447C108.281 114.598 108.319 114.771 108.319 114.968C108.319 115.184 108.276 115.371 108.189 115.528C108.106 115.685 107.969 115.805 107.779 115.888C107.589 115.972 107.339 116.014 107.029 116.014H105.984ZM106.984 115.628C107.304 115.628 107.529 115.575 107.659 115.468C107.789 115.358 107.854 115.191 107.854 114.968C107.854 114.814 107.823 114.692 107.759 114.602C107.699 114.509 107.599 114.442 107.459 114.402C107.323 114.362 107.139 114.342 106.909 114.342H106.434V115.628H106.984ZM111.3 116.014L110.87 114.908H109.455L109.03 116.014H108.575L109.97 112.426H110.375L111.765 116.014H111.3ZM110.335 113.427C110.325 113.4 110.308 113.351 110.285 113.281C110.262 113.211 110.238 113.14 110.215 113.066C110.195 112.989 110.178 112.931 110.165 112.891C110.148 112.958 110.13 113.026 110.11 113.096C110.093 113.163 110.075 113.225 110.055 113.281C110.038 113.338 110.023 113.387 110.01 113.427L109.605 114.507H110.735L110.335 113.427ZM114.983 116.014H114.533V114.347H112.703V116.014H112.253V112.441H112.703V113.952H114.533V112.441H114.983V116.014ZM115.964 112.441H116.384V114.402C116.384 114.486 116.382 114.577 116.379 114.677C116.379 114.774 116.377 114.871 116.374 114.968C116.37 115.065 116.365 115.151 116.359 115.228C116.355 115.301 116.352 115.358 116.349 115.398H116.369L118.334 112.441H118.833V116.014H118.413V114.072C118.413 113.982 118.415 113.885 118.418 113.782C118.422 113.675 118.425 113.573 118.428 113.477C118.435 113.376 118.44 113.288 118.443 113.211C118.447 113.135 118.45 113.078 118.453 113.041H118.434L116.464 116.014H115.964V112.441Z" fill="#FFF1DE"/>
<path d="M66.7556 114.961C67.0694 114.961 67.3237 114.707 67.3237 114.393C67.3237 114.079 67.0694 113.824 66.7556 113.824C66.4419 113.824 66.1875 114.079 66.1875 114.393C66.1875 114.707 66.4419 114.961 66.7556 114.961Z" fill="url(#paint19_linear_76_2952)"/>
<path d="M88.3416 114.961C88.6553 114.961 88.9097 114.707 88.9097 114.393C88.9097 114.079 88.6553 113.824 88.3416 113.824C88.0278 113.824 87.7734 114.079 87.7734 114.393C87.7734 114.707 88.0278 114.961 88.3416 114.961Z" fill="#D9BA6E"/>
<path d="M103.342 114.961C103.655 114.961 103.91 114.707 103.91 114.393C103.91 114.079 103.655 113.824 103.342 113.824C103.028 113.824 102.773 114.079 102.773 114.393C102.773 114.707 103.028 114.961 103.342 114.961Z" fill="url(#paint20_linear_76_2952)"/>
<path d="M53.7952 47.7406C44.1952 50.7256 23.0553 64.8339 12.8086 68.2525C19.355 68.5238 24.2181 70.5315 34.4403 62.8396C44.6445 55.1614 53.7952 52.2988 62.0493 52.2988C80.2657 52.2988 79.6963 54.5778 101.043 63.9791C118.121 71.5002 138.899 74.2217 142.03 75.0762C151.707 79.9194 161.954 80.8825 165.939 79.648C161.1 79.4581 150.455 78.3945 146.584 75.6595C142.713 72.9246 142.019 73.0195 140.038 72.8106C134.63 72.2409 124.668 68.3555 120.114 66.8281C112.429 64.2505 97.1537 56.8518 89.943 52.8686C100.474 56.8569 103.024 58.07 119.26 65.1187C132.353 70.8029 147.438 71.8609 153.7 71.1014C120.683 69.1072 110.721 56.2872 97.0586 50.0197C83.3966 43.7521 65.7495 44.0235 53.7952 47.7406Z" fill="url(#paint21_linear_76_2952)"/>
<path d="M36.7172 65.4049C25.7873 73.1539 7.68497 72.2424 0 70.8178C3.87094 74.0086 13.7571 74.9961 18.2162 75.0913C22.8653 75.1862 33.9328 73.6261 42.1251 68.2539C50.3792 62.841 58.0643 61.1182 65.7492 60.562C79.1269 61.4032 82.721 65.4877 93.2523 69.1913C101.677 72.154 113.567 73.3819 118.015 74.3193C119.544 74.6414 135.768 80.5041 144.307 78.7947C133.206 79.3509 127.152 73.4884 119.259 72.2424C110.151 70.8043 102.466 69.1913 99.0507 66.8295C89.3734 61.4032 75.4266 55.4205 68.3108 55.1491C62.2305 54.9171 50.3792 55.7188 36.7172 65.4049Z" fill="url(#paint22_linear_76_2952)"/>
<path d="M38.9942 73.9526C28.7475 79.8785 8.53885 80.2202 0 79.6505C5.31307 81.2648 18.4439 84.0947 28.4629 82.4993C40.9866 80.5052 49.5255 74.8074 50.664 74.2377C51.8025 73.6678 61.2873 69.102 70.588 70.534C77.9884 71.6736 83.373 76.6919 95.6352 78.226C100.189 78.7958 114.201 78.5608 115.844 78.7958C119.412 79.306 122.763 81.051 125.261 82.2512C125.991 82.6019 126.795 82.7578 127.605 82.733L135.199 82.4993C131.214 81.6313 126.945 81.3463 125.237 80.5052C121.821 77.9277 116.325 75.4942 107.874 75.6621C94.2122 75.9334 81.5789 69.1548 72.5802 65.9759C62.9029 62.5573 51.8025 66.5456 38.9942 73.9526Z" fill="url(#paint23_linear_76_2952)"/>
<path d="M57.7783 75.9468C47.987 80.9609 37.1902 84.1135 33.0156 85.0631C38.2526 85.0631 41.5545 84.1951 54.3628 80.2067C58.0628 78.7823 62.3322 78.8253 65.1786 79.0671C72.2944 79.6719 77.2594 84.4496 82.8257 85.9178C87.0951 87.0441 91.3645 87.8986 97.6264 86.4742L116.696 82.2144C104.173 82.898 94.2107 83.0556 87.3797 80.4915C75.7099 75.3635 67.5695 70.9328 57.7783 75.9468Z" fill="url(#paint24_linear_76_2952)"/>
</g>
<defs>
<filter id="filter0_d_76_2952" x="16.5082" y="89.5639" width="128.833" height="36.5604" filterUnits="userSpaceOnUse" color-interpolation-filters="sRGB">
<feFlood flood-opacity="0" result="BackgroundImageFix"/>
<feColorMatrix in="SourceAlpha" type="matrix" values="0 0 0 0 0 0 0 0 0 0 0 0 0 0 0 0 0 0 127 0" result="hardAlpha"/>
<feOffset dx="2.23081" dy="8.92325"/>
<feGaussianBlur stdDeviation="6.13474"/>
<feComposite in2="hardAlpha" operator="out"/>
<feColorMatrix type="matrix" values="0 0 0 0 0 0 0 0 0 0.203172 0 0 0 0 0.4125 0 0 0 0.88 0"/>
<feBlend mode="normal" in2="BackgroundImageFix" result="effect1_dropShadow_76_2952"/>
<feBlend mode="normal" in="SourceGraphic" in2="effect1_dropShadow_76_2952" result="shape"/>
</filter>
<linearGradient id="paint0_linear_76_2952" x1="46.0374" y1="0" x2="46.0374" y2="36.275" gradientUnits="userSpaceOnUse">
<stop stop-color="#A88455"/>
<stop offset="1" stop-color="#FEDDA9"/>
</linearGradient>
<linearGradient id="paint1_linear_76_2952" x1="104.318" y1="5.88281" x2="104.318" y2="42.1578" gradientUnits="userSpaceOnUse">
<stop stop-color="#A88455"/>
<stop offset="1" stop-color="#FEDDA9"/>
</linearGradient>
<linearGradient id="paint2_linear_76_2952" x1="18.1192" y1="13.7266" x2="18.1192" y2="42.1583" gradientUnits="userSpaceOnUse">
<stop stop-color="#A88455"/>
<stop offset="1" stop-color="#FEDDA9"/>
</linearGradient>
<linearGradient id="paint3_linear_76_2952" x1="28.4062" y1="113.727" x2="28.4062" y2="135.786" gradientUnits="userSpaceOnUse">
<stop stop-color="#A88455"/>
<stop offset="1" stop-color="#FEDDA9"/>
</linearGradient>
<linearGradient id="paint4_linear_76_2952" x1="41.3827" y1="107.844" x2="41.3827" y2="129.903" gradientUnits="userSpaceOnUse">
<stop stop-color="#A88455"/>
<stop offset="1" stop-color="#FEDDA9"/>
</linearGradient>
<linearGradient id="paint5_linear_76_2952" x1="129.051" y1="129.904" x2="129.051" y2="93.6289" gradientUnits="userSpaceOnUse">
<stop stop-color="#0FADDF"/>
<stop offset="1" stop-color="#0485C9"/>
</linearGradient>
<linearGradient id="paint6_linear_76_2952" x1="10.2852" y1="60.2956" x2="14.2032" y2="60.2956" gradientUnits="userSpaceOnUse">
<stop stop-color="#0FADDF"/>
<stop offset="1" stop-color="#0485C9"/>
</linearGradient>
<linearGradient id="paint7_linear_76_2952" x1="136.152" y1="55.392" x2="140.071" y2="55.392" gradientUnits="userSpaceOnUse">
<stop stop-color="#0FADDF"/>
<stop offset="1" stop-color="#0485C9"/>
</linearGradient>
<linearGradient id="paint8_linear_76_2952" x1="142.031" y1="80.8852" x2="145.949" y2="80.8852" gradientUnits="userSpaceOnUse">
<stop stop-color="#0FADDF"/>
<stop offset="1" stop-color="#0485C9"/>
</linearGradient>
<linearGradient id="paint9_linear_76_2952" x1="142.031" y1="126.227" x2="145.949" y2="126.227" gradientUnits="userSpaceOnUse">
<stop stop-color="#0FADDF"/>
<stop offset="1" stop-color="#0485C9"/>
</linearGradient>
<linearGradient id="paint10_linear_76_2952" x1="16.1602" y1="54.6566" x2="20.0782" y2="54.6566" gradientUnits="userSpaceOnUse">
<stop stop-color="#0FADDF"/>
<stop offset="1" stop-color="#0485C9"/>
</linearGradient>
<linearGradient id="paint11_linear_76_2952" x1="57.058" y1="5.88281" x2="57.058" y2="9.80444" gradientUnits="userSpaceOnUse">
<stop stop-color="#0FADDF"/>
<stop offset="1" stop-color="#0485C9"/>
</linearGradient>
<linearGradient id="paint12_linear_76_2952" x1="55.6552" y1="131.938" x2="55.6552" y2="135.859" gradientUnits="userSpaceOnUse">
<stop stop-color="#0FADDF"/>
<stop offset="1" stop-color="#0485C9"/>
</linearGradient>
<linearGradient id="paint13_linear_76_2952" x1="16.1602" y1="69.8525" x2="20.0782" y2="69.8525" gradientUnits="userSpaceOnUse">
<stop stop-color="#0FADDF"/>
<stop offset="1" stop-color="#0485C9"/>
</linearGradient>
<linearGradient id="paint14_linear_76_2952" x1="90.849" y1="131.863" x2="90.849" y2="135.785" gradientUnits="userSpaceOnUse">
<stop stop-color="#A88455"/>
<stop offset="1" stop-color="#FEDDA9"/>
</linearGradient>
<linearGradient id="paint15_linear_76_2952" x1="129.787" y1="0" x2="129.787" y2="56.8636" gradientUnits="userSpaceOnUse">
<stop stop-color="#A88455"/>
<stop offset="1" stop-color="#FEDDA9"/>
</linearGradient>
<linearGradient id="paint16_linear_76_2952" x1="30.9796" y1="5.98828" x2="30.9796" y2="11.1204" gradientUnits="userSpaceOnUse">
<stop stop-color="#A88455"/>
<stop offset="1" stop-color="#FEDDA9"/>
</linearGradient>
<linearGradient id="paint17_linear_76_2952" x1="49.9836" y1="4.55601" x2="116.312" y2="70.3523" gradientUnits="userSpaceOnUse">
<stop stop-color="#1499C8"/>
<stop offset="0.0853791" stop-color="#1D8FBC"/>
<stop offset="0.218009" stop-color="#146890"/>
<stop offset="0.505117" stop-color="#135376"/>
<stop offset="0.655837" stop-color="#074869"/>
<stop offset="0.767522" stop-color="#013C64"/>
<stop offset="1" stop-color="#175992"/>
</linearGradient>
<linearGradient id="paint18_linear_76_2952" x1="11.5082" y1="87.8371" x2="155.187" y2="110.048" gradientUnits="userSpaceOnUse">
<stop stop-color="#10587C"/>
<stop offset="0.395833" stop-color="#043B6F"/>
<stop offset="0.723958" stop-color="#003251"/>
<stop offset="1" stop-color="#004F88"/>
</linearGradient>
<linearGradient id="paint19_linear_76_2952" x1="66.7556" y1="113.824" x2="66.7556" y2="114.961" gradientUnits="userSpaceOnUse">
<stop stop-color="#A88455"/>
<stop offset="1" stop-color="#FEDDA9"/>
</linearGradient>
<linearGradient id="paint20_linear_76_2952" x1="103.342" y1="113.824" x2="103.342" y2="114.961" gradientUnits="userSpaceOnUse">
<stop stop-color="#A88455"/>
<stop offset="1" stop-color="#FEDDA9"/>
</linearGradient>
<linearGradient id="paint21_linear_76_2952" x1="89.3737" y1="45.0977" x2="89.3737" y2="80.1358" gradientUnits="userSpaceOnUse">
<stop stop-color="#A88455"/>
<stop offset="1" stop-color="#FEDDA9"/>
</linearGradient>
<linearGradient id="paint22_linear_76_2952" x1="72.1534" y1="55.1172" x2="72.1534" y2="79.1065" gradientUnits="userSpaceOnUse">
<stop stop-color="#A88455"/>
<stop offset="1" stop-color="#FEDDA9"/>
</linearGradient>
<linearGradient id="paint23_linear_76_2952" x1="67.5993" y1="64.7383" x2="67.5993" y2="82.9712" gradientUnits="userSpaceOnUse">
<stop stop-color="#A88455"/>
<stop offset="1" stop-color="#FEDDA9"/>
</linearGradient>
<linearGradient id="paint24_linear_76_2952" x1="74.8561" y1="73.7461" x2="74.8561" y2="87.2211" gradientUnits="userSpaceOnUse">
<stop stop-color="#A88455"/>
<stop offset="1" stop-color="#FEDDA9"/>
</linearGradient>
<clipPath id="clip0_76_2952">
<rect width="166" height="136" fill="white"/>
</clipPath>
</defs>
</svg>
