<svg width="28" height="28" viewBox="0 0 28 28" fill="none" xmlns="http://www.w3.org/2000/svg">
<path d="M27.3468 12.8939V23.3339C27.3468 24.0272 27.1601 24.6939 26.8535 25.2672L25.2535 23.8939L18.2935 17.9339L25.0668 11.8805L26.5735 10.5339C27.0668 11.2139 27.3468 12.0272 27.3468 12.8939Z" fill="#F6CA95"/>
<path d="M25.48 26.7066C24.8667 27.1066 24.12 27.3333 23.3334 27.3333H4.68003C3.96003 27.3333 3.28003 27.1333 2.69336 26.8L4.44003 25.3066L11.3334 19.3733L11.5467 19.56C12.24 20.1733 13.12 20.48 14 20.48C14.88 20.48 15.7734 20.1733 16.48 19.5466L16.7867 19.28L23.8 25.2666L25.48 26.7066Z" fill="#F6CA95"/>
<path d="M9.84017 18.0269L2.82684 24.0669L1.26684 25.4135C0.893502 24.8002 0.680176 24.0935 0.680176 23.3335V12.8935C0.680176 12.0402 0.946842 11.2269 1.44018 10.5469L2.94684 11.8935L9.84017 18.0269Z" fill="#F6CA95"/>
<path d="M23.6002 0.666687H4.41357C3.86691 0.666687 3.41357 1.12002 3.41357 1.66669V9.61335L4.01358 10.1467L5.40025 11.3867L12.8669 18.0534C13.5202 18.6267 14.5069 18.6267 15.1469 18.0534L22.6136 11.3867L24.0136 10.1334L24.6002 9.61335V1.66669C24.6002 1.12002 24.1469 0.666687 23.6002 0.666687ZM8.52024 4.77335H9.89358C10.4536 4.77335 10.8936 5.22669 10.8936 5.77335C10.8936 6.33335 10.4536 6.77335 9.89358 6.77335H8.52024C7.97358 6.77335 7.52024 6.33335 7.52024 5.77335C7.52024 5.22669 7.97358 4.77335 8.52024 4.77335ZM19.4936 10.8934H8.52024C7.97358 10.8934 7.52024 10.44 7.52024 9.89335C7.52024 9.33335 7.97358 8.89335 8.52024 8.89335H19.4936C20.0402 8.89335 20.4936 9.33335 20.4936 9.89335C20.4936 10.44 20.0402 10.8934 19.4936 10.8934Z" fill="#F6CA95"/>
</svg>
