<svg width="25" height="24" viewBox="0 0 25 24" fill="none" xmlns="http://www.w3.org/2000/svg">
<path d="M10.2741 20.3346C9.61864 20.3346 9.73008 20.0871 9.504 19.463L7.57666 13.1201L22.4127 4.31842" fill="#B78E5A"/>
<path d="M10.2742 20.3346C10.7799 20.3346 11.0033 20.1033 11.2857 19.8289L13.9832 17.2059L10.6184 15.1769" fill="#E6B77F"/>
<path d="M10.6186 15.1773L18.7717 21.2009C19.7022 21.7143 20.3735 21.4484 20.6053 20.3373L23.9241 4.69817C24.2638 3.33595 23.4048 2.71789 22.5146 3.122L3.02712 10.6363C1.69693 11.1699 1.70485 11.912 2.78468 12.2427L7.78562 13.8036L19.3633 6.4994C19.9099 6.16795 20.4116 6.34598 19.9999 6.71149" fill="#FEDDA9"/>
</svg>
