<svg width="25" height="24" viewBox="0 0 25 24" fill="none" xmlns="http://www.w3.org/2000/svg">
<path d="M22.51 11.17V19C22.51 19.52 22.37 20.02 22.14 20.45L20.94 19.42L15.72 14.95L20.8 10.41L21.93 9.39999C22.3 9.90999 22.51 10.52 22.51 11.17Z" fill="#F6CA95"/>
<path d="M21.11 21.53C20.65 21.83 20.09 22 19.5 22H5.51003C4.97003 22 4.46002 21.85 4.02002 21.6L5.33002 20.48L10.5 16.03L10.66 16.17C11.18 16.63 11.84 16.86 12.5 16.86C13.16 16.86 13.83 16.63 14.36 16.16L14.59 15.96L19.85 20.45L21.11 21.53Z" fill="#F6CA95"/>
<path d="M9.38 15.02L4.12001 19.55L2.95 20.56C2.67 20.1 2.51001 19.57 2.51001 19V11.17C2.51001 10.53 2.71001 9.92 3.08001 9.41L4.21001 10.42L9.38 15.02Z" fill="#F6CA95"/>
<path d="M19.7001 2H5.31006C4.90006 2 4.56006 2.34 4.56006 2.75V8.71L5.01006 9.11L6.05006 10.04L11.6501 15.04C12.1401 15.47 12.8801 15.47 13.3601 15.04L18.9601 10.04L20.0101 9.1L20.4501 8.71V2.75C20.4501 2.34 20.1101 2 19.7001 2ZM8.39006 5.08H9.42006C9.84006 5.08 10.1701 5.42 10.1701 5.83C10.1701 6.25 9.84006 6.58 9.42006 6.58H8.39006C7.98006 6.58 7.64006 6.25 7.64006 5.83C7.64006 5.42 7.98006 5.08 8.39006 5.08ZM16.6201 9.67H8.39006C7.98006 9.67 7.64006 9.33 7.64006 8.92C7.64006 8.5 7.98006 8.17 8.39006 8.17H16.6201C17.0301 8.17 17.3701 8.5 17.3701 8.92C17.3701 9.33 17.0301 9.67 16.6201 9.67Z" fill="#F6CA95"/>
</svg>
