<svg width="25" height="24" viewBox="0 0 25 24" fill="none" xmlns="http://www.w3.org/2000/svg">
<path fill-rule="evenodd" clip-rule="evenodd" d="M17.289 14.0844C17.0289 13.9542 15.7502 13.3252 15.5117 13.2384C15.2733 13.1517 15.1 13.1083 14.9266 13.3686C14.7532 13.6289 14.2547 14.2145 14.103 14.3881C13.9513 14.5616 13.7996 14.5833 13.5395 14.4531C13.2794 14.323 12.4413 14.0484 11.4479 13.1626C10.6747 12.4732 10.1527 11.6216 10.001 11.3614C9.84926 11.1011 9.98481 10.9604 10.1151 10.8307C10.232 10.7143 10.3751 10.5271 10.5052 10.3752C10.6352 10.2234 10.6786 10.1149 10.7653 9.94141C10.852 9.76786 10.8086 9.61601 10.7436 9.48586C10.6786 9.35571 10.1584 8.07592 9.94166 7.55533C9.73056 7.04833 9.51611 7.11693 9.35646 7.10898C9.20491 7.10143 9.03136 7.09983 8.85796 7.09983C8.68457 7.09983 8.40282 7.16493 8.16437 7.42518C7.92597 7.68548 7.25408 8.31457 7.25408 9.59431C7.25408 10.8741 8.18607 12.1105 8.31612 12.284C8.44617 12.4576 10.1502 15.0839 12.7592 16.2101C13.3798 16.478 13.8643 16.638 14.242 16.7579C14.8651 16.9557 15.4321 16.9278 15.8802 16.8609C16.3799 16.7862 17.4191 16.2318 17.6358 15.6245C17.8525 15.0171 17.8525 14.4965 17.7875 14.3881C17.7225 14.2796 17.5491 14.2145 17.289 14.0844ZM12.5446 20.562H12.5411C10.9886 20.5614 9.46589 20.1445 8.13755 19.3565L7.8216 19.169L4.54707 20.0277L5.42112 16.8361L5.21537 16.5089C4.34933 15.1318 3.89193 13.5402 3.89258 11.9059C3.89448 7.13716 7.7757 3.25744 12.548 3.25744C14.8589 3.25834 17.0312 4.15918 18.6647 5.79397C20.2982 7.42881 21.1973 9.60189 21.1964 11.9129C21.1944 16.682 17.3132 20.562 12.5446 20.562ZM19.907 4.55178C17.9417 2.58484 15.3281 1.5011 12.5436 1.5C6.80609 1.5 2.13647 6.16782 2.13417 11.9053C2.13342 13.7394 2.61272 15.5296 3.52361 17.1076L2.04688 22.5L7.56504 21.053C9.08542 21.882 10.7972 22.3189 12.5394 22.3196H12.5437H12.5437C18.2806 22.3196 22.9506 17.6512 22.953 11.9136C22.954 9.13315 21.8723 6.51866 19.907 4.55178Z" fill="#F6CA95"/>
</svg>
